<svg id="logosvg.com" xmlns="http://www.w3.org/2000/svg" xmlns:xlink="http://www.w3.org/1999/xlink" viewBox="0 0 240.75 135.18"><defs><style>.cls-1,.cls-5{fill:none;}.cls-1{stroke:#56a0d3;stroke-width:2.49px;}.cls-2{fill:#fdc473;}.cls-3{fill:#6bacd9;}.cls-4{fill:#60b45a;}.cls-6,.cls-7,.cls-8{isolation:isolate;}.cls-7{font-size:69.83px;}.cls-7,.cls-8{fill:#8b251b;font-family:Georgia, Georgia;}.cls-8{font-size:17.46px;}</style><symbol id="Tropical" data-name="Tropical" viewBox="0 0 106.8 79.2"><path class="cls-1" d="M37.6,16.8"/><path class="cls-2" d="M17.8,45.1c-.1,0-.2-.1-.3-.1C17.8,45,17.9,45,17.8,45.1Z"/><path class="cls-2" d="M14.3,44.2a12.51,12.51,0,0,1,3.2.8C16.7,45.1,14.4,45.3,14.3,44.2Z"/><path class="cls-2" d="M17.8,47c-.4-.2-.8-.3-1.2-.5C17.3,46.3,17.2,46.8,17.8,47Z"/><polygon class="cls-2" points="17.4 45.9 17.5 45.5 18.1 45.9 17.4 45.9"/><path class="cls-2" d="M15.5,21.4a.7.7,0,0,1,.4.5Z"/><path class="cls-2" d="M12.7,21.3a1.38,1.38,0,0,0-.4.3C12.3,21.4,12.4,21.4,12.7,21.3Z"/><path class="cls-2" d="M17.1,20.3l-.3.2C16.8,20.4,16.9,20.3,17.1,20.3Z"/><path class="cls-2" d="M35.5,30.8a8.18,8.18,0,0,1-.8.9C34.4,31,35,31,35.5,30.8Z"/><path class="cls-2" d="M6.1,34h.4C6.5,34.2,6.4,34.4,6.1,34Z"/><path class="cls-2" d="M8,18.1c.2.1.2.2.3.4-.1,0-.1.1-.2.1Z"/><path class="cls-2" d="M18.2,19.2h0a.6.6,0,0,1,.4.1A.6.6,0,0,1,18.2,19.2Z"/><path class="cls-2" d="M9.7,38.4a3,3,0,0,1,.2,1C9.5,38.9,9.5,38.5,9.7,38.4Z"/><path class="cls-2" d="M12.2,21.6Z"/><path class="cls-2" d="M12.1,15.1c-.3.1-.5.2-.8.3C11.6,15.1,11.9,15,12.1,15.1Z"/><path class="cls-2" d="M35.5,30.8l.3-.3Z"/><path class="cls-2" d="M20.8,44.3a.57.57,0,0,1,.6.4C21.2,44.7,21,44.5,20.8,44.3Z"/><path class="cls-2" d="M21.1,28.5v0Z"/><path class="cls-2" d="M19.6,28.7c-.1,0-.2-.1-.3-.1S19.4,28.7,19.6,28.7Z"/><path class="cls-2" d="M11.7,22.9c-.2.5-.4.9-.6,1.3s-.5,1-.7,1.5a5.89,5.89,0,0,0-.6,3.4c.1-.3.2-.5.3-.8a5,5,0,0,0,.1,2.1l.6-.2a7.4,7.4,0,0,0,2.6,4,10.92,10.92,0,0,1,2.4,2.1,3.4,3.4,0,0,1,.1-1l.6.4c.2.1.5.3.7.4a4.42,4.42,0,0,0,1.6.6L17,35.8a10.88,10.88,0,0,0,5.9-.3,7.83,7.83,0,0,0,2.4-1.3c.6-.5,1-.9,1.2-1.1-.2,0-.3.1-.5.1a16.67,16.67,0,0,1,1.2-1.6c-.2.1-.5.2-.7.3.1-.2.2-.3.3-.5a1.42,1.42,0,0,0,.2-.6l.3-1.2a7.94,7.94,0,0,0-.1-2.2,5.65,5.65,0,0,0-1.8-3,9.19,9.19,0,0,0-2.7-1.6,7.47,7.47,0,0,0-4.3-.3c-.9.4-.6.3-.1.2s1.2-.2,1.3,0a18.19,18.19,0,0,1-1.9.8,12.2,12.2,0,0,0-1.7.9,8.45,8.45,0,0,0,1.7-.5c.5-.1.6-.1,0,.7-.7.2-.4.3-.1.4.1.1.2.1.1.3s-.2.3-.6.7a3.53,3.53,0,0,0-1.4.3,1.24,1.24,0,0,0,.1,1.3c.1.1.1.3.2.5a10.5,10.5,0,0,0,.2,1.3c.1.7.2.9,0,.8s-.5-.4-.8-.7-.4-.7-.5-.5a3.32,3.32,0,0,0,.7,2.1,2.65,2.65,0,0,0,1.8,1.1,3.4,3.4,0,0,0,1,.1,3.59,3.59,0,0,0,1.1-.2,5.64,5.64,0,0,0,2-1.1,7.64,7.64,0,0,0,.9-.9c.1-.2.3-.4.4-.6a9.44,9.44,0,0,0,.3-.9,1.42,1.42,0,0,0-.4-1.1c-.2-.2-.3-.2-.4-.2s-.3.3-.4.4-.2.3-.3.2a2.63,2.63,0,0,0-.8-.8c.5.4.5,1.1.2,1.3-.1-.1-.4-.1-.5-.1s-.2.1-.1,0a.85.85,0,0,0,0-.7.62.62,0,0,0-.7-.2c.5-.1.6.2.6.4s-.1.3,0,.5.3.2.5.2a.22.22,0,0,1,.2.2,1.23,1.23,0,0,1-.2.7c.1-.1.3-.2.4-.3a1.54,1.54,0,0,0,.3-.7c0,.2.1.3.2.2a1.72,1.72,0,0,0-.1-1.4,1.55,1.55,0,0,0-.8-.8,1.77,1.77,0,0,1,1.1.9,3.55,3.55,0,0,1,.2,1,2,2,0,0,1-.2.9l-.4.8c0,.2.1.3.6.1a2.55,2.55,0,0,0,.7-1,3.21,3.21,0,0,0,.2-1.7,3.05,3.05,0,0,0-1.7-2.3c.4,0,.6,0,.6-.1s0-.2-.1-.4-.2-.3-.3-.5,0-.2,0-.3a4.15,4.15,0,0,1,2.4,1.7,5.13,5.13,0,0,1,.8,3.7l-.3.9c-.1.2-.2.5-.3.7a2.72,2.72,0,0,1-.8,1,4.43,4.43,0,0,1-2,1.1,5.37,5.37,0,0,1-2.2.1,2.39,2.39,0,0,1-.9-.3,4.05,4.05,0,0,1-.9-.5,2.47,2.47,0,0,1-1.9-1.5,4.7,4.7,0,0,1-.6-2.7,6.48,6.48,0,0,0,.7,2.1c.4.6.7.8.7.3a5.69,5.69,0,0,1-.4-2.7,9.59,9.59,0,0,1,.3-1.5,4.67,4.67,0,0,1,.5-1,3.22,3.22,0,0,1,1.3-.8,3.59,3.59,0,0,0-.7,1c0-.3.3-.5-.2-.2a1.51,1.51,0,0,0-.8.8c-.1.3,0,.5.2.5A18.26,18.26,0,0,0,18,25.2a11.47,11.47,0,0,1,1.4-.8,1.42,1.42,0,0,1,1.1.4c.1.1,0,.3-.1.4s-.5.4-.3.6c.4-.4,1.3,0,1.6,1a4.4,4.4,0,0,1,.2,1.6,1.45,1.45,0,0,1-.2.7.9.9,0,0,0-.1.5c0-.1-.1-.3-.1-.4s-.1-.3-.2-.5a1.79,1.79,0,0,1-.6.5l-.3.3-.3.6v-.5c-.2.1-.3-.4-.3-.6s.3,0-.5.5c.1-.1.2-.1.3-.2s.1-.2.1-.3,0-.1-.3-.3c.2,0,.5,0,.6-.1-.4-.1-.4-.2-.3-.2a.22.22,0,0,1,.2.2c.2,0,.9.7,1.3.5.3.6-.2.6-.5.4s-.7-.5-.9-.5c-.1.6.5.4.7.6-.3,0-.4.2-.6.4a4.62,4.62,0,0,1-.7.7c-.6.4-1.4.4-1.4-.7.2-.1.5-.2.6-.4-.2-.5-.4-.6-.4-.4.1,0,.1.2.1.4-.8.2-1.1-.5-.9-1.1a1.63,1.63,0,0,1,.3-.6c.1-.2.2-.2.1-.3-.4,0-.5.1-.8.1-.2-.2.3-.3.7-.2s.7.2.6-.2c-.1,0-.3-.1-.4-.1-.1-.3.5-.1.6,0-.6-.5-.4-.8.1-1.1a2.65,2.65,0,0,0,1.2-1.7,11.32,11.32,0,0,0,1.3,1,1.07,1.07,0,0,0,1,.3c.5-.3.5-.6.3-.9s-.3-.6-.1-1c.7.2.6,1.1,1.5,1.3-.3.4-.8.5-1.2.8a.71.71,0,0,0-.2,1.1c.1-.1.3-.2.4-.3-.1,0-.4.1-.5-.1-.1-.6.5-.4.7-.6a3.13,3.13,0,0,1,.9,1.1,1,1,0,0,1-.8.3c-.2,0-.3-.2-.4-.1A6.56,6.56,0,0,1,24,28a1.05,1.05,0,0,1,.5,1.4l.4-.1c-.4.6-.1.8.2,1.1s.5.6-.5.8c0,.3.2.4.4.5s.4.2.1.7c-.2.3-.4-.1-.4-.2a.71.71,0,0,0-.2.7c0,.2,0,.4-.8.5l.9.6a6.21,6.21,0,0,1-2.7.1c-.8-.1-1.5-.3-2,0,.2.7.9.5,1.4,1a6.21,6.21,0,0,0-3-.2,3.65,3.65,0,0,1-2.6-.7c.3-.2.3-.7.3-1a.84.84,0,0,1,.6-.9c-.1,1,.4.5.8.7-.2-1.1-.6-1-1.4-1a2.22,2.22,0,0,1-.9-.1c-.2-.1-.3-.4,0-.8l-.6.6c-.1-.2-.1-.9.3-1a1.42,1.42,0,0,1-.6-.2l-.6-.3a3.08,3.08,0,0,0-.1,1.4c.1.5.3.8.7.6,0,.5-.2.5-.5.5s-.5,0-.6.6c-.1-.9-.3-.8-.6-.8a.87.87,0,0,1-1.1-.3,1,1,0,0,0,.7-1.1c0-.4.1-.9.3-1-.4-.1-.2-1,.1-1.3,0-.1-.1-.2-.2-.4a2.18,2.18,0,0,1-.4-.5,1.26,1.26,0,0,1-.2-1.3,2.65,2.65,0,0,0-.6.5,1.22,1.22,0,0,1-.9.3c.4-.5.4-1-.4-1.2-.8.9-.3,1.1.2,1.2s1.1.1.8.9a1.9,1.9,0,0,0-.8,2.1c-.7-.2-.8.1-1.5.2a2.87,2.87,0,0,0,.3-2.5,2.5,2.5,0,0,1,.3-2.5c.3-.3.8-.2,1.2-.2a1.16,1.16,0,0,0,1.1-.6l.1.5.2.5c-.3-1.1.6-.1,1.1-.6h-.7c0-.5.3-.6.8-.7-.4,0-.7-.1-1.1-.1,0-.3.2-.9.7-.6a1.76,1.76,0,0,0-.5-.4c.2,0,.3,0,.5-.3-.2.1-.2.3-.5.1.5-.5.4-.7.1-.9s-.5-.3-.1-.7c-.3,0-.3-.5-.2-.8a2.11,2.11,0,0,0,1.8.5,2.46,2.46,0,0,1,1.7.1h1.3c-.2,0-.3-.5,0-.8h0c.2-.4-1.2-1.4.1-1.4.3.1.5.1.8.2-.1,0-.1-.3-.1-.4l.8.2c.3-.8.8-.8,1.4-.5.3.1.5.2.8.3a.78.78,0,0,0,.8-.1c-.3.2-.8.1-.7-.4.2-.2.6,0,.8.2l-.1-.2a10.34,10.34,0,0,1,2.1,1.1c-.1-.5-1.3-.7-.7-1.3.4-.7,1,.1,1.4.3-.1.4-.9.6-.2,1,.1-.2.9-.5.6-.8a10.63,10.63,0,0,0,1.1.9,2.33,2.33,0,0,1,.8,1.2c.3-.1,0-.4-.1-.5l-.1.1c-.3-.4.3-1-.7-.9.2-.7.5-.6.9-.4a8.26,8.26,0,0,0,1.3.7,4.19,4.19,0,0,0-.9-1.4c1.5-.5,2.8.3,3.8,1.4s1.6,2.4,2.3,3.3c-.8-.2-.8-.9-1.6-.1a15.05,15.05,0,0,0,1.1,2.2v-.1c.4.1.5.5.6.9s.2.7.7.7c.4-.5-.9-.6.2-1.2.2.5.4,1.1.6,1.6.5-.8-.6-1.6-.8-2.3-.3-.4.3.9-.5,1.1a3,3,0,0,1-.4-1.7c0-.5.3-1,.4-1.7.1-.5.4-.5.7-.3a1.87,1.87,0,0,1,.6.7,6.12,6.12,0,0,0,.8,4.6c.4.2.7.5,1.1.7-.6,1-2.3.9-2,2.2.2-.1.4-.3.6-.4.3.3.4.5.4.7a6.07,6.07,0,0,0,.7-1c.2-.4.5-.7.7-1.1.8.3.7,1.1.3,1.9s-1,1.5-1.2,2.1c.2,0,.3-.5.7-.6a3.57,3.57,0,0,1-1.2,2.7c-.2.2-.4.3-.5.5s-.3.4-.5.4a3.51,3.51,0,0,0-.9.7c.2.8,1-.8,1.6-.1-.7.5-.6,1.7-1.4,1.3,1.2.5-1.1,1.5.7,1a8.15,8.15,0,0,1-3.5,3.1,15.59,15.59,0,0,1-4.5,1.4,1,1,0,0,1,.4.8,6.89,6.89,0,0,1,.8-.3,2.92,2.92,0,0,1,.9-.2,4.84,4.84,0,0,1,1.7,0c-.3.9-1.9.1-1.8.5.4.1,1.1-.3,1.4.2-.5,1-1.4.5-2.1.6l.2-.4c-2.2,0-1.7-1.4-3.5-.6-.5.9.2.6.4,1.4-.5-.1-1.9,1.1-2.6.2l1.2-.3a7.86,7.86,0,0,1-2.3-.2c.1.2.1.4.3.4-.7-.2-1.6-.1-1.9-.7l-.2,1c.4-.4,1.6-.6,1.9-.1,0,.8-1.4.4-1.9.5a6.26,6.26,0,0,1,2.5.7,2.76,2.76,0,0,0,2.3-.2l-.4-.2a3.38,3.38,0,0,1,2-.6,6.48,6.48,0,0,0,2-.2c-.2.3-.2.7,0,.8.6-.4,1.2-.8,1.7-1.2s1.2-.7,1.7-1.1a10.92,10.92,0,0,0,1.7-1.3A7.52,7.52,0,0,0,34.2,41h1.3l-.1-.6c.8-1.3,1,.4,1.6-.4-.2.3-.3.2-.5.1,1.8-.9.1-1.2.9-1.9-.9,0-1.4,1.4-1.9.4a4.7,4.7,0,0,0,1.2-.9,2.65,2.65,0,0,0,.5-.6,4.23,4.23,0,0,0,.5-.7c.5-.8,1.1-1.5,2-1.4.2-1.8.5-3.8.6-5.8a14.76,14.76,0,0,0-.7-5.4c-.4-.3-.1.3-.4.3a1.72,1.72,0,0,0-.2-1.2,4.44,4.44,0,0,0-.8-1.1c-.6-.7-1.2-1.1-.8-1.4a2.66,2.66,0,0,0-1.5-.1,5,5,0,0,0-1.2-2.4l.3.7h-.1l-.5-.9h.1a16.13,16.13,0,0,0-2.8-2.4A20.91,20.91,0,0,1,28.8,13c.9,1-.7.9-.3,1.4-.4-1.8-3.2-2.7-5.4-2.6,0,.3-.2.5,0,.8L21.9,12l.2.4a21.14,21.14,0,0,1-3.5-.2,4.48,4.48,0,0,0-2.9.5c1-.1,1,.2,1.3.6a38.52,38.52,0,0,0-4.8,1.6c.1,0,.2.1.3.2-.4.4-1.1.4-1.6.6l.4.6c-1,.3-1.7,1.4-2.9,2,.2.4-.5.8-1.1,1.5a5.14,5.14,0,0,0-1.6,2.1c-.4.5,1.2-.8.6.6-.8-.2-1,.3-1.2.8s-.3,1-1.2.9a10.46,10.46,0,0,0,.4,1.7,6.89,6.89,0,0,0-.8.3A1.32,1.32,0,0,1,3.8,28a2.48,2.48,0,0,0-.1,2.4c.1-.2.1-.4.3-.3,0,.7.4,2.2-.4,1.2.2.5.6,1.7,1,2.5s.8,1.1.8.2c-.3.4-.8-1.2-.8-1.9.4-.1.6.2.9.6s.7.7,1.1.6a1.09,1.09,0,0,1-.1.5l.5-.1a6.18,6.18,0,0,0,1.3,2.4,6,6,0,0,1,1.4,2.1c.2-.1.6-.1,1.1.3l-.4.8a15.11,15.11,0,0,0,1.8.9c-.1-.5-.2-1.1-.3-1.6a5.39,5.39,0,0,1,1.3.7c.4.3.7.6,1.1.9a7,7,0,0,0,2.5,1.4c.3-.7,1.2-.5,2.3-.4s2.4.1,3-.8a7.57,7.57,0,0,1-1.5-.1,7,7,0,0,0,3.1-1,21.22,21.22,0,0,1,2.8-1.5,13,13,0,0,1-2.1,1.7c-.7.4-1.4,1-3.1,2,1.8-.7,3.4-1,4.9-1.7a7.72,7.72,0,0,0,3.9-3.5c-.4,0-1.2.5-.9-.4.5,0,1-.7,1.4-1.4s.6-1.1.9-.7c.3-1.3-.5-1.8-.4-2.6a10.66,10.66,0,0,0,1.2-4.4l-.1.2a26.82,26.82,0,0,0-2.8-4.5A18.24,18.24,0,0,0,26,19.1a8.65,8.65,0,0,0-1-.7,10.91,10.91,0,0,0-1.1-.6,12.09,12.09,0,0,0-2.5-.8,7.93,7.93,0,0,0-5.4.9l.3.4a7.61,7.61,0,0,0-2.1.3c.8-.2.7,0,.5.3s-.6.8-.6,1a11.1,11.1,0,0,0-4.2,3.4C10.2,23.9,11.2,24,11.7,22.9Zm-.8,15.7-.7-.5c-.2-.1-.3-.1-.4-.3.1.1.3.2.4.3C10.7,38.2,11.1,38.1,10.9,38.6Zm28.4-4.9c.1-.4.2-.7.3-1.1,0,.2-.4,1,.1.8C39.6,33.6,39.5,33.9,39.3,33.7Zm-24.8.1-.1-.6a2.18,2.18,0,0,0-.5.4A1.42,1.42,0,0,0,14.5,33.8Zm6.4.6a1.45,1.45,0,0,1-.7-.2v.1c.2.1.5.1.8.2Zm9.6-5.2c0,.1-.1.2-.1.3a.37.37,0,0,1,.1-.3,1.9,1.9,0,0,0-.1-1.3,1.14,1.14,0,0,1,.2-1.2,1.08,1.08,0,0,1,.5,1.4A2.87,2.87,0,0,1,30.5,29.2ZM13.1,38.4c-.2.5.9,1.1,1.2,1.6.6,0,0-.7-.1-1.1.3,0,.4.1.8.3.1-.6-.2-.6-.6-.5A1.12,1.12,0,0,1,13.1,38.4ZM9,18.3l-.1.2c.3-.2.7-.2,1-.4ZM12.7,16c.8.4,1.8-.3,2.7-.5,0-.7-1.2-1.1-2.1-.5C11.9,15.2,13.4,16.2,12.7,16ZM24.8,36.7a4,4,0,0,1-1.5-.1,1.44,1.44,0,0,0-1.5.5h1l-.2.2.4.4c-.4-.6-.1-.8.3-.8A13.89,13.89,0,0,0,24.8,36.7ZM21.2,13.9c.4.2,1,.5,1.5.8s.7.6.6.9a1.35,1.35,0,0,0-.5-1.2,1.39,1.39,0,0,0-.9-.4C21.7,14.1,21.5,14,21.2,13.9Zm.3,1.1c-.4.1-.2.8-1.1.4.1-.5-.3-1.9-1.5-1.2,1.1.8,1.2,1.2,2.3,1.6Zm-1.8-1.9-.5.2c-.6.5-.5,1.6-1.5.7a10.09,10.09,0,0,1,1.5-.7C19.4,13.2,19.5,13.1,19.7,13.1Zm10.7,2.1-.3-.6c.4.3.4.5.3.6l.2.5C29.5,15.5,30.2,15.4,30.4,15.2Zm-9.6-2c.5,0,1,.1,1.5.1C21.9,13.4,20.9,13.7,20.8,13.2Zm8.9,2.7c-.6-.3-2.1-.7-1.9-.7C28.1,14.7,29.5,15.4,29.7,15.9Zm3,26.1-.1-.8-.7.5Zm4.4-7.8.2-.5-.3-.2ZM36,24.8c.2,0,.3-.1.4-.3s0-.3.1-.4c.1.1,0,.3-.1.4a1.17,1.17,0,0,0,.6,1c.3-.3,0-.8.1-1.1.6.2.5,1.1.4,1.7s0,.9,1.1.3c-.1.5-.5,1.9-1,1.5A4.68,4.68,0,0,0,36,24.8c-.1,0-.3,0-.3-.1S35.9,24.7,36,24.8Zm-9-7.3c-.3-.2-.4-.3-.4-.4a1,1,0,0,1-.2-.9c.6.5.1.6.2.9Zm-.3,1a5.26,5.26,0,0,0-1.2-1.4l.4.7c-.3-.2-.6-.5-.9-.7a1.82,1.82,0,0,0,.5,1.1A3.5,3.5,0,0,0,26.7,18.5Zm-2.1-1.1-.1-.6.2.6h-.1v.1c-.3-.1-.5-.2-.8-.3l-.8-.3A14.24,14.24,0,0,1,24.6,17.4ZM9,23.9a1.15,1.15,0,0,0,1.7.1c.4-.3.8-.8,1.3-.6-.3-.2-.5-.6-.8-.7s-.7-.1-1.1.7c0-.8.5-.9.7-.9s.3,0-.1-.9a5.72,5.72,0,0,1-.7.8c-.3.2-.5.4-.6.4a2,2,0,0,1,.4-.8c-.7-.1-.7.3-.7.8S9.3,23.7,9,23.9Zm2.1,8.8a5.5,5.5,0,0,0,.7.9,6,6,0,0,1-.8-.8Zm10.8-8.6c0,.2-.4.5-.7.6s-.7.1-.8-.3C21,24.2,21.7,24.4,21.9,24.1Zm-5.2,6a2.28,2.28,0,0,1-.3-1.1c.5-.2.6,0,.6.2s.1.6.4.7C17.2,30.4,17.1,29.9,16.7,30.1Zm5.5-1.7c0-.1.1-.2.1-.4a4.05,4.05,0,0,1-.9.5Zm-2,.2.1.1a1.09,1.09,0,0,1,.5.1A1.42,1.42,0,0,0,20.2,28.6Zm-.5-.6a1.4,1.4,0,0,1,.9.3c0-.2.1-.4,0-.5A2.92,2.92,0,0,0,19.7,28ZM19,28a4.33,4.33,0,0,0,.5.1c.2.1.2.2.2-.1-.3-.4-.2-.1-.3-.1s-.1-.4.1-.4a1.4,1.4,0,0,0,.4.7,6.13,6.13,0,0,0,.4.6c.3.1.4-.2.2-.4a7.26,7.26,0,0,0-.9-.5A.47.47,0,0,1,19,28Zm2.2-.4h.4l-.1.2c-.3.1-.3,0-.3-.2h-.4a3.63,3.63,0,0,0-.3.7,2.19,2.19,0,0,1-.3.5c.2-.1.4-.7,0-.4,0,.2-.1.3,0,.3-.1,0-.1,0-.1.1.1-.4,0-.7.1-.9a.6.6,0,0,1,.6-.3l.3-.3C21.2,27.3,21.2,27.5,21.2,27.6Zm-2.9.8c-.1.1-.4.1-.6.4a.9.9,0,0,0,.1.5c.4.1.5-.1.5-.3A.63.63,0,0,0,18.3,28.4Zm-.2-5.2c-.2.3.7.7,1.2.4,0,.3-.1.6-.1.9-.2-.6-1.2-.1-1.3-.1C17.3,23.8,17.8,23.9,18.1,23.2ZM12.5,33.9c0,.2.5.4.9.7a1,1,0,0,1,.6,1.1c.5-.4.3-.8-.1-1.1S12.8,34.1,12.5,33.9Zm-1,.9-.3-.3c-.2-.5.4-1.1-.5-1.4,0,.3.4.3.4.7-.4.4-.3.4.1.7Zm15.7-2.6c.3-.1.7-.2,1-.3l.3-1.2A3.84,3.84,0,0,1,27.2,32.2Zm-3-10.7c-.1.5-1.3,0-1.6-.3,0,.3.2.5.5.7s.6.3.9.5a1.38,1.38,0,0,0,.4.3,1.38,1.38,0,0,0-.4-.3c-.2-.2.1-.5.2-.7h.4l-.9-.6ZM19.6,34.8a2.58,2.58,0,0,1,1.9-.5A2,2,0,0,1,19.6,34.8Zm9.9-8.5c-.4-.7-.6-.4-.7-.1s-.2.7-.6.3a4.88,4.88,0,0,1,.3.7c-.5-.5-.4-.7-.3-.9s.4-.5.1-.8c.1.2.3.3.4.5.4.1.4-.2.3-.5s-.2-.7,0-.9a2.23,2.23,0,0,1,.6,1.3C29.7,26.3,29.7,26.6,29.5,26.3Zm-8,8.6c.8-.6,1.2-.7,1.6-.6a1.85,1.85,0,0,0,1.4-.2c-.6.8-1,.9-1.5.8A7.35,7.35,0,0,0,21.5,34.9ZM21.4,18l.1-.1a9.38,9.38,0,0,1,1.5.6l-.1.1A9.38,9.38,0,0,0,21.4,18Z"/><path class="cls-2" d="M20,28.7Z"/><path class="cls-2" d="M12.9,30a.19.19,0,0,1-.3,0Z"/><path class="cls-2" d="M12.6,28.8Z"/><path class="cls-2" d="M21.3,43.5c-.5-.7.4-.1.7-.2C21.7,43.4,21.6,43.9,21.3,43.5Z"/><path class="cls-2" d="M24,44.4a1.4,1.4,0,0,0-.9-.3Q23.4,44,24,44.4Z"/><path class="cls-2" d="M21.9,44.4a2.23,2.23,0,0,1,1.3-.3C22.8,44.2,22.6,44.5,21.9,44.4Z"/><path class="cls-2" d="M30.3,41.3c-.6-.2-1.1.5-1.1.5,1.1-1.3-.7-.5-1-.8C29.1,40.6,29.4,41,30.3,41.3Z"/><path class="cls-2" d="M32.2,40c-.1.1-.2.3-.3.4A1.38,1.38,0,0,1,32.2,40Z"/><path class="cls-2" d="M32.3,39.3a2,2,0,0,1,1.5,0c-.2.8-1.2.5-1.7.8C32.5,39.7,32.8,39.5,32.3,39.3Z"/><path class="cls-2" d="M31.9,24.7c0,.1.2.3-.1.5l-.4-.6C31.3,24.2,31.7,24.6,31.9,24.7Z"/><path class="cls-2" d="M30.9,21.4c-.5-.5-.7.4-.9,0l.7-.8Z"/><polygon class="cls-2" points="34.6 17.9 34.7 18.2 34.5 17.9 34.6 17.9"/><path class="cls-2" d="M27.5,20.4c0,.4-.1.8-.1,1.2C27,21.1,27.4,20.3,27.5,20.4Z"/><path class="cls-2" d="M24.9,20.2l.2.4a3.33,3.33,0,0,0-1-.6C24.4,20.1,24.6,20.1,24.9,20.2Z"/><path class="cls-2" d="M22.1,19.2l-.1.2c-.3-.1-.5-.2-.8-.3C21.5,19.1,21.8,19.2,22.1,19.2Z"/><path class="cls-2" d="M23.2,32.3c.4.3.2.6,0,.9s-.7.5-.8.7c-.2-.6.1-.6.4-.7A.66.66,0,0,0,23.2,32.3Z"/><path class="cls-2" d="M19.7,29.3a1.85,1.85,0,0,1-.7-.2c.3-.2.3-.2.3-.1S19.4,29.3,19.7,29.3Z"/><path class="cls-3" d="M95,64.1c.1,0,.1.1.2.1C95,64.3,94.9,64.3,95,64.1Z"/><path class="cls-3" d="M97.5,64a3.25,3.25,0,0,1-2.4.2C95.7,63.9,96.8,62.6,97.5,64Z"/><path class="cls-3" d="M94.3,61.7a6.89,6.89,0,0,0,.8.3C94.8,62.5,94.6,61.8,94.3,61.7Z"/><polygon class="cls-3" points="94.9 63.1 95 63.6 94.4 63.2 94.9 63.1"/><path class="cls-3" d="M58,65.1a1.91,1.91,0,0,1,.3.8Z"/><path class="cls-3" d="M55.5,63a.76.76,0,0,0-.4-.1C55.1,62.8,55.3,62.9,55.5,63Z"/><path class="cls-3" d="M59.8,64.3l-.3.2C59.6,64.4,59.7,64.3,59.8,64.3Z"/><path class="cls-3" d="M77.4,60.2c.1.5.1.9.2,1.2C77,61.6,77.4,60.8,77.4,60.2Z"/><path class="cls-3" d="M48.2,54.5l-.2.4C48,54.7,48,54.5,48.2,54.5Z"/><path class="cls-3" d="M54.2,55.6v.6l-.1-.1Z"/><path class="cls-3" d="M60.9,63h0l.4.1C61.1,63.3,61,63.2,60.9,63Z"/><path class="cls-3" d="M46.4,53.4a3.75,3.75,0,0,1,.1-1A3.75,3.75,0,0,1,46.4,53.4Z"/><path class="cls-3" d="M55,62.9Z"/><path class="cls-3" d="M56.2,55.8c-.1,0-.2-.1-.4-.1C55.9,55.5,56.1,55.6,56.2,55.8Z"/><path class="cls-3" d="M77.4,60.2a.6.6,0,0,0-.1-.4C77.5,59.9,77.5,60,77.4,60.2Z"/><path class="cls-3" d="M93,65.5c-.3,0-.4-.3-.4-.6A5.92,5.92,0,0,1,93,65.5Z"/><path class="cls-3" d="M2.8,61.6Z"/><path class="cls-3" d="M13.1,66.5c0,.1.1.2.1.4S13.1,66.8,13.1,66.5Z"/><path class="cls-3" d="M20.4,54.6c-.4.8-1.4-.3-1.8-.3l.3.5-.6-.3.2.8c-.8-.2-1.5.8-2-.4l.3,1.2a6.47,6.47,0,0,1-.8-.9l.5.8a1.26,1.26,0,0,1-1.2-.1c-.4-.2-.6-.5-.7-.4l.1.5c-.1.2-.2-.1-.3-.2l.1.7c-.5-.1-.8.2-1.3.4a1,1,0,0,1-1.4-.2c-.4.1.1.3,0,.7-.3.5-.7-.2-.7-.5-.2,1.1.5.9-.3,1.6-.2-.6-.1,1-.6.7l.2-1.4c-.4.1-.4,1-.9.7-.3-.8,1.3-1.2.5-1.8-.2,0-.8.6-1.4,1.1s-1.3.8-1.6.3c-1.2.2-.6,2.2-1.6,1.2.1.4.2.9.3,1.3-.4.2-.6,1-1,.4a2.62,2.62,0,0,0-.1-1.6c.6,1.6-1.9.8-1.5,2.6l-.4-.3a.37.37,0,0,1-.1.3L2,61.7c.2.5,1,1.1,0,1.8l-1-.3c-.2.8-.7.9-1,1.4a18.72,18.72,0,0,0,2,2.9c.1-.5-.2-1,.2-1.3,1,0,.2,1.1,1.3.9v-.7c0,.2,0,.4-.2.4-.4.2-.3-.3-.2-.6.6-.6,1.1.3,1.1.9,1,.4.8-1.2,1.1-1.3,0,1.4,1.6.6,2,1.4l-.1-1c1.1-.7,1.5.3,1.9.7v-.7c.5.2,1-.2,1.5-.4s.7-.1,1,1.2v-.5c.5-.1,1.2-.6,1.6.2,0-.3.1-.7.3-.7.2,1,.7.3,1.3.1-.4-.3-.3-1.5-.7-1.8.9-1.3.8,1.4,1.7,1.4.4-.7-.5-.7-.6-1.2.6.4,1.2-.5,1.6-1s.8-.9,1.4.3l-.4.9c.6.5.8.4.7.2-.1.1-.2-.1-.3-.3,1.1-1.5,2.5,1.3,3.8.5-.2-.4-.5-.5-.6-.9.5-.6,1.2,2.2,1.9,1l-.3-.5c.2-.4.7.3.7.4-.6-2.1,2-.5,1.8-3.3.8,1,2.2,1.6,2.5.9.3-1.4-.8-1.3-.9-2.5.5-.1,1,1,1.5.4.3,1.2-.8,2.6.6,3v-.7c-.1.1-.2.4-.4.3-.5-.6,0-.8,0-1.2h1.4c.4,1.2-.5,1.1-.5,1.4,1-.5,1.9-2.6,3.1-2l-.2-.4c1.4.8.3-2.4,1.7-.6.5-.4-.4-1.3.4-1.5.2,0,.2.5.1.6,1,.3.3-1.2,1.3-.2L35.8,58a9.76,9.76,0,0,1,1.7,1.8,5.55,5.55,0,0,0,.6.8c.2.2.3.2.5.1.2-1-.3-1-.5-1.8a2.14,2.14,0,0,0,1.7,1.3,3.25,3.25,0,0,1,1.8,1c-.7.7-.2,2.1-1.2,2.5.3-1.3-.4-.7-.7-.9a1.07,1.07,0,0,0,0,.8,1.38,1.38,0,0,0,.3.4c.3.2.7.1,1.1.1.9-.1,1.6-.3,1.4.9l.5-.9c.2.2.5,1.1,0,1.3a9.85,9.85,0,0,1,1.7-.2c-.4-.9-.9-2.9-1.6-2-.1-1.2.8-.5.8-1.8.4,1.9.8-.5,1.6.1-.8,1.4.5,2.2.3,2.9.4-.2,1,.6,1.2,1.2a4.19,4.19,0,0,0,1.4-.2,2.19,2.19,0,0,1,1.6.1,2.82,2.82,0,0,1-.7-2.1c.4.6.9.6,1.1-.5-.7-1.1-.9-.5-1.1.2s-.4,1.5-1,.7a3.08,3.08,0,0,0-1.1-2.2c.5-.6.4-1,.7-1.8.2,1.4.7,1.5,1.3,1.5s1.2-.2,1.8.5c.4.8-.1,2.5,1.2,2.8l-1.1.8c1.3-.8.3.7,1.3,1l-.4-.9c.6-.2.8,0,1.2.6a6.94,6.94,0,0,1-.5-1.3c.3-.2.9-.3,1,.4a2.49,2.49,0,0,0,.1-.8c.1.2.2.3.6.3-.2-.1-.4,0-.4-.4,1.4.2.2-1.5,1.1-1.4a.69.69,0,0,1,.3-.9c.2,2.1,2,2.1,2.7,3.1h0c.3.1.8.3,1.3.5-.3-.1-.2-.7.1-1l-.1-.1c.3-.4-1-2.1.2-1.8l.7.4c-.1,0-.1-.4-.1-.5l.7.4c.1-1.1.6-.9,1.1-.7s1.1.6,1.4,0c-.2.2-.7.2-.7-.4.1-.3.4-.2.7.1l-.1-.2,2.1.6c-.4-.6-1.3-.4-1.1-1.3-.1-1,.7-.2,1-.2.1.5-.2,1.2.4,1.3,0-.3.3-1-.1-1.3a5.4,5.4,0,0,1,2.3,1.3c.1-.3-.2-.4-.3-.5v.2c-.4-.2-.4-1.4-.9-.6-.6-1.8.7-.8,1.2-1.2a10.59,10.59,0,0,0-1.2-1,1.91,1.91,0,0,1,2.6-1.3,8.8,8.8,0,0,1,1.5.5,9.29,9.29,0,0,0,1.3.4c-.5.5-.9,0-.8,1.5.9.7.8.4,1.7.7l-.1-.1c.5-.7.9.8,1.3-.4-.1-.8-.7.7-.5-.9a4.51,4.51,0,0,1,1.1.3c-.2-1-1.1-.3-1.5-.6-.3,0,.6.3.3,1.3a.86.86,0,0,1-.6-.3,1,1,0,0,1-.4-.5,17.08,17.08,0,0,1-.7-1.8c-.4-1.1.6-1.1.8-1.1A4.41,4.41,0,0,0,74,58.6a1.08,1.08,0,0,0,.7.3,3.08,3.08,0,0,0,.9-.1,9.43,9.43,0,0,1,1-1c.2,1.2-.7,3.2.2,3.2l.1-.9a1.55,1.55,0,0,1,.6-.3c-.1-.7-.3-1.6-.5-2.4.6-.8,1-.4,1.3.3a15,15,0,0,0,.7,2c.1-.2-.2-.4-.1-.9,1.5.2,1.5,2.9,2.2,3.7.8-.4-.4-.9.4-1.8.2.7,1.3.2.8,1.2.7-1.5,1.1.6,1.1-1.2,2.1.5,3,2.9,4.9,4.5a2.43,2.43,0,0,1,.3-1.1,1.87,1.87,0,0,1-1.2-2.2c.4-.3.4.1.5.5s.1.7.2.5c-.1-.4-.4-.6-.1-1.3.8-.6.6.6.9.9l-.3.3a3.61,3.61,0,0,1,.4,1.9c.1.5.2.9,1,.8.7-.9.1-.8.3-2,.1.2.5.1.8,0s.6,0,.8.6c-.3.1-.5,0-.8.1.5.4,1.1.4,1.5.7-.1-.3-.1-.5-.2-.6.5.3,1.1.3,1.4,1L93.7,64c-.2.6-1,.8-1.2.1,0-1.1.8-.4,1.1-.6-.8,0-1.2-.7-1.5-1.1-.2-.2-.3-.4-.5-.4s-.3-.1-.6.1l.1.4c-.4.4-.8.3-1-.1s-.4-.9-.7-.9a1.8,1.8,0,0,0,.4-.9,2.37,2.37,0,0,1-2-.2,9.25,9.25,0,0,1-1-.5,7.26,7.26,0,0,0-1.2-.5l.2-1.3-.6.8c-1-.1.6-1.2,0-1.5.2.1.1.2,0,.5-.3-1.5-1,.4-1.3-.2-.3,1,.8,1-.2,1.9-.3-1.5-2.1-1.9-1.1-4a6.36,6.36,0,0,1-1.8-.6c-.6-.3-1.1-.7-1.8-1.1a17.39,17.39,0,0,0-1.8-1.1,6.7,6.7,0,0,0-1.8-.7c-.4.4.1.3,0,.6-.3-.7-1.1-.6-1.8-.4s-1.1.5-1.1-.1c-.4.3-.6,1.2-.7,1.5a3.25,3.25,0,0,0-1.8-1l.5.3v.2l-.7-.4v-.1a22.53,22.53,0,0,0-2.6,0,4.85,4.85,0,0,1-2.6-.5c1,.5.2,1.4.7,1.8-1.2-1.7-3-1.2-4.1-.5a3,3,0,0,0,.4,1l-1-.5.3.4c-1.1.8-3-.8-3.4.3.5.1.6.4.9,1a3.91,3.91,0,0,1-2.4.1c.1.1.1.2.2.4-.2.2-.5-.2-.8-.4l.2.9c-.5-.4-1,.2-1.5-.5,0,.5-.4.3-.7,0s-.7-.7-1-.5c-.2-.2.5,1.1-.1,1,0-2-.8-.1-.7-2.3-.2.3-.3.5-.5.8V54.1c-.3,1-.5.8-.6.3s-.3-1.1-.7-.8c0,.2.1.3,0,.5-.2-.3-.7-.5-.2-1-.4,0-1.5-.8-1.2.4.1-.6.5,0,.7.3-.2.9-.7.4-1.1,1.4a.6.6,0,0,0-.1-.4l-.2.6a1.91,1.91,0,0,0-.9-.9,1.26,1.26,0,0,1-.4-1.1c-.1.3-.3.5-.5.3l.4-1.1c-.2-.1-.4-.1-.6-.2a8.47,8.47,0,0,0-.4,1.7c-.4,0-.6-.5-.8-1.1a3.09,3.09,0,0,0-.2-.8,1.79,1.79,0,0,0-.5-.7c-.4.9-1,.5-1.6,0a5.17,5.17,0,0,0-1.3-.6,1.37,1.37,0,0,0-1.3.4c.4.2.7.5,1.1.7a4.94,4.94,0,0,0-1.5-.3,4.25,4.25,0,0,0-1.1.2,3.73,3.73,0,0,1-2.1,0,5,5,0,0,1,1.7-.6c.6-.1,1.2-.5,3-1a7.75,7.75,0,0,1-2.2-.1,4.4,4.4,0,0,1-1-.2c-.3-.1-.6-.1-.8-.2a3.28,3.28,0,0,0-2.9.4c.2.5.7.7.3,1.2-.5-1-1.6.3-1.6-.9-.5.5-.4,1.6-.6,1.8l-2-1.1.1.2c-1.1,1.6-2.2,1.5-3.7,1.1s-3.1-.8-4.3.1l.2.6c-.3-.2-.6-.5-.9-.7.7.4,0,.8.1,1.4-.7-.3-1.4-.6-2-.9C19.6,53.8,20.1,54.9,20.4,54.6Zm25.4-.8.3.2c.1,0,.1,0,.2.1l-.2-.1C45.9,54.1,45.6,54.5,45.8,53.8ZM81.5,56c-.2-.2-.4-.3-.6-.5.2,0,.5.6.6,0C81.5,55.6,81.7,55.8,81.5,56ZM42.8,61.1l.1.7.5-.7Zm-4.5-1.5a2.19,2.19,0,0,0,.3.5l.1-.2a1.76,1.76,0,0,0-.4-.5Zm-7-5.8.1.1a.1.1,0,0,1-.1-.1c-.6-.5-.5,1-1.1-.3C30.4,52.2,30.9,53.4,31.3,53.8Zm13.3,1.3c.3-.7-.2-1-.1-1.6-.3.1-.2.8-.3,1.3q-.15,0-.3-.3C43.3,56.1,44.5,54.2,44.6,55.1Zm9.9,1.7h0a.92.92,0,0,0,.4.6Zm2.1.4c.5,1,1.1.6,1.6.7-.1-.9-.9-1.7-1.3-1.5C56.1,55.8,56.9,57.8,56.6,57.2Zm-20-2.5c.2.1.5.7.8,1a.7.7,0,0,0,1.2.1l-.7-.5.2-.1-.2-.7c.1,1-.2,1-.5.8S36.8,54.7,36.6,54.7Zm24.6,1.5c.7.4,1.9.8,2,1.5-.4-1.3-1.4-1.6-1.6-1.5C61.6,56.3,61.5,56.3,61.2,56.2Zm.7,1.4c-.2.2.2,1-.5.6-.2-.7-1-2.3-1.4-1.5.9,1,1.2,1.6,2.1,1.9Zm-1.8-2.3-.2.3c-.1.6.3,2.1-.7.8l.7-.8C59.9,55.4,59.9,55.3,60.1,55.3Zm6.6-2-.5-.4c.4,0,.5.2.5.4l.4.3C66.4,54.3,66.7,53.7,66.7,53.3Zm-6,2.1.9-.2C61.4,55.5,61,56,60.7,55.4Zm6-.9a5.84,5.84,0,0,1-1.3.5C65.3,54.3,66.4,54.2,66.7,54.5Zm19.6,6.1-.7.7.4.3Zm-5.6-1.9-.3-.2-.4.3Zm-6.4-1.9a1.7,1.7,0,0,0,.1-.7.52.52,0,0,1-.2-.4c.1,0,.2.2.2.4a.65.65,0,0,0,.9-.1c0-.5-.4-.4-.6-.8.4-.5.8.1,1.1.5s.5.5.7-1.1c.2.5.8,1.5.4,2a2.44,2.44,0,0,0-2.6.2c0,.2-.1.3-.2.3S74.2,56.9,74.3,56.8Zm-8,1.3c-.2,0-.4-.1-.4-.2a1.46,1.46,0,0,1-.6-.9c.6.2.4.7.6.9A.76.76,0,0,0,66.3,58.1Zm.4,1.4a17,17,0,0,0-1.4-1l.6.6-.9-.4C65.4,59.5,66.3,60.2,66.7,59.5Zm-1.8-.1-.4-.7.4.7h0l.1.2H63.7A2.54,2.54,0,0,1,64.9,59.4ZM52.2,60.8c-.6,2.7,1.1,1.9,1.5,3.2,0-.9.4-2.3-.8-2.2,1-.9.8,1.7,1.3-.6-.5.2-1.1-.5-1.2-.5l.6-.1C53.1,58.9,52.6,61.4,52.2,60.8Zm-6.5-.4L45,60l.7.3Zm-18.6.1c.2.6-.5,1.9-1,.9C26.5,61.1,27.1,61,27.1,60.5Zm-8.1,2,1,.3c.2,1.4-.8.1-1.2.5C18.5,62.6,18.9,63,19,62.5Zm-5.9.5-.3-.3a5.9,5.9,0,0,0,.2,1.4Zm.9,2.8a.62.62,0,0,1-.6-.9ZM7.7,63.5l-.1,1.3-.4-.1Zm.7-.7a1.18,1.18,0,0,1-.1.8c.1.4.4.6.9.4.1-.6-.2-.3-.4-.5.2,0,.5-.3.8,0-.7,1-.4,1-.7,1.9-1.2.3-.7-.9-.5-1.8C8.2,63.3,8.3,63.1,8.4,62.8Zm3.4.7c.1-.1.3-.2.3-.3v.2c-.1.4-.2.2-.3.1a.76.76,0,0,1-.5.2c-.3.8.3,1.4.4,1.9-.3-.3-.4-1.1-.9-.7,0,.2-.1.4.2.4l-.6.1c-.4-1.2.3-1.4,1-1.7a1.33,1.33,0,0,1,.3-.5C11.7,63.1,11.7,63.3,11.8,63.5ZM8.3,61.7c0-.2.2-.5.2-.8l-.2-.3A.65.65,0,0,0,8.3,61.7Zm15.8-2.1c-.1.3.6,1.1.9.7l.1,1.2c-.2-.8-1-.4-1.1-.5C23.6,60.1,24,60.4,24.1,59.6Zm20.4.5c-.1-.4-1.4.1-1-1.4C42.5,60.1,43.9,60.2,44.5,60.1Zm.6-1.6a.31.31,0,0,0,.2.1c.2.4-.1,1.5.6,1-.1-.3-.4,0-.4-.3.2-.7.1-.6-.1-.7A.37.37,0,0,0,45.1,58.5ZM33.7,56.7l-.6-1c-.2.1-.4.1-.6.2Zm-6.9-.6a.44.44,0,0,1-.7.5c.2.8.7.6,1.1.6a.37.37,0,0,0,.3.1c-.1,0-.2-.1-.3-.1a1.34,1.34,0,0,1-.2-.9l.1-.3-.6-.1ZM16.1,57.9c-.2.7-.3.4-.5.2A.28.28,0,0,1,16.1,57.9Zm14-3.2c-.6.6.6,1.2.2,1.7l.3-.2c-.4,1-.6-.8-1-.5l.2-.2c0-.8-.5-.4-.7-1C29.5,54,30.3,54.4,30.1,54.7ZM15.6,57.5c-.5.9-.5-.8-.7-1C15.2,55.8,15.2,57.3,15.6,57.5ZM24.4,53v-.2l.7.3v.2Z"/><path class="cls-3" d="M15.2,65.8a.45.45,0,0,1-.5,0Z"/><path class="cls-3" d="M45.6,64.5a1.38,1.38,0,0,1,.3-.4C45.9,64.3,45.8,64.4,45.6,64.5Z"/><path class="cls-3" d="M47,65.4Z"/><path class="cls-3" d="M92.6,66.5c.4,1-.3.2-.6.2C92.3,66.7,92.3,66,92.6,66.5Z"/><path class="cls-3" d="M90.6,64.8a.9.9,0,0,0,.6.6Q90.9,65.55,90.6,64.8Z"/><path class="cls-3" d="M92.2,65.3a1.69,1.69,0,0,1-.5.2.9.9,0,0,1-.5-.1C91.4,65.4,91.6,65.1,92.2,65.3Z"/><path class="cls-3" d="M85.7,63.5a.62.62,0,0,0,.6.7c-1.4,0-.3,1.2-.4,1.7C85.3,65.2,85.7,64.5,85.7,63.5Z"/><path class="cls-3" d="M84.5,62.4c.1.1.2.1.4.1C84.7,62.5,84.6,62.5,84.5,62.4Z"/><path class="cls-3" d="M83.8,62.7c-.3-.4,0-1,.1-1.6.7-.2.3,1,.6,1.3C84.2,62.2,84,62,83.8,62.7Z"/><path class="cls-3" d="M72.5,61.3c.1.1.3.1.2.5h-.6C72,61.6,72.4,61.4,72.5,61.3Z"/><path class="cls-3" d="M70.3,59.4c-.5,0-.1,1-.4.8l-.1-1.3C69.9,59.1,70.1,59.2,70.3,59.4Z"/><polygon class="cls-3" points="70.1 52.6 70.3 52.7 70 52.7 70.1 52.6"/><path class="cls-3" d="M68.2,61.1c.2.5.4.9.6,1.4A2.21,2.21,0,0,1,68.2,61.1Z"/><path class="cls-3" d="M66.7,62.5c.1.1.3.2.4.4-.3-.1-.6-.1-1-.2Z"/><polygon class="cls-3" points="64.3 62.6 64.3 62.9 63.5 62.8 64.3 62.6"/><path class="cls-3" d="M36.1,60.7c-.1-.6.1-.8.4-.9s.6,0,.7-.2C37.1,61.2,36.4,59,36.1,60.7Z"/><path class="cls-3" d="M16.3,65.2c.4.1.9.1,1.3.2C16.7,66,17.3,65.4,16.3,65.2Z"/><path class="cls-4" d="M40.3,37.4h-.1C40.2,37.3,40.2,37.3,40.3,37.4Z"/><path class="cls-4" d="M39.1,37.7a.85.85,0,0,1,1-.3C40,37.6,39.9,38.5,39.1,37.7Z"/><path class="cls-4" d="M41.4,38.8l-.5-.1C40.9,38.4,41.2,38.8,41.4,38.8Z"/><polygon class="cls-4" points="40.7 38 40.4 37.7 40.8 37.9 40.7 38"/><path class="cls-4" d="M53.8,25.7a1.63,1.63,0,0,1-.3-.6Z"/><path class="cls-4" d="M55.2,27.1h.2C55.4,27.2,55.3,27.2,55.2,27.1Z"/><path class="cls-4" d="M53.2,26.1l.1-.1A.1.1,0,0,1,53.2,26.1Z"/><path class="cls-4" d="M45.8,31.6a4.23,4.23,0,0,1-.7-.5C45.2,30.7,45.6,31.3,45.8,31.6Z"/><path class="cls-4" d="M60.6,31.5l-.1-.3A.37.37,0,0,1,60.6,31.5Z"/><path class="cls-4" d="M57.4,32.1a.76.76,0,0,1-.1-.4l.1.1Z"/><path class="cls-4" d="M52.9,27h0l-.2-.1C52.8,26.8,52.8,26.8,52.9,27Z"/><path class="cls-4" d="M61.7,31.6l.3.6A.6.6,0,0,1,61.7,31.6Z"/><path class="cls-4" d="M55.5,27.1h0c0,.1-.1,0,0,0Z"/><path class="cls-4" d="M56.3,32.2c.1,0,.1,0,.2.1S56.4,32.3,56.3,32.2Z"/><path class="cls-4" d="M45.8,31.6l.2.2Z"/><path class="cls-4" d="M40.5,36.3c.1-.1.2.1.4.3A1.38,1.38,0,0,0,40.5,36.3Z"/><path class="cls-4" d="M77.7,22Z"/><path class="cls-4" d="M73.3,21.3c0-.1-.1-.2-.1-.3A.44.44,0,0,1,73.3,21.3Z"/><path class="cls-4" d="M70.3,29.6c.2-.5.6.4.8.4l-.1-.4.3.3-.1-.6c.4.2.8-.4,1,.5l-.1-.9.5.7-.3-.6c.4-.2,1.1.4,1.2.4l-.1-.3c.1-.2.1,0,.2.2l-.1-.5c.7.1.8-1.1,1.5-.6.2-.1-.1-.2-.1-.5s.4,0,.4.2c-.1-.8-.4-.5-.2-1.2.2.4-.2-.7.2-.6l.2,1c.2-.2,0-.8.3-.7.3.4-.3,1.2.2,1.3.2-.1.4-2.4.9-1.9.4-.5-.3-1.6.3-1.4l-.4-.7c.1-.3,0-.8.3-.6a3.36,3.36,0,0,0,.4,1c-.6-.8.5-1.2,0-2.2h.2v-.2l.3-.1c-.2-.2-.6-.3-.4-1.1l.4-.2A5.63,5.63,0,0,1,78,19l-1.2-1.1a2.92,2.92,0,0,1,.2.9c-.3.3-.3-.6-.6-.1l.1.5c0-.2-.1-.2,0-.3.1-.3.2,0,.2.3-.1.6-.4.2-.5-.2-.4.1,0,1.1-.1,1.2-.2-1-.6,0-.9-.4l.2.6c-.3.8-.5.2-.7,0l.1.5c-.4-.1-.5,1.7-.9-.1l.1.3c-.2.2-.4.6-.6,0,0,.2,0,.5-.1.6-.1-.7-.3-.2-.5,0,.2.2.2,1.1.4,1.3-.3,1-.4-1-.7-1-.1.5.2.5.3.8-.5-.5-.7,2.2-1.2.4l.1-.6c-.3-.1-.5-.1-.4.1.1-.1.1.1.1.3-.4,1-1-1.3-1.6-.8a1.85,1.85,0,0,1,.2.7c-.2.4-.5-1.7-.8-1l.1.4c-.1.3-.3-.3-.3-.4.2,1.6-.9.1-.9,2.1-.3-.8-1-1.4-1.1-.9-.1,1,.4,1,.5,1.9-.2,0-.5-.8-.7-.4-.2-.9.3-1.9-.4-2.2v.5c0-.1.1-.3.2-.2.3.5,0,.6,0,.8l-.7-.1c-.2-.9.2-.8.2-1-.5.3-.8,1.7-1.3,1.2l.1.3c-.7-.7,0,1.7-.7.4-.2.3.3.9,0,1.1-.1,0-.1-.3-.1-.4-.5-.2,0,.9-.6.2l.3.9c-.6-.5-1.6-2.1-1.9-1.6.3.6.5.5.8,1-.9-1.2-1.4.2-2.1-.4,0-.7-.7-1.4-.5-2,.4,1,.4.4.6.4-.9-2-.9,1.3-1.5-.4l.1.7c-.1-.1-.5-.6-.4-.8l-.5.7c.4.5,1.2,1.6,1.1.8.4.7-.1.6.3,1.4-.8-1.1-.1.6-.5.4-.2-1.1-.8-1.3-1-1.8-.1.2-.5-.2-.7-.5-.3,0-.5,1-1,.8a2.64,2.64,0,0,1,.8,1.3c-.3-.3-.5-.2-.3.5,1.1,1.2-.4-1.8.5-1.1a2.54,2.54,0,0,0,1,1.2,12.08,12.08,0,0,0,.3,1.4c-1-1.7-1,.1-1.7-.6-.4-.5-.7-1.7-1.2-1.7l.2-.7c-.2.7-.3-.5-.7-.6l.4.5c-.2.2-.3.1-.6-.3l.5.8c-.1.2-.2.4-.4-.2.1.2.1.4.2.6-.1-.1-.2-.2-.3-.1.1.1.2,0,.3.3-.6,0,.3,1-.1,1.1a1.49,1.49,0,0,1,.1.6c-.6-1.4-1.3-1.4-1.7-2.1h0l-.7-.4a.82.82,0,0,1,.1.7h0c0,.3.8,1.5.2,1.2l-.4-.3c.1,0,.1.3.1.4l-.4-.3c.3,1.5-1-.5-1.1.3.1-.2.3-.1.4.3,0,.2-.2.1-.3-.1l.1.1a11.73,11.73,0,0,1-1.1-.5c.3.4.7.3.8.9s-.3.1-.5.1c-.2-.4-.1-.8-.4-.9.1.2,0,.7.2.9-.4-.3-.9-.3-1.4-.8a.32.32,0,0,0,.3.3v-.1c.3.1.5.9.6.4.6,1.2-.3.5-.4.8l.8.6c.1,2-1.6.7-2.3,1,0-.5.3-.2-.2-1.1-.7-.2-.5,0-1,0h.1c0,.6-.8-.2-.4.7.4.4,0-.6.6.4a5.74,5.74,0,0,1-.7.4c.5.5.6-.2.8-.2s-.3,0-.6-.7c.5-.2,1,.4,1.7,1.2.5.6.2.8.1.9-.9-.9-1.6-1.1-1.8-.4l.2.9c-.6-.6-1.3-2-1.7-1.5l.5.5v.4l1.3,1c.5,1.3-1-.2-1.5-.2.1.1.2.1.5.3-.4.6-1.8-.4-2.3-.3.2.6.6.1.9.9-.3-.2-.1.6-.6,0,.7.9-.4.4.6,1-.4.9-1.8.5-2.9.5.2.3.4.5.5.7.2-.2.8-.2,1.4.4.2.6-.8-.4-.7-.1s.4.1.7.5c.2.7-.5,0-.7,0l-.1-.3c-.9-.2-1.5-1.3-1.8-.7.2.7.3.5.9,1.2-.3-.2-.1.8-.8.1.1-.1.2-.2.2-.3-.3,0-.4.2-.8,0l.3.3c-.3-.1-.5.1-.9-.3l.5.8c-.2-.4.1-.7.4-.3.5.7-.1.5-.2.6.7-.2,1.6.9,1.7.1l-.3-.2c0-.7,1,0,1.2-.2a.82.82,0,0,0,.4.6c.1-1,1-.9,1.4-1.7l.7.6-.4-.6c.1-.5.6.8.8.6-.1.1-.1,0-.3-.2.8.5-.1-.6.2-.6-.5-.6-.5,0-1-.9.8.4,1.1-.3,2.1,1.1.3-1,1.7-.6,2.4-.8-.1-.3-.2-.2-.3-.4.7.7.5-1,.9-.3,0-.3-.3-.9-.3-1.1a1.39,1.39,0,0,0,.9.4l-.3-.1v-.1l.4.2v.1c.6,0,1.1-.5,1.9.1-.5-.4-.4-1-.7-1.2.8,1.1,1.4.8,1.7.5-.1-.3-.1-.5-.3-.7l.5.4-.2-.3c.4-.4,1.5.8,1.5,0-.2,0-.3-.3-.5-.7a1.63,1.63,0,0,1,1.2,0c-.1-.1-.1-.2-.2-.3.1-.1.3.1.5.2l-.2-.6c.3.2.5-.2.9.2-.2-.8.8.4,1,0,.1.2-.6-.6-.2-.7.6,1.4.4-.1,1,1.4l.1-.7.2.8c-.3-1.5.6.5.7,0,0-.2-.1-.2-.1-.3.1.1.4.1.4.6.2-.1.9.1.3-.6.2.4-.2.1-.4,0-.2-.7.2-.5,0-1.3,0,.1.1.2.2.3l-.1-.4c.6.6.7,0,1.3.9-.1-.2,0-.4.1-.4l.3.8.3-.1-.6-1.2c.3-.4,1,.9,1.4,1.1-.3-1.4.8.3.7-1l-.4-.3c.6.1.5-.7,1.1-.4a3.41,3.41,0,0,0-.7,1.6c.5-.7,1.2.5,1.6-.4-.1-.4-.3-.5-.2-.9.3.7.5-.2.6.7a5.63,5.63,0,0,0,0-1.3l.8.9-.1-.2c.6-2.2,2.1,1,3,0l-.1-.5.4.6c-.3-.4,0-.6,0-1l.8.9C70.6,30.3,70.5,29.4,70.3,29.6Zm-8.6,1.5h-.2c0,.1,0,.1-.1,0h.1C61.6,31,61.6,30.6,61.7,31.1ZM47.4,35.5h.3c0,.1-.3-.1,0,.2C47.6,35.6,47.5,35.7,47.4,35.5Zm12.9-9.9-.3-.4.1.6Zm2.1-.7-.3-.3v.1l.3.3ZM66.1,29a.1.1,0,0,0-.1-.1.1.1,0,0,1,.1.1c.3.4.1-.7.5.3C66.6,30.2,66.3,29.3,66.1,29Zm-4.4.9c.2.6.5.6.7.9a3.08,3.08,0,0,0-.4-.9c0-.1.1,0,.2.1C61.8,28.8,62.1,30.4,61.7,29.9ZM57,31.3h0l-.3-.4Zm-1.1-.1c-.4-.7-.7-.5-.9-.5.2.6.7,1.2.9,1.1C56.3,32.1,55.6,30.8,55.9,31.2Zm8.1-3c-.2-.2-.7-1.4-.9-.7l.3.3v.1l.2.5C63.2,27.1,63.9,28.2,64,28.2ZM53.8,31.7c-.4-.4-1-.7-1.2-1.2.4.9.9,1.2,1,1.1S53.7,31.6,53.8,31.7Zm-.5-1c0-.2-.3-.7.1-.4.2.5.8,1.6.9,1.1-.6-.7-.8-1.2-1.3-1.4Zm1.1,1.7.1-.2c0-.4-.5-1.5.2-.5l-.2.5C54.5,32.3,54.5,32.4,54.4,32.4Zm-2.3,1,.3.3q-.15,0-.3-.3l-.2-.2C52,32.8,52,33.1,52.1,33.4Zm2-1.1a.6.6,0,0,0-.4.1C53.8,32.1,53.9,31.8,54.1,32.3Zm-2.3.3.4-.4C52.4,32.7,52,32.8,51.8,32.6Zm-7.2,3.5-.3-.6h-.2Zm1.5-2.2h.1l-.1-.3Zm2.2-1.7a1.38,1.38,0,0,0,.3.4c.1,0,.1.1.2.2l-.2-.2c-.2,0-.3.1-.2.3s.3.1.5.3c.1.9-1.5-1-.2,1-.2-.2-.8-.6-.9-1,.3,0,.5-.5.5-1a.19.19,0,0,1,0-.3Zm2.9-2a.35.35,0,0,1,.2.1.92.92,0,0,1,.4.6c-.3-.2-.3-.5-.4-.6A.31.31,0,0,0,51.2,30.2Zm-.5-1,.9.7-.4-.4.5.3C51.3,29.2,50.7,28.7,50.7,29.2Zm.9.1.3.5-.3-.5h0l-.1-.1.6.1Zm5.5-1.1c-.5-1.9-.9-1.1-1.4-2,.2.6.4,1.6.9,1.4-.2.8-.7-1.1-.4.5.2-.2.6.2.6.2l-.2.2C57.2,29.7,56.8,27.9,57.1,28.2Zm2.4-1.3.4.1-.3.1Zm8-2.4c-.1-.5.2-1.3.4-.5C67.8,24.2,67.5,24.2,67.5,24.5Zm3.6-.4-.4-.3c-.1-1.1.3,0,.5-.2C71.3,24.1,71.1,23.8,71.1,24.1Zm2.5-.2.1.2-.2-1Zm-.6-2c.1-.1.3.1.3.6Zm2.6.6-.2-.9.2-.1Zm-.2.6a.75.75,0,0,1-.1-.5c-.1-.2-.2-.3-.4,0,0,.5.1.2.2.3-.1.1-.1.4-.3.2a7.5,7.5,0,0,0,0-1.5c.4-.5.4.4.4,1.1C75.4,22.7,75.4,22.9,75.4,23.1Zm-1.4.3c0,.1-.1.2-.1.3v-.2c0-.3.1-.2.1-.1,0-.1.1-.2.2-.3a3.32,3.32,0,0,0-.4-1.3c.1.2.3.7.4.4s0-.3-.1-.3l.2-.1a1.27,1.27,0,0,1-.1,1.4v.4C74.1,23.6,74.1,23.5,74,23.4Zm1.7.4a1.27,1.27,0,0,0,.1.6l.1.2A1,1,0,0,0,75.7,23.8Zm-6.9,1.7c.1-.2-.2-.8-.4-.6V24c.1.6.4.4.5.5C69.1,25.3,68.9,24.9,68.8,25.5Zm-8.7,1.3c.2.2.4-.5.8.5C60.7,26.1,60.2,26.5,60.1,26.8Zm.3,1.2h-.1c-.2-.2-.5-1-.5-.5.1.2.1-.1.3.1.2.5.2.4.3.4Zm4.5-1.2.3.7.2-.1Zm2.9.9c-.1-.5.2-.5.3-.3-.1-.6-.3-.5-.5-.5l-.1-.1.1.1c.1.1.1.4.1.7l.1.1.1.1Zm4.6,0c.1-.5.2-.3.3-.2C72.7,27.8,72.6,27.8,72.4,27.7Zm-5.9.8c.2-.4-.3-.9-.2-1.2l-.1.1c.1-.7.3.6.4.4l-.1.1c0,.6.3.4.4.8C66.8,29,66.4,28.6,66.5,28.5Zm6.2-.5c.2-.6.3.6.5.7C73,29.3,73,28.2,72.7,28Zm-3.9,2.2v.1l-.3-.3v-.1Z"/><path class="cls-4" d="M72.6,21.9c.1-.1.1-.1.2,0Z"/><path class="cls-4" d="M58.3,24.2v0Z"/><path class="cls-4" d="M57.6,24.1Z"/><path class="cls-4" d="M40.2,35.5c-.6-.5,0-.2.1-.2C40.2,35.4,40.5,35.8,40.2,35.5Z"/><path class="cls-4" d="M41.6,36.1c-.2-.1-.3-.2-.5-.2C41.1,35.8,41.3,35.8,41.6,36.1Z"/><path class="cls-4" d="M40.9,36.2c0-.2.1-.3.2-.3C41,35.9,41.2,36.2,40.9,36.2Z"/><path class="cls-4" d="M43.2,34.6c-.4-.3-.4,0-.4,0,.2-.7-.6-.6-.8-.9C42.3,33.7,42.6,34.2,43.2,34.6Z"/><path class="cls-4" d="M43.9,34.5a.35.35,0,0,0-.1.2C43.8,34.5,43.8,34.5,43.9,34.5Z"/><path class="cls-4" d="M43.8,34c.2,0,.6.4.8.7,0,.4-.5-.2-.7-.2C44,34.4,44.1,34.4,43.8,34Z"/><path class="cls-4" d="M47.3,28.9c-.1,0-.2,0-.3-.2l.3-.2C47.5,28.6,47.3,28.8,47.3,28.9Z"/><path class="cls-4" d="M49,29.6c.2-.1-.2-.7,0-.6l.4.9Z"/><polygon class="cls-4" points="51.2 34.1 51.1 34 51.2 34 51.2 34.1"/><path class="cls-4" d="M49.6,28.2l-.6-.9C49.2,27.4,49.6,28.2,49.6,28.2Z"/><polygon class="cls-4" points="50.1 27.1 49.8 26.9 50.4 26.9 50.1 27.1"/><polygon class="cls-4" points="51.4 27.1 51.3 26.8 51.7 27 51.4 27.1"/><path class="cls-4" d="M63.3,23.9c.3.9-.3.6-.4.9C62.8,23.6,63.4,25.1,63.3,23.9Z"/><path class="cls-4" d="M72.2,22.4l-.5-.2C72,21.8,71.8,22.2,72.2,22.4Z"/><path class="cls-4" d="M43.2,7.1h0C43.1,7,43.2,7,43.2,7.1Z"/><path class="cls-4" d="M42.1,6.7a1.31,1.31,0,0,1,1,.3C42.8,7.2,42.3,7.8,42.1,6.7Z"/><path class="cls-4" d="M43.3,8.9,43,8.6C43.1,8.3,43.1,8.8,43.3,8.9Z"/><polygon class="cls-4" points="43.1 7.9 43.1 7.5 43.3 7.9 43.1 7.9"/><path class="cls-4" d="M60.9,6c0-.2.1-.4.1-.6Z"/><path class="cls-4" d="M61.1,7.9c0,.1.1.1.1.2S61.1,8.1,61.1,7.9Z"/><path class="cls-4" d="M60.1,5.9h0Z"/><path class="cls-4" d="M51,5.7a6.89,6.89,0,0,0-.3-.8C51,4.6,51,5.3,51,5.7Z"/><path class="cls-4" d="M62.1,14.7l.2-.3C62.2,14.6,62.2,14.7,62.1,14.7Z"/><path class="cls-4" d="M59.5,13.2c.1-.2.1-.3.2-.4v.1Z"/><path class="cls-4" d="M59.4,6.4h0l-.1-.2C59.4,6.1,59.4,6.2,59.4,6.4Z"/><path class="cls-4" d="M62.8,15.5a2.54,2.54,0,0,1-.2.7A1.85,1.85,0,0,1,62.8,15.5Z"/><path class="cls-4" d="M61.2,8.1Z"/><path class="cls-4" d="M58.7,12.5c0,.1.1.1.1.2S58.7,12.7,58.7,12.5Z"/><path class="cls-4" d="M51,5.7c0,.1.1.2.1.3S51,5.9,51,5.7Z"/><path class="cls-4" d="M44,6.3c.1,0,.1.2.2.5C44.1,6.7,44.1,6.6,44,6.3Z"/><path class="cls-4" d="M79.6,21.5Z"/><path class="cls-4" d="M77.8,17.3c0-.1.1-.1.2-.2S77.9,17.1,77.8,17.3Z"/><path class="cls-4" d="M69.5,20c.5-.2,0,.7.1.8l.2-.3-.1.4.4-.4c0,.4.7.3.1,1l.7-.7-.3.7.3-.6c.4.2.3,1.1.3,1.1l.2-.2c.2-.1,0,.1,0,.2l.4-.4c.2.5,1.3,0,1.2.8.2.1.1-.2.3-.4.4-.2.2.3.1.4.6-.5.2-.6.9-.8-.2.4.5-.5.6-.2l-.8.7c.2,0,.7-.4.7-.2-.2.5-1.2.4-1,.8.2.1,2.3-.9,2-.2.7.1,1.3-1,1.3-.4l.4-.7c.3-.1.7-.4.7-.1-.3.3-.7.7-.6.8.4-.9,1.3-.2,1.9-1.1l.1.2a.35.35,0,0,1,.2-.1l.2.2c.1-.3,0-.7.7-.9l.4.3a3,3,0,0,1,1.1-.6c.1-.5.2-1.1.3-1.7-.3.2-.4.5-.7.6-.4-.1.4-.6-.2-.6l-.3.4.2-.2c.3-.1,0,.2-.2.3-.6.2-.4-.3-.1-.6-.3-.3-.9.5-1.1.5.7-.7-.4-.6-.1-1l-.4.5c-.8.2-.5-.4-.4-.7l-.4.4c-.2-.4-1.7.5-.4-.9l-.2.2c-.2,0-.7,0-.4-.5-.2.6-.4.7-.5.7.5-.5,0-.3-.3-.4,0,.2-.8.8-.9,1.1-.9.3.6-.9.4-1.1-.5.2-.3.5-.5.7,0-.7-2.2.7-1.1-.7l.6-.3c.2-.4.1-.5,0-.3.1,0,0,.1-.1.3-1.1.3.4-1.6-.3-1.8a3.11,3.11,0,0,1-.4.6c-.4.1,1.1-1.5.2-1.3l-.2.4c-.3.1,0-.4.1-.5-1.1,1.2-.7-.7-2.2.6.4-.8.4-1.7-.1-1.4-.8.6-.5.9-1.1,1.6-.2-.1.3-.9-.1-.8.5-.7,1.6-1,1.4-1.8l-.4.3c.1,0,.3-.1.3,0-.2.5-.4.4-.6.6l-.3-.6c.5-.8.7-.4.9-.5-.5-.2-1.8.6-1.8-.2l-.4.3c0-1-1.2,1.2-.8-.3-.3.1-.5.9-.8.7-.1-.1.2-.3.2-.4-.2-.5-.6.6-.5-.3l-.4.9c0-.8.4-2.6-.2-2.4-.4.7-.1.7-.3,1.3.2-1.5-1.1-.8-1.2-1.7.4-.5.4-1.5,1-1.8-.4.9.1.4.2.6.4-1-.1-1-.5-.8s-.8.3-.4-.5l-.4.7c0-.1,0-.7.3-.9l-.8.1c0,.6-.2,2,.3,1.3-.2.8-.5.4-.7,1.3.2-1.3-.4.4-.7,0,.6-.9.2-1.5.5-2-.2.1-.3-.5-.2-.9-.2-.2-1,.4-1.3-.1a2.83,2.83,0,0,1-.2,1.5c0-.4-.2-.5-.6.2.1,1.6.9-1.7,1.1-.6-.2.9-.2,1.2,0,1.6a12.75,12.75,0,0,0-.7,1.2c.4-2-.8-.5-.9-1.6,0-.6.6-1.7.2-2.1l.6-.4c-.6.3.1-.6-.2-.9l-.1.6c-.3,0-.3-.1-.3-.6l-.2,1c-.2.1-.4.1-.2-.4a1.69,1.69,0,0,0-.2.5c0-.2,0-.3-.1-.3s.1.1,0,.4c-.4-.4-.5,1-.8.8,0,.2-.2.5-.4.5.5-1.5-.1-1.8,0-2.7h0l-.3-.7c.1.1-.2.5-.3.6h0c-.2.2-.3,1.7-.6,1.1l.1-.3c0,.1-.1.3-.1.4l-.1-.5c-.7,1.3-.4-1-1-.4.1-.1.2.1,0,.5-.1.2-.2,0-.2-.3v.2l-.6-1.1c-.1.5.4.7,0,1.2-.3.7-.3-.1-.5-.2.1-.4.5-.7.2-1,.1.2-.3.6-.2.9a4.87,4.87,0,0,1-.6-1.6.48.48,0,0,0,0,.4V4.9c.1.3-.2,1,.2.7-.3,1.3-.5.2-.9.4l.3,1c-1.1,1.6-1.7-.5-2.4-.6.3-.4.4,0,.5-1-.4-.6-.4-.3-.8-.6v.1c-.3.5-.5-.6-.8.3,0,.6.4-.5.3.7l-.5-.3c.1.7.6.2.8.3s-.3-.2-.1-.9c.5.1.6.9.7,2,0,.8-.4.8-.5.8-.1-1.3-.6-1.9-1.2-1.4l-.4.8c-.2-.8.1-2.4-.4-2.2l.1.6q-.15.3-.3.3a9.36,9.36,0,0,1,.4,1.6c-.4,1.3-.7-.7-1.1-1.1,0,.2.1.2.1.6-.6.3-1.1-1.4-1.6-1.6-.2.6.4.4.2,1.3-.2-.4-.5.4-.6-.4,0,1.2-.6.1-.2,1.2-.9.4-1.8-.6-2.6-1.3v.9c.3,0,.7.3.9,1.1-.2.6-.4-.8-.5-.4.1.3.3.3.3.9-.2.7-.4-.3-.6-.4l.1-.3c-.5-.8-.3-2-.9-1.7-.2.7,0,.6,0,1.5-.1-.3-.6.6-.7-.3l.3-.1c-.3-.2-.5-.2-.7-.5a.75.75,0,0,0,.1.5c-.2-.3-.5-.2-.6-.8v.9c.1-.4.4-.5.5,0,0,.8-.4.3-.5.4.7.2.7,1.7,1.3,1l-.1-.3c.3-.7.7.5,1,.4a1.7,1.7,0,0,0-.1.7c.7-.7,1.3-.2,2.1-.6l.2.9V9.3c.4-.3,0,1,.3.9-.1,0-.1-.1-.1-.3.4.8.3-.6.5-.4-.1-.8-.5-.3-.3-1.3.4.8,1.1.4,1,2.1.8-.6,1.7.6,2.3.8.1-.3,0-.2,0-.5.1,1,1-.6.8.3a3.58,3.58,0,0,0,.4-1.1,1.23,1.23,0,0,0,.5.8l.3-.1v-.1l.2.4v.1c.5.3,1.1.2,1.4,1.2-.1-.6.3-1,.2-1.4,0,1.4.5,1.6,1,1.5,0-.2.1-.5.1-.7l.1.6v-.3c.5-.1.6,1.5,1.1.9a1.35,1.35,0,0,1,0-.9,1.36,1.36,0,0,1,1.1.7.37.37,0,0,1,.1-.3c.1-.1.2.3.2.5l.2-.7c.1.4.5.1.5.7.3-.7.3.9.7.7,0,.2.1-.8.3-.7-.5,1.4.4.2-.2,1.7l.5-.5-.2.8c.8-1.3.1.7.5.4.1-.2,0-.2.1-.3,0,.2.2.4-.1.7.2.1.5.6.6-.3-.2.4-.2,0-.3-.2.3-.6.4-.3.8-.9a.37.37,0,0,1-.1.3l.2-.4c0,.8.5.5.3,1.5.1-.2.2-.3.3-.2l-.4.8.3.1.4-1.2c.5-.1,0,1.4.2,1.7.8-1.2.2.8,1.1-.2V16c.3.5.8-.3,1,.4-.6.2-.5-.1-1.5.7.8-.3.4,1.2,1.3.7.2-.3.2-.6.5-.8-.3.7.4.2-.1.9a7.53,7.53,0,0,0,.9-.9l-.1,1.2.1-.2c.9-.5,1.1,0,1.1.6s0,1.4.6,1.3l.3-.4-.5,1c.2-.5.4-.4.7-.7l-.3,1.1C69.1,20.6,69.7,19.9,69.5,20Zm-6.3-4.8-.1-.1A.1.1,0,0,1,63,15l.1.1C63.2,15,63.4,14.7,63.2,15.2ZM49.9,9.7a.35.35,0,0,1,.2.1c-.1,0-.2-.2-.2.2C50,10,49.9,10,49.9,9.7Zm16,.4.1-.5-.3.5Zm2,1v-.4l-.1.1.1.3Zm-.4,5.5v0c-.1.4.6-.4.1.5C66.9,17.7,67.3,16.9,67.5,16.6ZM64,14.3c-.3.5-.1.7-.2,1.1a3.92,3.92,0,0,0,.4-.9c.1,0,.1,0,.1.2C64.8,13.6,63.9,14.9,64,14.3Zm-4.3-2h0v0Zm-.7-.8c.1-.7-.2-.7-.4-.9-.2.6-.2,1.4,0,1.4C58.7,12.6,59,11,59,11.5Zm7.7,3.1c0-.3.5-1.5-.1-1V14h-.1l-.2.5C66.9,13.2,66.6,14.5,66.7,14.6Zm-9.6-4A4.4,4.4,0,0,1,56.9,9c-.2,1-.1,1.5,0,1.5S57.1,10.4,57.1,10.6Zm.2-1.1c.1-.1.3-.7.4-.2-.2.5-.4,1.8,0,1.4a5.38,5.38,0,0,0-.1-1.9Zm-.1,2,.2-.1c.2-.4.6-1.4.5-.3-.2.1-.3.2-.5.3S57.2,11.6,57.2,11.5Zm-2.4-.6.1.4c-.1-.1-.1-.2-.1-.4v-.3C55.1,10.3,54.9,10.6,54.8,10.9Zm2.2.4-.3-.2C56.8,11,57.1,10.8,57,11.3Zm-1.9-1.2c.2,0,.6-.1.5,0C55.4,10.5,55.1,10.4,55.1,10.1ZM47.4,8.6l.1-.7-.2-.1Zm2.4-.8.1.1.1-.3Zm2.8-.1a4.33,4.33,0,0,0-.1.5c0,.1.1.2,0,.3V8.2c-.1-.2-.2-.1-.3.1s.2.3.2.5c-.3.8-.5-1.7-.7.7a3,3,0,0,1-.2-1.3,1.14,1.14,0,0,0,1.1-.5.35.35,0,0,1,.1-.2A.35.35,0,0,0,52.6,7.7Zm3.4.1a.31.31,0,0,1,.1.2v.8a2.13,2.13,0,0,1,0-.8C56.1,7.9,56.1,7.8,56,7.8Zm.2-1.1.3,1.1V7.3l.2.5C56.8,7.1,56.6,6.3,56.2,6.7Zm.7.6-.1.6.1-.6h0V7.2l.4.4ZM61.8,10c.9-1.8,0-1.5.3-2.4-.2.6-.8,1.5-.3,1.7-.6.5.2-1.3-.6.2.2,0,.3.5.3.6h-.3C60.9,11.2,61.7,9.6,61.8,10Zm2.6.6.2.3-.2-.3Zm7.3,4c.3-.4,1.2-.7.7,0C72.1,14.5,71.9,14.4,71.7,14.6Zm2.5,2.5v-.6c.8-.7.2.3.5.3C74.4,17.3,74.5,16.9,74.2,17.1ZM75.8,19l-.1.2.7-.7Zm1.3-1.6c.1,0,.1.4-.3.6Zm1,2.5.7-.6.1.1Zm-.6.2.4-.4c.1-.2.1-.4-.2-.3-.4.3-.1.2-.1.3s-.4.1-.3-.1a7.38,7.38,0,0,0,1.3-.8c.6.1-.1.6-.7,1C77.8,19.8,77.7,20,77.5,20.1Zm-1-1a.37.37,0,0,0-.3.1l.1-.1c.3-.2.3-.1.2,0h.3a3.81,3.81,0,0,0,.9-1c-.1.2-.4.6-.1.6.1-.1.2-.2.2-.3l.2.1a1.15,1.15,0,0,1-1.2.6c-.1.1-.2.1-.4.2S76.4,19.2,76.5,19.1Zm.5,1.5c-.1.1-.3.2-.5.4l-.1.2C76.8,21.2,77.1,20.8,77,20.6Zm-5.2-4.4c.2-.1.5-.7.2-.7l.6-.6c-.4.4-.1.6-.1.7C72.1,16.3,72.2,15.9,71.8,16.2Zm-6.9-5.3c0,.3.7-.1.2.9C65.8,10.8,65.2,10.8,64.9,10.9ZM64.3,12h0c-.1-.4.3-1.1-.1-.8,0,.2.2,0,.1.2-.2.5-.2.4,0,.6Zm3.9,2.2-.3.8.2.1Zm1.3,2.7c.3-.4.5-.2.4,0,.4-.5.2-.5.1-.7v0c0,.1-.3.4-.4.5l-.1.2v0Zm2.6,3.4c.5-.2.3-.1.3.1C72.2,20.5,72.1,20.5,72.1,20.3Zm-4-3.8c.4-.1.4-.8.8-1h-.2c.6-.4-.3.7,0,.6h-.2c-.4.4-.1.4-.4.8C67.9,17.1,68,16.5,68.1,16.5ZM72,20.7c.6-.2-.3.6-.3.7C71.1,21.7,72,21,72,20.7Zm-3.8-1.4h0V19l.1-.1Z"/><path class="cls-4" d="M76.9,17a.1.1,0,0,1,.1.1A.1.1,0,0,1,76.9,17Z"/><path class="cls-4" d="M65.3,7.8c-.1.1-.1.2-.2.2C65.2,8,65.2,7.9,65.3,7.8Z"/><path class="cls-4" d="M64.9,7.2Z"/><path class="cls-4" d="M44.2,5.6c-.2-.7.1-.1.2-.1C44.3,5.4,44.3,6,44.2,5.6Z"/><path class="cls-4" d="M45,6.8c-.1-.2-.1-.4-.3-.4C44.8,6.3,44.9,6.4,45,6.8Z"/><path class="cls-4" d="M44.3,6.5a.25.25,0,0,1,.4-.1C44.6,6.4,44.6,6.7,44.3,6.5Z"/><path class="cls-4" d="M47.1,6.6c-.1-.5-.4-.2-.4-.2.5-.4-.1-.9-.1-1.2C46.9,5.3,46.9,5.9,47.1,6.6Z"/><path class="cls-4" d="M47.7,6.8c-.1,0-.1,0-.1.1A.1.1,0,0,1,47.7,6.8Z"/><path class="cls-4" d="M47.9,6.4c.2.1.2.6.3,1-.2.4-.3-.5-.5-.6C47.9,6.8,48,6.9,47.9,6.4Z"/><path class="cls-4" d="M53.8,4.4c0-.1-.1-.1-.1-.4H54A.31.31,0,0,1,53.8,4.4Z"/><path class="cls-4" d="M54.7,6c.2.1.2-.7.3-.5l-.2,1Z"/><polygon class="cls-4" points="53.7 10.9 53.6 10.8 53.7 10.8 53.7 10.9"/><path class="cls-4" d="M56,5.2V4.1A1.91,1.91,0,0,1,56,5.2Z"/><polygon class="cls-4" points="57.1 4.7 57 4.3 57.4 4.8 57.1 4.7"/><polygon class="cls-4" points="58.1 5.5 58.2 5.3 58.4 5.6 58.1 5.5"/><path class="cls-4" d="M69.3,11.1c-.5.8-.7.2-.9.3C69,10.5,68.5,12,69.3,11.1Z"/><path class="cls-4" d="M76.2,16.9l-.2-.5C76.6,16.5,76.2,16.5,76.2,16.9Z"/><path class="cls-4" d="M101.7,4.3v.1C101.6,4.4,101.6,4.4,101.7,4.3Z"/><path class="cls-4" d="M102.2,5.1a.68.68,0,0,1-.5-.7C101.9,4.4,102.7,4.1,102.2,5.1Z"/><path class="cls-4" d="M102.4,2.7l.1.4C102.2,3.3,102.5,2.8,102.4,2.7Z"/><polygon class="cls-4" points="102.1 3.6 101.9 4 101.9 3.6 102.1 3.6"/><path class="cls-4" d="M90.1,8.9c.1.1.2.3.4.5Z"/><path class="cls-4" d="M88.5,7.8h-.2C88.4,7.7,88.4,7.7,88.5,7.8Z"/><path class="cls-4" d="M90.4,8.5v0Z"/><path class="cls-4" d="M95.5,4.8a4.88,4.88,0,0,0,.3.7C95.7,5.9,95.6,5.2,95.5,4.8Z"/><path class="cls-4" d="M82.3,5.3l.2.3C82.3,5.5,82.2,5.4,82.3,5.3Z"/><path class="cls-4" d="M85.1,3.5a.76.76,0,0,1,.2.4h-.1Z"/><path class="cls-4" d="M90.4,7.7h0l.2.1C90.5,7.9,90.5,7.9,90.4,7.7Z"/><path class="cls-4" d="M81.2,5.8a2.09,2.09,0,0,1-.6-.4A1.52,1.52,0,0,1,81.2,5.8Z"/><path class="cls-4" d="M88.4,7.8Z"/><path class="cls-4" d="M86.2,3.2H86C86,3,86.1,3.1,86.2,3.2Z"/><path class="cls-4" d="M95.5,4.8a.35.35,0,0,0-.1-.2C95.5,4.6,95.5,4.7,95.5,4.8Z"/><path class="cls-4" d="M100.7,4.7c-.1,0,0-.2.1-.5A1.09,1.09,0,0,1,100.7,4.7Z"/><path class="cls-4" d="M80.6,22.3Z"/><path class="cls-4" d="M82,19.7h0Z"/><path class="cls-4" d="M75.8,13.7c.3.4-.7.3-.8.5l.4.1-.4.1.5.2c-.4.3,0,1-1,.8l.9.3-.8.1h.7c0,.5-.9,1-.9,1.1l.3.1c.1.1-.1.1-.2.2l.5.1c-.4.7.7,1.2,0,1.8.1.3.2-.1.5,0s-.1.4-.3.4c.8.1.6-.3,1.2.1-.4.1.8,0,.5.3l-1-.1c.1.2.8.2.6.4-.5.2-1.1-.6-1.3-.1,0,.3,2.3.9,1.7,1.3.5.4,1.6-.1,1.3.4.2-.1.5-.2.7-.3.3.1.8.1.6.3-.4,0-.9.1-1,.3.8-.4,1.2.4,2.2.1v.1h.2l.1.2a1.25,1.25,0,0,1,1.1-.2l.2.2a5.63,5.63,0,0,1,1.3,0,7.6,7.6,0,0,1,1.1-.4h-.9c-.3-.2.6-.1.2-.2h-.2c.3.1-.1.1-.3,0-.6-.1-.2-.2.2-.2-.2-.2-1.1-.2-1.3-.2,1,0,0-.3.5-.4h-.6c-.7-.3-.1-.3.2-.4l-.5-.1c.1-.2-1.5-.8.3-.5L82,20c-.1-.1-.5-.4.1-.4a4.71,4.71,0,0,0-.5-.2c.7.1.2-.1.1-.3-.2,0-1.1-.3-1.3-.2-.8-.5,1.1.1,1.1-.1-.4-.3-.5-.1-.9-.1.6-.2-1.8-1.4.1-1l.5.4c.4,0,.4-.1.3-.1s-.1,0-.3,0c-.7-.8,1.5-.1,1.3-.6a6.37,6.37,0,0,1-.7-.2c-.2-.3,1.7.6,1.2,0l-.6-.3c-.2-.2.4,0,.5.1-1.4-.7.3-.5-1.4-1.7.8.3,1.6.2,1.3-.1-.7-.6-1-.4-1.7-.9.1-.1.9.2.7-.1.7.5,1.3,1.3,1.9,1.2l-.3-.3c0,.1.2.2,0,.2-.5-.2-.5-.4-.7-.5l.5-.3c.8.5.5.6.7.7,0-.4-.9-1.5-.2-1.4l-.3-.2c.9.1-1.3-1.2.2-.6-.1-.3-.8-.5-.7-.8,0-.1.3.2.4.3.5-.1-.6-.6.3-.4l-.9-.6c.8.1,2.4.8,2.2.3-.6-.5-.7-.3-1.2-.6,1.3.5.8-.7,1.7-.6.4.5,1.2.9,1.5,1.4-.8-.6-.4-.1-.5-.1,1.7,1.3-.2-1.4,1.2-.1l-.5-.6a1.26,1.26,0,0,1,.7.6l-.1-.6c-.5-.3-1.7-1-1.2-.4-.7-.5-.3-.5-1-1.1,1.1.7-.3-.5.2-.5.7.9,1.3.8,1.6,1.2-.1-.2.4,0,.7.2.2,0-.1-1,.3-.8a6.09,6.09,0,0,1-1.2-.9c.4.2.5.1,0-.5-1.4-.8,1.1,1.5.2,1.1-.7-.6-1-.7-1.3-.7a8.7,8.7,0,0,0-.9-1.1c1.6,1.2.7-.4,1.7.1.5.3,1.2,1.3,1.6,1.3l.2.6c-.1-.6.4.4.8.4l-.5-.4c0-.2.2-.2.5.2l-.7-.7c0-.2,0-.4.4.1a2.19,2.19,0,0,0-.3-.5c.1.1.2.2.3.1-.1-.1-.1,0-.3-.2.5-.1-.6-.9-.3-1a.86.86,0,0,1-.3-.6c.9,1.2,1.4,1.1,2,1.7h0l.6.3a1.69,1.69,0,0,1-.3-.6h0c0-.3-1-1.3-.5-1.1l.4.3c-.1,0-.2-.2-.2-.4l.4.3c-.5-1.4.8.5.7-.3,0,.2-.2.1-.4-.3,0-.2.1-.1.3.1L91.1,7l.9.6c-.3-.4-.6-.3-.7-.9-.3-.7.2-.1.4-.1.2.4.2.8.4.9a4.71,4.71,0,0,0-.3-.9,4.84,4.84,0,0,1,1.2,1,.37.37,0,0,0-.2-.3v.1c-.2-.2-.5-.9-.5-.5-.6-1.2.1-.5.2-.7l-.8-.7c-.1-.9.2-1.1.7-.9s.9.5,1.2.4c0,.4-.3.1.1,1.1.5.4.3.2.7.3h0c0-.6.5.4.4-.6-.2-.6-.1.6-.4-.5h.4c-.3-.7-.4,0-.6-.1-.1.1.3.1.4.8-.4.1-.6-.6-1.2-1.6-.4-.7-.1-.8,0-.9.6,1.1,1.1,1.5,1.4.9l.1-.9c.3.8.5,2.3.8,2.1L95.5,5c0-.3.1-.3.1-.3-.2-.5-.5-1-.7-1.4,0-1.4.8.6,1.1.8,0-.2-.1-.2-.2-.5.5-.4,1.1,1.2,1.4,1.4.2-.6-.3-.4-.2-1.3.2.3.4-.4.5.4,0-1.2.5,0,.1-1.2.8-.5,1.5.7,2,1.5.1-.3.1-.6.2-.8-.2-.1-.5-.4-.5-1.3.3-.6.3.8.4.5s-.2-.3-.1-.9c.4-.6.3.3.4.5l-.2.3c.3.9-.2,2,.3,1.8.4-.6.2-.6.4-1.4,0,.3.7-.4.5.5l-.6-.1c.1.3.3.4.3.7a1.09,1.09,0,0,0,.1-.5c.1.3.3.3.1.9l.4-.8c-.3.3-.6.3-.4-.2.3-.8.4-.2.6-.2-.5-.5,0-1.8-.7-1.5v.3c-.5.6-.5-.6-.9-.7a2.07,2.07,0,0,0,.2-.6,2.34,2.34,0,0,1-1.1.2,1.71,1.71,0,0,0-1.2.1L97.6.3l-.1.7c-.4.3,0-1-.3-.9.1,0,.1.1.1.3-.5-.8-.3.6-.5.4.1.7.5.3.3,1.3-.4-.8-1.1-.3-1.2-2a1.4,1.4,0,0,1-1.4.2A8.87,8.87,0,0,0,93.1,0c0,.3.1.2.1.4-.5-.9-.8.9-1,.1,0,.1.2.8.2,1a1,1,0,0,0-.8-.5l.2.2v.1l-.3-.2V1c-.6,0-1.2.4-2-.2.5.4.4,1,.6,1.2-.8-1.2-1.4-.9-1.8-.5a1.61,1.61,0,0,0,.4.7l-.5-.4.2.3c-.3.5-1.6-.5-1.6.2.3,0,.4.3.7.7a1.45,1.45,0,0,1-1.2.3l.2.2c0,.2-.3,0-.5-.1l.4.6c-.4-.1-.4.3-.9,0,.4.7-.9-.2-1,.3-.2-.1.7.5.4.6-1-1.1-.3.2-1.4-1l.2.6-.6-.6c.8,1.3-.7-.3-.7.4.1.1.2.1.3.2-.2,0-.5.1-.6-.4-.1.1-.9.3-.1.8-.3-.3.1-.2.3-.2.5.5.1.5.5,1.1-.1,0-.2-.1-.3-.2l.3.3c-.8-.3-.7.4-1.6-.1.1.2.2.3.1.4l-.6-.6-.3.3,1.1.7c-.1.5-1.4-.3-1.8-.1,1,1-.9.2-.1,1.2h.5c-.6.3.1.9-.7,1A4.08,4.08,0,0,0,79,6.9c0,.9-1.4.4-1.1,1.5.3.2.6.2.8.5-.7-.3-.3.5-1-.1.1.3.8.8.8,1l-1.3-.1.2.1c.5,1,0,1.3-.7,1.5s-1.5.4-1.4,1.1l.4.2-.7-.1c.5,0,.5.4.8.5-.4.1-.8.1-1.2.2C75,13.6,75.9,14,75.8,13.7Zm5.5-7.4.2-.1c0-.1,0-.1.1,0h-.1C81.5,6.3,81.8,6.6,81.3,6.3ZM95.7.7,95.4.6c.1-.1.3.2.2-.2C95.7.5,95.8.5,95.7.7ZM85.4,10.3l.4.2-.4-.5Zm-1.1,1.4.4.1-.1-.1Zm-5.2-1h0c-.4-.1.4.5-.5.1C77.9,10.2,78.7,10.6,79.1,10.7ZM82,7.4c-.4-.4-.7-.3-1-.5,0,.2.5.4.8.6,0,.1-.1.1-.2.1C82.5,8.3,81.3,7.1,82,7.4Zm3.7-3.2h0l.4.3Zm1.1-.1c.5.6.7.3.9.3-.3-.6-.9-1.1-1.1-.9C86.2,3.2,87.2,4.4,86.8,4.1ZM81.1,9.9c.3,0,1.4.7,1,0h-.4V9.8l-.4-.3C82.4,10.4,81.2,9.9,81.1,9.9Zm7.7-6.6c.4.3,1,.6,1.2,1.1-.4-.9-.9-1.1-1-1.1S88.9,3.3,88.8,3.3Zm.6.9c0,.2.3.7-.1.4-.2-.5-.9-1.5-1-1,.7.7.9,1.1,1.4,1.3ZM88,2.6v.2c.1.4.6,1.4-.1.5l.1-.5Zm2.4-1.1-.3-.3a.32.32,0,0,1,.3.3l.2.2C90.5,2.2,90.5,1.8,90.4,1.5Zm-2,1.2c.1,0,.2-.1.4-.1C88.7,2.8,88.6,3.1,88.4,2.7Zm2.3-.3c-.1.1-.4.4-.4.3C90.1,2.2,90.5,2.1,90.7,2.4Zm7.7-.7-.2.7c.1,0,.1,0,.2.1Zm-2.3.9H96V3Zm-2.3.7a4.33,4.33,0,0,1-.1-.5.44.44,0,0,1-.1-.3.44.44,0,0,1,.1.3c.1.1.2,0,.2-.2s-.2-.2-.3-.4c0-.9,1,1.5.4-.8.2.3.6.8.5,1.2-.2-.1-.6.3-.7.7v0ZM91.3,4.8a.35.35,0,0,1-.2-.1,1.4,1.4,0,0,1-.4-.7c.3.2.3.5.4.7C91.2,4.7,91.2,4.8,91.3,4.8Zm.4.9a5.72,5.72,0,0,0-.8-.7l.3.4-.4-.3C91.2,5.7,91.7,6.2,91.7,5.7ZM91,5.6l-.3-.5.3.5h0l.1.1-.5-.1ZM86.7,7.1c1.1,1.6,1.2.8,1.8,1.5-.4-.5-.9-1.4-1.2-1.1-.1-.8,1,.9.1-.6-.1.2-.6-.1-.6-.1s.1-.1.1-.2C86.1,5.8,87,7.3,86.7,7.1ZM85.2,9l-.3.1.3-.1Zm-3.7,5.6c.4.2,1,.9.2.6C81.7,15,81.8,14.8,81.5,14.6Zm-1.4,2.6.5-.1c.9.5-.1.2,0,.4C80.1,17.3,80.4,17.3,80.1,17.2ZM79.5,19h-.2l1,.2Zm2,.3c0,.1-.2.2-.7,0Zm-1.1,1.5.9.1V21Zm-.6-.2h.6c.3,0,.4-.1.1-.2-.5-.1-.2.1-.3.1s-.3-.2-.1-.2a4.43,4.43,0,0,0,1.5.3c.4.3-.5.1-1.1.1A1.48,1.48,0,0,1,79.8,20.6Zm0-1.1c-.1-.1-.2-.1-.3-.2h.2c.3.2.2.2.1.2l.2.2a3.14,3.14,0,0,0,1.3.1c-.2,0-.8,0-.4.2.2,0,.3.1.3,0l.1.2a1.45,1.45,0,0,1-1.3-.5.76.76,0,0,1-.4-.2Zm-.7,1.1c-.2,0-.4-.1-.6-.1l-.2.1A.75.75,0,0,0,79.1,20.6Zm.9-5.7c.1.1.8.3.7.1l.7.5c-.5-.3-.6,0-.6,0C80.1,15.2,80.4,15.2,80,14.9Zm4.9-5.6c-.3-.1,0,.6-.9-.1C84.8,10.1,85,9.6,84.9,9.3Zm-.8-.9h.1c.3.1.9.7.7.2-.2-.1,0,.1-.2,0-.4-.4-.3-.3-.4-.2C84.1,8.3,84.1,8.3,84.1,8.4Zm-2.7,3.1-.7-.3-.1.2Zm-2.5,1.3c.4.2.3.5.1.4.5.3.6.1.7,0h0a3.29,3.29,0,0,1-.6-.3l-.2-.1h0Zm-2.5,3.8c.4.3.2.3,0,.3S76.2,16.7,76.4,16.6Zm2.8-5.2c.1.4.8.4,1,.7v-.2c.4.5-.7-.2-.6,0v-.2c-.4-.4-.4-.1-.8-.3C78.6,11.2,79.1,11.2,79.2,11.4Zm-3.3,5.4c.5.5-.7,0-.8.2C74.6,16.5,75.7,16.9,75.9,16.8Zm.4-4.8h0l.3-.1.1.1Z"/><path class="cls-4" d="M81.6,19c.1.1,0,.1,0,.1Z"/><path class="cls-4" d="M87.5,10.9c-.1-.2-.1-.2-.1-.3C87.4,10.7,87.5,10.8,87.5,10.9Z"/><path class="cls-4" d="M88.1,10.8Z"/><path class="cls-4" d="M100.3,5.4c-.2.7-.1.1-.2.1C100.2,5.4,100.4,5,100.3,5.4Z"/><path class="cls-4" d="M100.2,4v.5S100.1,4.4,100.2,4Z"/><path class="cls-4" d="M100.5,4.5q-.3.15-.3,0C100.3,4.4,100.5,4.2,100.5,4.5Z"/><path class="cls-4" d="M98.5,3.8c0,.5.2.3.2.3-.5.4-.1.9-.1,1.2C98.4,5.1,98.5,4.5,98.5,3.8Z"/><path class="cls-4" d="M98,3.5a.1.1,0,0,0,.1-.1Z"/><path class="cls-4" d="M97.8,3.9a5.63,5.63,0,0,1-.2-1c.2-.4.3.5.4.6C97.8,3.5,97.8,3.4,97.8,3.9Z"/><path class="cls-4" d="M94.2,6.8s.1,0,.2.3l-.2.1A.48.48,0,0,1,94.2,6.8Z"/><path class="cls-4" d="M93,5.7c-.2,0,.2.7,0,.6l-.3-.9Z"/><polygon class="cls-4" points="91.5 0.9 91.6 1 91.5 1 91.5 0.9"/><path class="cls-4" d="M92.6,6.9l.5,1C92.9,7.6,92.6,6.8,92.6,6.9Z"/><path class="cls-4" d="M92.4,7.8l.2.3c-.1-.1-.3-.1-.4-.2Z"/><path class="cls-4" d="M91.5,7.7l.1.2a.37.37,0,0,0-.3-.1C91.3,7.7,91.4,7.7,91.5,7.7Z"/><path class="cls-4" d="M84.4,12.8c-.8-.5-.2-.6-.4-.8C84.9,12.8,83.5,12,84.4,12.8Z"/><path class="cls-4" d="M81.3,18.6l.3-.2C81.9,18.7,81.6,18.4,81.3,18.6Z"/><path class="cls-4" d="M105.3,23.5a.1.1,0,0,1-.1.1S105.1,23.6,105.3,23.5Z"/><path class="cls-4" d="M105.3,24.4c-.1-.2-.3-.4,0-.8C105.4,23.7,106.2,23.8,105.3,24.4Z"/><path class="cls-4" d="M106.8,22.5l-.1.4C106.3,23,106.8,22.7,106.8,22.5Z"/><polygon class="cls-4" points="105.9 23.2 105.6 23.4 105.9 23 105.9 23.2"/><path class="cls-4" d="M94.6,21.5c0,.2.1.4.1.6Z"/><path class="cls-4" d="M93.9,19.7l-.1-.1C93.8,19.5,93.8,19.6,93.9,19.7Z"/><path class="cls-4" d="M95,21.3h0C94.9,21.3,95,21.2,95,21.3Z"/><path class="cls-4" d="M100.4,20.8c-.1.3-.1.6-.2.8C99.9,21.8,100.2,21.2,100.4,20.8Z"/><path class="cls-4" d="M90.1,14.3v.3C90.1,14.5,90,14.4,90.1,14.3Z"/><path class="cls-4" d="M93.1,14.3v0Z"/><path class="cls-4" d="M95.3,20.6h0l.1.2S95.3,20.8,95.3,20.6Z"/><path class="cls-4" d="M89,14.1a4.88,4.88,0,0,1-.3-.7A1.08,1.08,0,0,1,89,14.1Z"/><path class="cls-4" d="M93.8,19.6Z"/><path class="cls-4" d="M94.2,14.5l-.2-.2C94.1,14.3,94.1,14.4,94.2,14.5Z"/><path class="cls-4" d="M100.4,20.8a.37.37,0,0,1,.1-.3A.37.37,0,0,1,100.4,20.8Z"/><path class="cls-4" d="M104.3,23.4c0-.1.1-.2.3-.4A1.38,1.38,0,0,0,104.3,23.4Z"/><path class="cls-4" d="M79.1,26h0C79,25.9,79.1,25.9,79.1,26Z"/><path class="cls-4" d="M82.2,25.4c0,.1.1.1.2.2S82.3,25.5,82.2,25.4Z"/><path class="cls-4" d="M81.5,16.9c0,.5-.6-.3-.8-.2l.2.3-.3-.2.2.5c-.4-.1-.5.6-1-.2l.4.8-.5-.4.4.5c-.2.3-1.1-.1-1.1,0l.2.3c0,.2-.1,0-.2-.1l.3.4c-.6.1-.2,1.2-1,1-.1.2.2.1.3.4s-.3.2-.4,0c.4.7.5.4.6,1-.3-.3.4.6.1.6l-.5-.9c0,.2.3.7.1.7-.4-.3-.3-1.2-.7-1.1-.1.1.7,2.3.1,2,0,.6.9,1.4.4,1.3l.6.5c.1.3.3.7.1.6-.2-.3-.6-.7-.7-.7.7.5.2,1.2,1,2h-.1a.35.35,0,0,1,.1.2l-.1.1c.2.1.5.1.7.9l-.2.3a10.91,10.91,0,0,0,.6,1.1l1.2.6c-.2-.3-.4-.4-.5-.8.1-.4.4.5.4,0l-.3-.4a.37.37,0,0,1,.1.3c.1.3-.1,0-.2-.3-.2-.6.2-.3.4,0,.2-.2-.4-1-.5-1.1.6.8.4-.2.7.1l-.4-.5c-.2-.8.3-.3.5-.1l-.3-.5c.3,0-.4-1.7.6-.1l-.1-.3c0-.2,0-.6.4-.2a1.69,1.69,0,0,1-.2-.5c.4.6.2.1.3-.1-.2-.1-.6-1-.8-1.1-.2-1,.7.8.9.7-.1-.5-.3-.4-.5-.7.5.3-.3-2.2.7-.6l.1.6c.3.3.4.3.3.1,0,.1-.1-.1-.2-.2,0-1,1.1,1,1.3.5a6.13,6.13,0,0,1-.4-.6c0-.4.9,1.6.9.8l-.2-.3c0-.3.3.2.3.4-.6-1.4.6-.2,0-2.1.5.7,1.1,1.2,1.1.7-.2-.9-.6-.9-.8-1.7.1-.1.5.7.6.3.3.8.3,1.8.8,2.1l-.1-.7c0,.1,0,.3-.1.2a.93.93,0,0,1-.2-.8l.5.1c.4.9.1.7.1,1,.2-.3.1-1.7.6-1.3l-.2-.3c.7.6-.4-1.7.4-.4.1-.3-.4-.9-.2-1.1.1,0,.1.3.2.4.4.2-.2-.9.4-.2l-.4-.9c.6.5,1.5,2,1.6,1.5-.2-.7-.4-.6-.7-1.1.8,1.2,1-.1,1.6.5.1.7.6,1.4.5,2-.3-.9-.3-.3-.4-.3.8,2,.5-1.2,1,.5L91,22a1.22,1.22,0,0,1,.3.9l.2-.6c-.3-.5-.9-1.7-.8-.9-.3-.7,0-.6-.3-1.4.6,1.2,0-.6.4-.4.1,1.1.6,1.4.7,1.9,0-.2.3.2.5.6.2.1.3-.9.6-.5a5.31,5.31,0,0,1-.5-1.4c.2.4.3.3.2-.5-.7-1.4.2,1.9-.4,1-.3-.9-.4-1.1-.7-1.3A7.84,7.84,0,0,0,91,18c.7,1.8.7,0,1.3.9.2.5.3,1.8.7,1.9l-.2.6c.2-.6.2.6.4.7l.1-.6c.1-.1.2,0,.3.4l-.3-1c.1-.1.2-.3.3.3a1.27,1.27,0,0,0-.1-.6c0,.2.1.3.2.2-.1-.1-.1,0-.1-.3.4.2-.1-1.1.2-1-.1-.2,0-.5,0-.6a10.42,10.42,0,0,0,.8,2.5h0l.3.6c-.1-.1,0-.5,0-.7h0c.1-.2-.2-1.7.1-1.2l.2.5v-.4l.2.4c.2-1.5.4.8.7.1-.1.1-.2,0-.1-.5.1-.2.1,0,.2.2v-.2a3,3,0,0,1,.4,1c0-.5-.3-.6-.1-1.2s.2.1.3.1c0,.4-.2.8-.1,1,0-.2.2-.6.2-.9a8.4,8.4,0,0,1,.4,1.4c.1-.2,0-.3,0-.4v.1c-.1-.2.1-1-.1-.6.1-1.3.3-.3.5-.5,0-.3-.1-.6-.1-.9.4-.9.7-.8,1-.4s.4.9.6,1c-.3.3-.3-.1-.5,1,.1.5.1.3.3.6v-.1c.3-.5.1.6.5-.3.2-.6-.4.4,0-.7.1.1.2.1.3.2.2-.7-.3-.2-.4-.4-.1,0,.1.2-.2.9-.3-.1-.1-.9,0-2,.1-.8.4-.7.5-.7-.1,1.2-.1,1.8.5,1.5l.6-.7c-.2.8-.9,2.2-.6,2.1l.2-.6c.2-.2.3-.2.3-.2L101,19c.8-1.1.2.9.3,1.2.1-.2,0-.2.2-.6.6-.1,0,1.6.1,1.9.5-.4,0-.5.6-1.1-.1.4.6-.1.1.6.7-1,.4.2.8-.9.9,0,.7,1.4.6,2.3.2-.3.5-.4.7-.6-.1-.2-.1-.6.4-1.3.5-.3-.3.8,0,.6s0-.4.5-.8,0,.4,0,.6l-.3.1c-.3.9-1.4,1.5-.9,1.6.7-.3.5-.4,1.1-.9-.2.3.8,0,.1.7l-.2-.2c-.1.3,0,.4-.2.7.1-.1.3-.2.3-.3-.1.3,0,.4-.4.8l.8-.5c-.4.2-.6,0-.2-.4.7-.4.4.1.6.1-.1-.6,1.1-1.5.3-1.5l-.5.4c-.7.2,0-.8-.2-1a3.11,3.11,0,0,0,.6-.4c-.9,0-1-.8-1.8-1l.4-.8-.5.5c-.5,0,.6-.8.3-.9.1.1,0,.1-.1.3.1-.9-.6.4-.6,0-.4.7.2.5-.5,1.2.2-.9-.6-.9.3-2.3a1.43,1.43,0,0,1-1.2-.6,4.5,4.5,0,0,0-.9-1c-.2.2,0,.2-.2.4.1-1-1.1.3-.8-.5a4.67,4.67,0,0,0-.5,1,1.1,1.1,0,0,0-.4-.9l.1.3v.1l-.3-.4v-.1c-.5-.4-1.1-.3-1.5-1.3.2.6-.2,1-.1,1.4,0-1.4-.7-1.5-1.2-1.4a2.15,2.15,0,0,0,0,.8l-.3-.6v.3c-.5.2-1-1.3-1.4-.6.2.2.2.4.2.9a1.37,1.37,0,0,1-1.1-.4.37.37,0,0,0,.1.3c-.1.1-.2-.2-.4-.4v.7c-.2-.3-.5.1-.8-.5,0,.8-.7-.6-.9-.3-.1-.2.3.8.1.8-.3-1.5-.4,0-.7-1.6l-.2.6v-.6c.1,1.5-.5-.6-.7-.1.1.2.1.2.1.3-.1-.1-.4-.2-.3-.6-.2,0-.9-.2-.4.6-.1-.4.2-.1.3,0,.1.7-.2.5-.1,1.2,0-.1-.1-.2-.1-.3l.1.4c-.5-.7-.7-.1-1.1-1,0,.2,0,.4-.1.4l-.2-.8-.4.2.5,1.2c-.3.3-.9-1-1.3-1.1.4,1.4-.7-.3-.6,1l.3.3c-.6-.1-.4.8-1,.4a4.13,4.13,0,0,0,.5-1.6c-.3.7-1.2-.5-1.4.5a1.49,1.49,0,0,1,.4.9c-.4-.7-.5.2-.7-.7-.1.3.2,1.1.2,1.3l-.9-.8.1.2c-.1,2.2-2.1-.6-2.6.6l.2.4-.5-.5c.3.3.2.6.3.9l-.9-.7C81,16.3,81.4,17.2,81.5,16.9ZM89,14.6h.2s0-.1.1,0h-.1C89.1,14.8,89.1,15.1,89,14.6Zm13.9,3-.2-.2c.1,0,.1.3.2-.1C103,17.3,103.1,17.4,102.9,17.6ZM90.3,20.2l.2.4-.1-.6Zm-1.5.5.3.3v-.1l-.3-.3Zm-3.5-3.8h0c-.3-.3,0,.7-.4-.2S85.1,16.6,85.3,16.9ZM89,15.8c-.2-.6-.4-.6-.6-1-.1.1.2.6.3.9,0,.1-.1,0-.2-.1C88.9,16.9,88.6,15.3,89,15.8Zm4.3-.7h0l.2.5Zm1,.5c.2.7.4.6.6.8,0-.6-.2-1.4-.4-1.3C94.1,14.5,94.4,16.1,94.3,15.6Zm-7.2,1.8c.2.2.8,1.4.8.6l-.3-.3v-.1l-.2-.3C87.9,18.6,87.2,17.5,87.1,17.4ZM96.2,16a2.93,2.93,0,0,1,.4,1.6c.1-1-.2-1.4-.3-1.4S96.2,16.1,96.2,16Zm0,1.1c-.1.1-.1.8-.2.3s0-1.8-.3-1.4a10.06,10.06,0,0,0,.4,1.8ZM95.9,15l-.1.1c-.1.4-.2,1.5-.4.4.1-.1.2-.3.4-.4A.1.1,0,0,1,95.9,15Zm2.5.3-.1-.4a.6.6,0,0,1,.1.4l.1.3C98.1,15.9,98.3,15.6,98.4,15.3Zm-2.3,0,.3.1C96.3,15.5,96.1,15.7,96.1,15.3Zm2,.9a4.33,4.33,0,0,0-.5.1C97.8,15.7,98.1,15.9,98.1,16.2Zm6.2,3.6-.5.4.1.2Zm-2.2-.5-.1-.1-.2.3Zm-2.1-.6c.1-.1.1-.3.2-.5v0c0,.2.2.1.3,0,.1-.3,0-.3,0-.6.5-.7-.1,1.8.8-.5a2.08,2.08,0,0,1-.3,1.3.87.87,0,0,0-1,.3.31.31,0,0,0-.1.2C99.9,18.8,99.9,18.7,100,18.7Zm-2.6-.2c-.1-.1-.1-.1-.1-.2a2.08,2.08,0,0,1,0-.8,2.13,2.13,0,0,1,0,.8C97.3,18.4,97.3,18.5,97.4,18.5Zm-.2,1.1c-.1-.3-.1-.7-.2-1l.1.5-.2-.5C96.9,19.3,97,20,97.2,19.6Zm-.4-.5v0h0v.1l-.4-.3Zm-4.1-1c.2,2,.6,1.3.8,2.3-.1-.7-.1-1.7-.4-1.6.2-.7.4,1.2.4-.4-.1.1-.4-.3-.4-.4l.2-.1C92.9,16.7,92.9,18.5,92.7,18.1Zm-1.9.8-.3-.1h.3Zm-5.7,2.4c.2.4.2,1.3-.2.5C85.1,21.7,85.2,21.7,85.1,21.3Zm-2.4,1,.4.2c.4,1-.2.1-.3.3C82.5,22.4,82.8,22.6,82.7,22.3Zm-1.7.8-.2-.1.5.9Zm1.2,1.7c0,.1-.3,0-.4-.5Zm-1.9.1.5.8-.1.1Zm-.2-.6a2.19,2.19,0,0,1,.3.5c.2.2.3.2.3-.1-.3-.4-.2-.1-.3-.2s-.1-.4.1-.3c.3.8.3.7.6,1.4,0,.5-.4-.3-.8-.9Zm.8-.6a.37.37,0,0,0-.1-.3l.1.2c.1.2.1.2,0,.1V24a5.22,5.22,0,0,0,.8,1.1c-.2-.1-.5-.6-.4-.2.1.1.1.3.2.2l-.1.1c-.5-.7-.5-1-.4-1.3-.1-.1-.1-.2-.1-.4C80.8,23.5,80.8,23.6,80.9,23.7Zm-1.3,0a3.33,3.33,0,0,1-.3-.6l-.2-.1A1,1,0,0,0,79.6,23.7Zm4.3-3.1c0,.2.4.8.5.5l.3.8c-.2-.5-.4-.4-.5-.4C83.8,20.9,84,21.1,83.9,20.6ZM90.4,19c-.1-.3-.3.5-.6-.6C90,19.6,90.3,19.3,90.4,19Zm-.3-1.2h0c.3.2.5,1.1.5.6-.1-.2-.1.1-.2-.1-.1-.6-.1-.5-.3-.5Zm-3.4,1.1-.4-.7-.2.1Zm-2.6-.6c.2.4,0,.5-.1.3.3.6.4.4.5.4s.1.1.1,0h-.1a3.33,3.33,0,0,1-.3-.6l-.1-.1-.2-.1Zm-3.7,1c.1.5,0,.3-.2.2C80.2,19.3,80.3,19.2,80.4,19.3ZM85,17.4c-.1.4.4.8.4,1.2l.1-.1c.1.7-.4-.6-.4-.4V18c-.1-.6-.3-.3-.5-.7C84.6,16.9,85.1,17.3,85,17.4ZM80.1,19c.1.6-.4-.5-.6-.5C79.4,17.9,79.8,19,80.1,19Zm2.5-2.9V16l.3.2v.1Z"/><path class="cls-4" d="M82.5,24.7c0,.1-.1.1,0,0Z"/><path class="cls-4" d="M91.7,21.8v0Z"/><path class="cls-4" d="M92.2,22Z"/><path class="cls-4" d="M103.6,23.7c-.6.5-.1,0-.2,0S103.9,23.4,103.6,23.7Z"/><path class="cls-4" d="M104.3,22.5c-.2.2-.2.3-.2.4S104,22.8,104.3,22.5Z"/><path class="cls-4" d="M104.3,23.1c-.2,0-.3-.1-.3-.2C104.1,23,104.4,22.8,104.3,23.1Z"/><path class="cls-4" d="M103.1,21.5c-.3.4,0,.3,0,.3-.6.1-.6.7-.8.9C102.3,22.5,102.7,22.1,103.1,21.5Z"/><path class="cls-4" d="M102.9,21h.1C103,21.1,102.9,21,102.9,21Z"/><path class="cls-4" d="M102.5,21.2a2.77,2.77,0,0,1,.5-.9c.4-.2-.1.5-.1.7C102.8,20.9,102.8,20.8,102.5,21.2Z"/><path class="cls-4" d="M98.4,21.7c0,.1.1.1,0,.3h-.1C98.2,21.9,98.4,21.8,98.4,21.7Z"/><path class="cls-4" d="M98.2,20.2c-.1-.1-.2.7-.3.5l.2-1Z"/><path class="cls-4" d="M99.5,15.4l.1.1Z"/><path class="cls-4" d="M97.3,21l-.1,1.1C97.2,21.8,97.3,21,97.3,21Z"/><polygon class="cls-4" points="96.7 21.7 96.8 22 96.6 21.7 96.7 21.7"/><polygon class="cls-4" points="96.2 21.1 96.1 21.4 96 21.1 96.2 21.1"/><path class="cls-4" d="M88.3,21.7c-.3-.9.1-.6.1-.9C88.7,21.9,88,20.5,88.3,21.7Z"/><path class="cls-4" d="M82.6,24.1H83C82.9,24.6,82.9,24.2,82.6,24.1Z"/><path class="cls-4" d="M98.1,37.8Z"/><path class="cls-4" d="M97.8,38.6a.5.5,0,0,1,.1-.7C98.2,38,98.9,38.2,97.8,38.6Z"/><path class="cls-4" d="M99.8,37.2l-.3.3C99.2,37.5,99.7,37.3,99.8,37.2Z"/><polygon class="cls-4" points="98.8 37.6 98.4 37.7 98.7 37.5 98.8 37.6"/><path class="cls-4" d="M89.5,31.9c-.1.2-.2.3-.3.5Z"/><path class="cls-4" d="M90.2,30.1v0Z"/><path class="cls-4" d="M89.9,32h0C89.8,31.9,89.9,31.9,89.9,32Z"/><path class="cls-4" d="M94.4,34.4c-.2.2-.4.5-.5.6C93.6,35,94.2,34.6,94.4,34.4Z"/><path class="cls-4" d="M91.2,23.8l-.2.3A1.24,1.24,0,0,1,91.2,23.8Z"/><path class="cls-4" d="M93.2,25.5q-.15.3-.3.3v-.1Z"/><path class="cls-4" d="M90.5,31.6h0l-.1.2Z"/><path class="cls-4" d="M90.7,23a6.37,6.37,0,0,0,.2-.7A1.85,1.85,0,0,1,90.7,23Z"/><path class="cls-4" d="M90.2,29.9Z"/><path class="cls-4" d="M93.7,26.3v-.2C93.8,26.1,93.7,26.2,93.7,26.3Z"/><path class="cls-4" d="M94.4,34.4l.2-.2Z"/><path class="cls-4" d="M97.2,37.6c0-.1.2-.2.4-.3A1.38,1.38,0,0,1,97.2,37.6Z"/><path class="cls-4" d="M77.4,26.6Z"/><path class="cls-4" d="M79.7,27.7v0Z"/><path class="cls-4" d="M83.8,20.4c-.3.4-.3-.6-.5-.7v.4l-.1-.4-.1.6c-.2-.3-.7.2-.6-.7l-.1.9-.2-.8.1.7c-.4.1-.8-.7-.9-.7V20c-.1.2-.1-.1-.1-.2v.5c-.5-.2-.8.9-1.3.3-.2.1.1.2,0,.5s-.3,0-.3-.3c0,.8.2.6,0,1.2-.1-.4,0,.8-.2.6v-1c-.1.2-.1.8-.3.7-.2-.5.4-1.2,0-1.3-.2.1-.6,2.4-.9,1.8-.3.5,0,1.6-.3,1.3l.2.7c-.1.3-.1.8-.2.6a2.15,2.15,0,0,0-.2-1c.3.8-.4,1.2-.1,2.2h-.1v.2l-.2.1c.1.2.3.3.1,1.1l-.2.2c0,.6-.1.8-.1,1.3.2.4.3.8.5,1.2a2.72,2.72,0,0,1,0-.9c.2-.3.1.6.3.2v-.2c-.1.3-.1-.1,0-.3.1-.6.2-.2.2.2.2-.1.1-1,.2-1.2,0,1,.3,0,.4.5v-.6c.2-.8.3-.1.4.1V28c.2.1.5-1.6.5.3V28c.1-.1.3-.5.3,0a2,2,0,0,1,.1-.5c-.1.7.1.2.3.1a5.7,5.7,0,0,1,.1-1.3c.4-.9,0,1,.2,1.1.2-.5,0-.5,0-.9.2.5,1-2,.8-.1l-.5.1c0,.4.1.4.1.3v-.3c.5-.9.2,1.4.6,1.1.1-.3,0-.5.1-.7s-.3,1.8.1,1.1v-.4c.1-.2.1.4,0,.5.4-1.5.5.2,1.2-1.7-.1.9,0,1.6.3,1.2a13.32,13.32,0,0,0,.5-1.9c.1,0-.1.9.2.6-.3.8-.9,1.6-.7,2.2l.2-.4c-.1,0-.1.2-.2.1a3.39,3.39,0,0,1,.3-.8,1.38,1.38,0,0,1,.3.4c-.3.9-.4.6-.5.8.3-.1,1.1-1.3,1.1-.6l.1-.3c0,.9.8-1.5.5,0,.2-.2.3-.9.5-.9s-.1.3-.2.4c.1.4.4-.8.4.1l.3-.9c0,.8-.4,2.5,0,2.2.3-.7.1-.7.3-1.3-.2,1.4.7.5.7,1.3-.4.5-.5,1.4-.9,1.8.4-.9,0-.4,0-.5-.8,2,1.1-.6.3,1.1l.4-.7a2.26,2.26,0,0,1-.4.9l.5-.3c.2-.6.6-1.8.1-1.1.3-.8.4-.4.7-1.3-.4,1.2.4-.4.5,0a11.34,11.34,0,0,0-.8,1.9c.2-.1.1.4-.1.7,0,.2.8-.5.7,0a5.58,5.58,0,0,1,.7-1.6c-.1.4,0,.4.4-.2.4-1.5-1.1,1.5-.9.5a2.65,2.65,0,0,0,.4-1.4c.3-.4.4-.6.8-1.2-.8,1.8.4.5.2,1.5-.2.5-.9,1.5-.8,1.9l-.5.4c.5-.3-.3.5-.2.8l.3-.6c.2,0,.1.1,0,.5l.5-.9c.1-.1.3-.1,0,.4.1-.2.3-.3.4-.5a.19.19,0,0,0,0,.3c0-.1,0-.1.1-.3.1.4.7-.8.8-.6a2.18,2.18,0,0,1,.4-.5A10.88,10.88,0,0,0,89.7,32h0l-.4.5c0-.1.3-.4.5-.5h0c.2-.1.9-1.4.9-.9l-.2.4c0-.1.2-.2.3-.3l-.2.4c1.1-1-.2.9.4.5-.1.1-.1-.1.2-.4.1-.1.1.1,0,.3l.1-.1-.3,1c.3-.4.2-.6.6-1s.1.2.1.3c-.3.1-.6.3-.6.6.1-.1.5-.4.7-.6a7.26,7.26,0,0,1-.6,1.4l.2-.4-.1.1c.1-.3.7-.8.3-.6.9-1,.4-.1.7-.1l.4-.8c1.6-1,.7.9.9,1.2-.4.2-.2-.2-.9.6a1,1,0,0,0-.1.7v-.1c.5-.2-.2.6.6,0,.4-.4-.5.2.4-.5l.1.3c.5-.5-.2-.3-.1-.5-.1,0,0,.2-.6.7-.2-.3.4-.8,1.1-1.7.5-.6.7-.4.8-.4-.8,1-1,1.5-.4,1.4l.8-.4c-.5.6-1.8,1.5-1.5,1.6l.5-.4a.77.77,0,0,1,.3-.1c.3-.4.7-.8,1-1.2,1.2-.7-.2.8-.3,1.2a.89.89,0,0,1,.4-.5c.5.1-.6,1.3-.7,1.7.6-.2.2-.4,1-.8-.2.3.5,0-.1.5.9-.7.3.3,1-.6.7.2.2,1.3-.2,2.1a5.9,5.9,0,0,1,.8-.4c-.1-.2.1-.6.7-1,.6-.2-.6.6-.2.5a2.26,2.26,0,0,1,.7-.6c.7-.1-.1.4-.2.5l-.3.1c-.5.7-1.7,1.1-1.3,1.3a4.88,4.88,0,0,0,1.3-.6c-.3.2.7.1-.1.6l-.2-.2c-.2.2-.1.4-.3.6.2-.1.3-.2.4-.2-.2.2-.1.4-.6.6l.9-.3c-.4.1-.6-.1-.1-.3.8-.3.4.1.5.2.1-.5,1.4-1.1.7-1.2l-.2.2c-.8.1.2-.7.1-.9a1.14,1.14,0,0,0,.6-.3c-.5-.2-.7-.4-.8-.7a1.17,1.17,0,0,0-.6-.6l.7-.6-.6.4c-.4-.1.8-.6.7-.7,0,.1-.1.1-.2.2.4-.7-.7.2-.6-.1-.6.5,0,.5-.9.9.5-.7-.1-.9,1.2-1.9-.9-.1-.5-1.4-.8-1.9-.3.1-.1.2-.3.3.6-.8-1-.1-.3-.7a7,7,0,0,0-.9.6c.2-.4.3-.6.2-.8l-.1.3h-.2l.1-.4h0c-.1-.5-.6-.7-.3-1.6-.2.6-.8.7-.9,1,.8-1.1.5-1.5.1-1.7a2.65,2.65,0,0,0-.5.6l.2-.6-.2.3c-.5-.1.2-1.5-.5-1.2a2,2,0,0,1-.4.8,1.1,1.1,0,0,1-.4-.9.35.35,0,0,1-.1.2c-.1,0,0-.3,0-.5l-.4.6c.1-.4-.3-.2-.2-.8-.5.6,0-.9-.4-.7,0-.2-.3.8-.5.6.8-1.3-.3-.2.6-1.6l-.5.4.4-.7c-1,1.2.1-.7-.4-.5-.1.2-.1.2-.1.3a.71.71,0,0,1,.2-.7c-.1-.1-.4-.7-.6.2.2-.4.2,0,.2.2-.4.6-.4.3-.8.9,0-.1.1-.2.1-.3l-.2.4c.1-.8-.4-.4-.1-1.4-.1.2-.2.3-.3.2l.4-.8-.3-.1-.5,1.4c-.4.1,0-1.3-.1-1.6-.7,1.3-.3-.7-1,.4v.4c-.3-.4-.7.4-.9-.3a3.55,3.55,0,0,0,1.4-.9c-.7.4-.5-1.1-1.3-.5a3.18,3.18,0,0,1-.3.9c.2-.7-.4-.1-.1-.9-.2.2-.6,1-.7,1.1L87,20.9v.2c-.7.8-1,.4-1.2-.2s-.5-1.3-1-1l-.1.5v-.7c.1.5-.2.5-.3.9-.1-.4-.2-.7-.3-1.1C83.8,19.7,83.6,20.6,83.8,20.4Zm6.5,2.9.1.1a.1.1,0,0,1,.1.1l-.1-.1C90.3,23.5,90.1,23.8,90.3,23.3Zm7.7,9v-.2c.1,0-.1.3.2,0C98.2,32.2,98.2,32.2,98,32.3ZM87.6,28.4l-.1.4.3-.5Zm-1.2-.6v.4l.1-.1v-.4Zm.1-5.1v0c0-.4-.4.5-.2-.5C86.7,21.5,86.5,22.3,86.5,22.7Zm3.1,1.5c.3-.5.1-.7.2-1.1-.1.1-.2.6-.4.9-.1,0-.1,0-.1-.2C88.8,25,89.7,23.6,89.6,24.2Zm3.2,2.1h0l-.2.5Zm.2.9c-.4.7-.1.7-.1.9.4-.5.7-1.2.6-1.2C93.6,26.3,92.8,27.6,93,27.2Zm-5.7-2.9c0,.3-.4,1.5.1,1v-.4h.1l.2-.5C87.2,25.7,87.4,24.4,87.3,24.3ZM94,28.5a3.69,3.69,0,0,1-.7,1.4c.7-.7.8-1.2.7-1.3Zm-.7.9c-.1,0-.5.5-.3.1.4-.4,1.1-1.4.7-1.2a9.66,9.66,0,0,0-.9,1.7Zm1.1-1.8h-.2c-.3.2-1.1,1.1-.5.1l.5-.1ZM95.9,29l.2-.3c0,.1-.1.2-.2.3l-.1.3C95.3,29.4,95.6,29.2,95.9,29Zm-1.5-1.1.1.3C94.4,28.2,94.1,28.3,94.4,27.9Zm.8,1.7c-.1,0-.4-.1-.4-.2C95.2,29.1,95.3,29.3,95.2,29.6Zm3.1,4.9-.7.3V35Zm-1.8-.9v-.1l-.3.2Zm-1.4-1.2c.1-.1.3-.2.4-.3s.1-.1.2-.2l-.2.2c-.1.2.1.2.3.1s.1-.3.3-.5c.7-.4-.9,1.4.8-.1-.2.2-.5.8-.9,1,0-.3-.4-.4-.9-.2-.1.1-.1.1-.2.1A.35.35,0,0,0,95.1,32.4Zm-1.8-1.3c0-.1,0-.2.1-.2,0-.2.2-.4.4-.6-.1.3-.3.4-.5.6C93.3,31,93.2,31.1,93.3,31.1Zm-.8.8L93,31l-.3.5.2-.5C92.5,31.4,92.1,32.1,92.5,31.9Zm0-.7.3-.4-.3.4h0l-.1.1v-.5Zm-2.1-2.9c-1.2,1.6-.5,1.3-1,2.1.4-.5,1.1-1.3.8-1.5.6-.4-.6,1.1.5-.1-.2,0,0-.5,0-.6h.2C91.5,27.2,90.3,28.6,90.4,28.3Zm-1.7-.6-.1-.2.1.2Zm-5-1.6c-.1.4-.6,1.2-.4.3A.37.37,0,0,0,83.7,26.1Zm-2.1-.7.2.4c-.3,1-.2-.1-.3.1C81.4,25.4,81.4,25.8,81.6,25.4ZM80,25.2l-.1-.2-.1,1Zm0,2c0,.1-.2-.2,0-.6Zm-1.4-.9v.9l-.1.1Zm.2-.6v.6c0,.2.1.3.2.1,0-.5-.1-.2-.1-.3s.1-.3.2-.2a8.87,8.87,0,0,0-.2,1.5c-.3.4-.2-.5-.1-1.1Zm.9-.1c0-.1.1-.2.1-.3v.2c-.1.3-.1.2-.1.1a.35.35,0,0,1-.1.2,5.48,5.48,0,0,0,0,1.3c0-.2,0-.8-.2-.4V27l-.1.1c0-.8.1-1.1.3-1.3,0-.1.1-.3.1-.4S79.6,25.5,79.7,25.6Zm-1-.6c0-.2.1-.4,0-.6l-.1-.2C78.6,24.5,78.7,24.9,78.7,25Zm4.6-.2c-.1.2-.2.9,0,.7l-.3.8c.1-.6-.1-.6-.1-.6C83.1,24.9,83.1,25.3,83.3,24.8Zm5.1,2.7c.1-.3-.5.2,0-.8C87.8,27.7,88.2,27.7,88.4,27.5Zm.6-1.1h0c0,.3-.4,1.1,0,.7.1-.2-.1,0,0-.2.2-.4.1-.3,0-.5C89.1,26.5,89.1,26.4,89,26.4Zm-2.9-1.3.2-.8h-.2Zm-1.3-1.9c-.1.4-.3.4-.3.2-.2.6,0,.6.1.6v0a2.07,2.07,0,0,1,.2-.6Zm-3.2-1.5c-.2.4-.2.3-.2.1S81.6,21.5,81.6,21.7ZM86,23c-.3.2-.2.9-.4,1.1h.1c-.4.6.1-.7-.1-.6l.1-.1c.3-.5,0-.4.1-.9C86,22.4,86.1,22.9,86,23Zm-4.5-1.7c-.3.6-.1-.6-.2-.8C81.6,20,81.4,21.1,81.5,21.3Zm3.6-.8v-.1l.1.4v.1Z"/><path class="cls-4" d="M80.2,27.3Z"/><path class="cls-4" d="M87.5,30.4c.1-.1.1-.2.2-.2A.22.22,0,0,0,87.5,30.4Z"/><path class="cls-4" d="M87.6,30.9Z"/><path class="cls-4" d="M96.4,37.7c-.7.3-.1,0-.2-.1C96.3,37.7,96.8,37.5,96.4,37.7Z"/><path class="cls-4" d="M97.4,36.8q-.3.15-.3.3T97.4,36.8Z"/><path class="cls-4" d="M97.3,37.3c-.2,0-.2-.1-.2-.2C97.1,37.2,97.4,37.1,97.3,37.3Z"/><path class="cls-4" d="M96.6,35.7c-.4.3-.1.3-.1.3-.5-.1-.7.5-1,.6C95.6,36.4,96.1,36.2,96.6,35.7Z"/><path class="cls-4" d="M96.6,35.2h.1C96.6,35.3,96.6,35.3,96.6,35.2Z"/><path class="cls-4" d="M96.2,35.4c0-.1.5-.4.8-.7.4-.1-.3.4-.3.6C96.6,35.2,96.6,35.1,96.2,35.4Z"/><path class="cls-4" d="M92.3,34.3c0,.1,0,.1-.2.3l-.1-.1C92.1,34.3,92.2,34.3,92.3,34.3Z"/><path class="cls-4" d="M92.9,32.9c0-.1-.5.4-.5.3l.8-.7Z"/><path class="cls-4" d="M96.6,29.5v0Z"/><path class="cls-4" d="M91.8,33.1l-.7.8A6.53,6.53,0,0,1,91.8,33.1Z"/><path class="cls-4" d="M90.9,33.3l-.2.3a.6.6,0,0,1,.1-.4Z"/><polygon class="cls-4" points="90.8 32.5 90.6 32.7 90.7 32.4 90.8 32.5"/><path class="cls-4" d="M85.5,28.3c.3-.9.4-.4.6-.6C85.6,28.7,86,27.2,85.5,28.3Z"/><path class="cls-4" d="M80.5,26.9c.1.1.2.2.2.3C80.5,27.5,80.7,27.1,80.5,26.9Z"/><path class="cls-4" d="M77.4,26.1a.1.1,0,0,1,.1-.1C77.5,26.1,77.5,26.1,77.4,26.1Z"/><path class="cls-4" d="M77.6,24.6a1.76,1.76,0,0,1-.2,1.4C77.3,25.6,76.6,24.9,77.6,24.6Z"/><path class="cls-4" d="M75.7,26.4l.2-.5C76.3,26.1,75.8,26.1,75.7,26.4Z"/><polygon class="cls-4" points="76.7 26.1 77 26 76.7 26.3 76.7 26.1"/><path class="cls-4" d="M77.8,49.9a1.49,1.49,0,0,1,.6.1Z"/><path class="cls-4" d="M75.8,50.5l-.2.2C75.7,50.6,75.7,50.5,75.8,50.5Z"/><path class="cls-4" d="M77.9,48.9v0Z"/><path class="cls-4" d="M78.8,36.8c.3-.2.6-.3.7-.5C79.8,36.7,79.2,36.7,78.8,36.8Z"/><path class="cls-4" d="M69.2,53.2l.3.1C69.3,53.3,69.2,53.3,69.2,53.2Z"/><path class="cls-4" d="M71,49.2c.2,0,.3.1.4.1h-.1Z"/><path class="cls-4" d="M77.5,48h0l.2-.1C77.8,48,77.7,48,77.5,48Z"/><path class="cls-4" d="M68.3,54.3a2,2,0,0,1-.7-.1A.88.88,0,0,1,68.3,54.3Z"/><path class="cls-4" d="M75.7,50.7Z"/><path class="cls-4" d="M71.8,47.9l-.2.2C71.5,48,71.6,47.9,71.8,47.9Z"/><path class="cls-4" d="M78.8,36.8a.35.35,0,0,0-.2.1C78.6,36.8,78.7,36.8,78.8,36.8Z"/><path class="cls-4" d="M78.2,27.2c0,.1-.2.2-.4.3A1.38,1.38,0,0,1,78.2,27.2Z"/><path class="cls-4" d="M59.7,76.8Z"/><path class="cls-4" d="M64.6,73.4c.1,0,.1.1.2.1S64.8,73.5,64.6,73.4Z"/><path class="cls-4" d="M62.4,64.8c.2.5-.8.3-1,.5l.4.2h-.4l.4.3c-.5.2-.5,1-1.2.6l.7.5h-.8l.6.1a1.06,1.06,0,0,1-.7.6l-.6.2.3.2c.1.2-.2.1-.3.1l.4.3c-.7.5-.1,1.4-1.1,1.8-.1.3.2,0,.4.2.2.4-.3.4-.5.3.6.5.7,0,.9.7-.4-.1.6.4.2.6l-.8-.6c-.1.3.5.6.1.7-.6-.1-.3-1.1-.9-.8-.4.2.7,2-.1,2.1-.1.7,1.2,1,.4,1.3l.8.2c.1.3.4.6,0,.7a3.08,3.08,0,0,0-.9-.4c1,.1.1,1.3,1.3,1.6l-.2.1.1.1-.2.3c.3,0,.8-.3,1,.5l-.3.5c.4.3.4.6.7.9l1.9-.3c-.3-.2-.6-.2-.7-.5.2-.5.6.2.7-.4l-.6-.3c.1.1.2.1.2.2.1.3-.2.1-.4-.1-.2-.5.3-.5.7-.3.4-.4-.5-.8-.6-1,.8.5.7-.6,1.2-.5l-.6-.3c-.2-.8.5-.6.8-.6l-.3-.2c.5-.3-.5-1.6,1-.8l-.3-.2c.1-.3,0-.7.5-.6-.1-.1-.3-.3-.3-.4.6.4.4-.1.5-.5-.3,0-.8-.6-1.2-.6-.3-.9,1,.3,1.3,0-.2-.5-.5-.1-.8-.3.8-.2-.6-2.3.9-1.5l.2.6c.4,0,.5-.1.4-.1s-.1,0-.3-.1c-.2-1.1,1.7-.2,2-1a2.12,2.12,0,0,1-.7-.3c0-.5,1.5.7,1.3-.2l-.4-.1c-.1-.3.4-.1.5,0-1.1-.9.8-1-.5-2.4.8.2,1.8-.1,1.6-.6-.5-.8-1-.3-1.6-.8.1-.2.9.1.9-.4.7.4.9,1.6,1.7,1.1l-.3-.3c0,.1.1.3-.1.3-.5-.1-.4-.4-.5-.6l.6-.6c.8.4.3.7.5.9.2-.7-.5-2,.3-2.2l-.3-.1c1-.3-1.1-1.1.4-1,0-.4-.8-.3-.7-.8.1-.1.3.1.4.2.5-.4-.6-.6.3-.7l-.8-.3c.8-.3,2.6-.2,2.5-.9-.6-.3-.7.1-1.3,0a1.48,1.48,0,0,0,1.2-.9c.2-.4.2-.9.7-1.1.5.4,1.4.2,1.6.9-.9-.3-.4.2-.6.4,1.9.4-.2-1.9,1.4-1.4l-.6-.4a1,1,0,0,1,.9.1l-.1-.9c-.6.1-1.9.2-1.3.6-.8-.1-.3-.5-1.2-.6,1.3,0-.3-.5.1-.9.8.6,1.5,0,1.9.2-.1-.2.5-.5.8-.5.2-.3-.3-1.3.2-1.6a2.23,2.23,0,0,1-1.4,0c.4-.1.5-.4-.2-.7-1.6.4,1.5.8.4,1.3-.9-.1-1.1,0-1.5.3a10.91,10.91,0,0,0-1.1-.6c1.8.2.6-1.1,1.6-1.5.6-.1,1.6.5,2-.1l.3.7c-.3-.7.5,0,.9-.4h-.6c0-.3.1-.4.6-.4h-.9c0-.2-.1-.5.4-.4a1.69,1.69,0,0,0-.5-.2c.1,0,.3,0,.3-.2-.1.1-.1.2-.4.1.4-.6-.9-.5-.7-.9a.66.66,0,0,1-.5-.4c1.3.4,1.8-.4,2.6-.4h0l.7-.4c-.1.1-.5-.1-.6-.4h0c-.2-.2-1.5-.2-1-.6h.9c-.1,0-.3-.1-.4-.1l.5-.2c-1.2-.8.9-.7.4-1.4.1.2-.1.4-.5.2,0-.2.1-.3.4-.3h-.2l1.1-.9c-.5,0-.7.6-1.1.2-.6-.3.1-.4.2-.6.4.1.6.5.9.2-.2-.1-.5-.5-.8-.4.5-.3.8-.8,1.5-1-.1-.1-.3,0-.4,0h.1c-.2.2-.9-.2-.6.4-1.2-.2-.2-.7-.3-1.1l-.9.4c-1.5-1.2.6-2.2.8-3.2.3.4-.1.5.9.7.6-.6.3-.5.6-1.1h-.1c-.4-.4.6-.7-.3-1-.5.1.4.5-.6.4l.2-.8c-.7.2-.2.8-.4,1.1,0,.2.2-.4.9-.2-.1.7-.8.8-1.9,1-.8.1-.7-.4-.7-.6,1.1-.3,1.7-.9,1.3-1.7l-.6-.6c.8-.3,2.2,0,2.1-.6l-.6.1-.3-.3c-.4.2-1,.5-1.5.7-1.2-.5.7-1,1-1.5-.2,0-.2.2-.5.2-.2-.8,1.3-1.6,1.5-2.2-.5-.3-.4.5-1.2.3.3-.3-.3-.7.4-.8-1.1.1-.1-.8-1.1-.2-.5-1.2.6-2.4,1.1-3.7a1.1,1.1,0,0,1-.8,0,1.33,1.33,0,0,1-1,1.2c-.5-.3.7-.6.4-.7-.3.1-.3.4-.8.4-.6-.3.2-.5.3-.8l.3.1c.7-.8,1.8-.5,1.5-1.3-.7-.3-.5,0-1.3.1.3-.2-.6-.7.2-1l.1.5c.2-.4.2-.7.4-.9-.2,0-.3.1-.4.1.3-.3.1-.6.6-.8h-.9c.4.1.5.6.1.7-.7,0-.3-.5-.4-.7-.1.9-1.5,1.1-.9,1.8l.3-.1c.7.4-.4,1-.3,1.4a1.49,1.49,0,0,0-.6-.1c.7.9.2,1.8.6,2.9l-.8.3h.6c.3.5-.9.1-.8.4,0-.1.1-.1.3-.1-.7.6.6.4.4.7.7-.1.3-.6,1.2-.4-.8.6-.4,1.5-2,1.5a2,2,0,0,1-.1,1.7,9.33,9.33,0,0,0-.7,1.5c.2.2.2,0,.4,0-.9.2.5,1.3-.3,1.2a4.67,4.67,0,0,0,1,.5c-.4.2-.7.4-.8.7h.2l-.4.3h0c-.4.7-.3,1.6-1.3,2.1.6-.3.9.3,1.3.2a1.42,1.42,0,0,0-1.6,1.4c.3.1.5.2.7.1l-.6.3h.3c.1.7-1.5,1.1-1,1.7.2-.2.5-.2.9-.1a2.54,2.54,0,0,1-.8,1.4h.3c.1.2-.3.3-.5.4l.6.2c-.4.2-.2.7-.8.8.6.3-.8.6-.7,1.1-.2.1.8-.1.6.3-1.3-.4-.2.5-1.6.1l.4.5-.7-.2c1.2.8-.7.2-.5.8.2,0,.2,0,.3.1-.2.1-.4.4-.7,0-.1.2-.7.9.2.8-.4-.1,0-.3.2-.4.6.2.2.5.8.9h-.3l.3.2c-.8.2-.6.8-1.5.8.2.1.3.2.2.4l-.7-.3-.2.5,1.2.2c0,.6-1.4.4-1.7.8,1.2.7-.8.6.1,1.4l.5-.2c-.6.6.1,1-.6,1.5a3.68,3.68,0,0,0-.5-1.9c.1,1-1.3,1-1,2,.3.1.6,0,.8.3-.7-.2-.3.7-1,.2.1.3.7.7.8.9l-1.3.2.1.1c.4,1.1-.2,1.5-.9,1.8s-1.6.5-1.6,1.2l.4.2-.7-.1c.5,0,.4.4.7.6l-1.4.3C61.7,64.6,62.4,65.1,62.4,64.8Zm6.1-10.1.1-.2c0-.1,0-.1.1-.1v.1C68.7,54.7,69,54.9,68.5,54.7Zm6.7-19.2-.1.4c0-.1.2-.3-.1-.2C75,35.5,75,35.4,75.2,35.5ZM73.2,57h.5l-.4-.3ZM72,59.8l.4-.2-.1-.1-.3.3Zm-5.6,1.1h0c-.5,0,.3.6-.6.3C65.3,60.6,66.1,60.9,66.4,60.9Zm2.9-5.3c-.5-.2-.7.1-1.1,0,0,.2.6.2.9.3,0,.1,0,.1-.2.2C69.9,56.5,68.7,55.7,69.3,55.6Zm2.5-6.3h0l.5-.1Zm.9-1.1c.7,0,.7-.4.9-.6-.5-.3-1.2-.2-1.2.2C71.8,48,73.2,48.2,72.7,48.2Zm-4.1,11c.3-.1,1.5.2,1.1-.5l-.4.1v-.1l-.5-.1C70,59.2,68.7,59.1,68.6,59.2Zm5.2-13.7c.5-.2,1.1-.6,1.5-.4-.9-.2-1.4.1-1.4.2S73.9,45.4,73.8,45.5Zm1,.2c.1.2.6.3.2.5-.5-.2-1.6-.3-1.3.2.9-.1,1.3,0,1.8-.3Zm-1.9,0,.1.2c.3.3,1.3.6.2.6l-.2-.6C72.9,45.9,72.9,45.8,72.9,45.7Zm.8-3.4-.3.1c0-.1.2-.1.3-.1l.3-.1C74.3,42.7,74,42.4,73.7,42.3Zm-.5,3.1.2-.4C73.5,45.2,73.6,45.5,73.2,45.4Zm1.3-2.8v.7C74,43.1,74.2,42.7,74.5,42.6ZM76.2,32l.6.2.1-.3Zm.8,3.3-.1.2.3.1ZM76.9,39c-.1,0-.3-.1-.5,0s-.1.1-.3.1a.44.44,0,0,1,.3-.1.28.28,0,0,0,0-.5c-.3,0-.3.2-.5.3-.7-.4,1.6-.8-.5-.9.3-.1.9-.5,1.3-.3a1.08,1.08,0,0,0,.2,1.4.35.35,0,0,1,.2.1C77,39.1,77,39.1,76.9,39Zm-.3,4.7-.2.2a.85.85,0,0,1-.7,0c.3-.2.5,0,.7,0C76.4,43.8,76.5,43.8,76.6,43.7Zm.9.2c-.3.2-.7.3-1,.5l.5-.1-.5.3C77.1,44.6,77.9,44.3,77.5,43.9Zm-.6.9H77l-.5.7Zm-3.1,6.9c1.6.8,1.4-.2,2.3-.1-.6-.2-1.3-.8-1.6-.1-.4-.8,1.2,0-.1-.8,0,.3-.5.5-.6.5a.37.37,0,0,1,.1-.3C72.8,50.7,74.3,51.6,73.8,51.7Zm-.9,3.6-.3.3.3-.3ZM68,65.5c.4.2.7,1.1-.1.8C68,66,68.3,65.7,68,65.5Zm-2.9,3.8.6-.2c.7.7-.3.3-.4.6C64.9,69.6,65.3,69.6,65.1,69.3Zm-2.3,2.6h-.2l.8.5Zm1.8.8c0,.1-.4.2-.7-.1Zm-2.9,2,.7.5-.1.2Zm-.3-.6c.1,0,.3.2.4.3s.4,0,.4-.3c-.3-.3-.2,0-.4,0,0-.1-.1-.4.2-.4.4.7.5.6.9,1.1-.1.7-.6,0-1.1-.4C61.7,74.4,61.6,74.3,61.4,74.1Zm1.3-1.5a.37.37,0,0,0-.1-.3l.1.1c.2.3.1.3,0,.2v.3c.3.4.8.4,1.1.6-.2,0-.7-.3-.6.1.1.1.2.2.3.1l-.1.3c-.8-.3-.7-.7-.6-1.1-.1-.1-.1-.2-.2-.3Zm-1.9,1.2c-.1-.1-.2-.3-.4-.4h-.2A.43.43,0,0,0,60.8,73.8Zm5.5-7.6c.1.2.7.3.7,0l.6.6a.43.43,0,0,0-.7.2C66.2,66.6,66.6,66.6,66.3,66.2ZM72.6,56c-.3,0,0,.8-.9.5C72.6,57.1,72.6,56.4,72.6,56Zm-1-.5a.1.1,0,0,0,.1-.1c.3-.1,1,.2.7-.2-.2,0,0,.2-.3.2-.5-.2-.4-.1-.5,0Zm-2.7,5.6-.8-.2-.1.3Zm-3,2.5c.4.2.2.5-.1.5.5.3.6,0,.7-.1s.1,0,.1-.1-.1,0-.1.1a.85.85,0,0,1-.5-.3l-.1-.2-.3.2Zm-4.2,4.6c.2.5,0,.4-.2.4C61.4,68.4,61.5,68.2,61.7,68.2Zm4.7-6.5c0,.5.8.3.9.6l.1-.2c.3.6-.7-.1-.6.2v-.2c-.4-.4-.4,0-.8-.2C65.9,61.7,66.4,61.5,66.4,61.7Zm-5.2,6.5c.2.7-.6-.1-.8,0C60.2,67.6,60.9,68.3,61.2,68.2Zm2.2-5.3h0l.3-.1.1.1Z"/><path class="cls-4" d="M65,72.3a.22.22,0,0,1-.2.2Z"/><path class="cls-4" d="M75.6,55.9c-.2-.1-.2-.1-.2-.2Z"/><path class="cls-4" d="M76.2,55.2Z"/><path class="cls-4" d="M78.9,27.4c.7-.2.1.2.1.3C79,27.6,78.5,27.6,78.9,27.4Z"/><path class="cls-4" d="M77.8,28.6a.78.78,0,0,0,.4-.4C78.2,28.3,78.2,28.4,77.8,28.6Z"/><path class="cls-4" d="M78.1,27.7c.2.2.2.4.1.5C78.2,28.1,77.9,28,78.1,27.7Z"/><path class="cls-4" d="M78.1,31.4c.4-.2.2-.5.2-.5.4.7.8-.1,1.1-.2C79.3,31.2,78.7,31.2,78.1,31.4Z"/><path class="cls-4" d="M77.9,32.3c0-.1,0-.1-.1-.2A.31.31,0,0,1,77.9,32.3Z"/><path class="cls-4" d="M78.3,32.6c-.1.2-.6.3-.9.4-.3-.3.4-.5.5-.7C77.9,32.5,77.8,32.7,78.3,32.6Z"/><path class="cls-4" d="M79.8,40.4c.1,0,.1-.2.3-.2v.4C80,40.8,79.9,40.5,79.8,40.4Z"/><path class="cls-4" d="M78.3,41.7c-.1.3.6.3.4.4l-.9-.2Z"/><path class="cls-4" d="M73.9,40.8l.1-.1Z"/><path class="cls-4" d="M78.9,43.5h1A1.56,1.56,0,0,1,78.9,43.5Z"/><polygon class="cls-4" points="79.3 44.9 79.7 44.7 79.2 45.3 79.3 44.9"/><polygon class="cls-4" points="78.5 46.2 78.7 46.3 78.3 46.7 78.5 46.2"/><path class="cls-4" d="M71.9,61.5c-.8-.3-.2-.8-.3-1C72.5,61.1,71.1,60.8,71.9,61.5Z"/><path class="cls-4" d="M65.1,71.6l.6-.4C65.6,71.8,65.6,71.3,65.1,71.6Z"/></symbol></defs><title>Kayak_Logo4</title><rect class="cls-5" x="11.35" y="49.75" width="229.4" height="84.5"/><g class="cls-6"><text class="cls-7" transform="translate(11.35 108.06) scale(0.99 1)">kaYak</text><text class="cls-8" transform="translate(0 124.65) scale(0.99 1)">The worlds treasures await! </text><text class="cls-8" transform="translate(11.35 129.88) scale(0.99 1)"> </text></g><use width="106.8" height="79.2" transform="translate(52.09 0) scale(0.87)" xlink:href="#Tropical"/><polygon class="cls-5" points="27.37 59.23 146.27 59.23 146.27 59.23 27.37 59.23"/></svg>