<svg id="logosvg.com" xmlns="http://www.w3.org/2000/svg" xmlns:xlink="http://www.w3.org/1999/xlink" viewBox="0 0 240.75 135.18"><defs><style>.cls-1,.cls-5{fill:none;}.cls-1{stroke:#56a0d3;stroke-width:2.49px;}.cls-2{fill:#fdc473;}.cls-3{fill:#6bacd9;}.cls-4{fill:#60b45a;}.cls-6,.cls-7{isolation:isolate;fill:#8b251b;font-family:Georgia, Georgia;}.cls-6{font-size:69.83px;}.cls-7{font-size:17.46px;}</style><symbol id="Tropical" data-name="Tropical" viewBox="0 0 106.8 79.2"><path class="cls-1" d="M37.6,62.4"/><path class="cls-2" d="M17.8,34.1c-.1,0-.2.1-.3.1C17.8,34.2,17.9,34.2,17.8,34.1Z"/><path class="cls-2" d="M14.3,35a12.21,12.21,0,0,0,3.2-.8C16.7,34.1,14.4,33.9,14.3,35Z"/><path class="cls-2" d="M17.8,32.2c-.4.2-.8.3-1.2.5C17.3,32.9,17.2,32.4,17.8,32.2Z"/><polygon class="cls-2" points="17.4 33.3 17.5 33.7 18.1 33.3 17.4 33.3"/><path class="cls-2" d="M15.5,57.8a.68.68,0,0,0,.4-.5Z"/><path class="cls-2" d="M12.7,57.9a1.31,1.31,0,0,1-.4-.3C12.3,57.8,12.4,57.8,12.7,57.9Z"/><path class="cls-2" d="M17.1,58.9l-.3-.2C16.8,58.8,16.9,58.9,17.1,58.9Z"/><path class="cls-2" d="M35.5,48.4a7.57,7.57,0,0,0-.8-.9C34.4,48.2,35,48.2,35.5,48.4Z"/><path class="cls-2" d="M6.1,45.2h.4C6.5,45,6.4,44.8,6.1,45.2Z"/><path class="cls-2" d="M8,61.1c.2-.1.2-.2.3-.4-.1,0-.1-.1-.2-.1Z"/><path class="cls-2" d="M18.2,60h0a.63.63,0,0,0,.4-.1A.63.63,0,0,0,18.2,60Z"/><path class="cls-2" d="M9.7,40.8a3.12,3.12,0,0,0,.2-1C9.5,40.3,9.5,40.7,9.7,40.8Z"/><path class="cls-2" d="M12.2,57.6"/><path class="cls-2" d="M12.1,64.1c-.3-.1-.5-.2-.8-.3C11.6,64.1,11.9,64.2,12.1,64.1Z"/><path class="cls-2" d="M35.5,48.4l.3.3Z"/><path class="cls-2" d="M20.8,34.9a.56.56,0,0,0,.6-.4C21.2,34.5,21,34.7,20.8,34.9Z"/><path class="cls-2" d="M21.1,50.7Z"/><path class="cls-2" d="M19.6,50.5c-.1,0-.2.1-.3.1S19.4,50.5,19.6,50.5Z"/><path class="cls-2" d="M11.7,56.3c-.2-.5-.4-.9-.6-1.3s-.5-1-.7-1.5a5.88,5.88,0,0,1-.6-3.4c.1.3.2.5.3.8a5,5,0,0,1,.1-2.1l.6.2a7.43,7.43,0,0,1,2.6-4,11,11,0,0,0,2.4-2.1,3.37,3.37,0,0,0,.1,1l.6-.4c.2-.1.5-.3.7-.4a4.37,4.37,0,0,1,1.6-.6l-1.8.9a10.86,10.86,0,0,1,5.9.3A7.88,7.88,0,0,1,25.3,45c.6.5,1,.9,1.2,1.1-.2,0-.3-.1-.5-.1a17.11,17.11,0,0,0,1.2,1.6c-.2-.1-.5-.2-.7-.3.1.2.2.3.3.5a1.42,1.42,0,0,1,.2.6l.3,1.2a7.75,7.75,0,0,1-.1,2.2,5.65,5.65,0,0,1-1.8,3,9.1,9.1,0,0,1-2.7,1.6,7.51,7.51,0,0,1-4.3.3c-.9-.4-.6-.3-.1-.2s1.2.2,1.3,0a18.62,18.62,0,0,0-1.9-.8,12,12,0,0,1-1.7-.9,8.49,8.49,0,0,1,1.7.5c.5.1.6.1,0-.7-.7-.2-.4-.3-.1-.4.1-.1.2-.1.1-.3a2.69,2.69,0,0,0-.6-.7,3.56,3.56,0,0,1-1.4-.3,1.22,1.22,0,0,1,.1-1.3c.1-.1.1-.3.2-.5a11.33,11.33,0,0,1,.2-1.3c.1-.7.2-.9,0-.8a4.37,4.37,0,0,0-.8.7c-.3.3-.4.7-.5.5a3.32,3.32,0,0,1,.7-2.1A2.63,2.63,0,0,1,17.4,47a3.37,3.37,0,0,1,1-.1,3.75,3.75,0,0,1,1.1.2,5.68,5.68,0,0,1,2,1.1,7.65,7.65,0,0,1,.9.9c.1.2.3.4.4.6a7.31,7.31,0,0,1,.3.9,1.4,1.4,0,0,1-.4,1.1c-.2.2-.3.2-.4.2s-.3-.3-.4-.4-.2-.3-.3-.2a2.77,2.77,0,0,1-.8.8c.5-.4.5-1.1.2-1.3-.1.1-.4.1-.5.1s-.2-.1-.1,0a.85.85,0,0,1,0,.7.63.63,0,0,1-.7.2c.5.1.6-.2.6-.4s-.1-.3,0-.5.3-.2.5-.2a.22.22,0,0,0,.2-.2,1.17,1.17,0,0,0-.2-.7c.1.1.3.2.4.3a1.51,1.51,0,0,1,.3.7c0-.2.1-.3.2-.2a1.71,1.71,0,0,1-.1,1.4,1.56,1.56,0,0,1-.8.8,1.74,1.74,0,0,0,1.1-.9,3.78,3.78,0,0,0,.2-1,2,2,0,0,0-.2-.9l-.4-.8c0-.2.1-.3.6-.1a2.52,2.52,0,0,1,.7,1,3.19,3.19,0,0,1,.2,1.7,3.07,3.07,0,0,1-1.7,2.3c.4,0,.6,0,.6.1a.76.76,0,0,1-.1.4c-.1.2-.2.3-.3.5s0,.2,0,.3a4.15,4.15,0,0,0,2.4-1.7,5.15,5.15,0,0,0,.8-3.7l-.3-.9c-.1-.2-.2-.5-.3-.7a2.69,2.69,0,0,0-.8-1,4.44,4.44,0,0,0-2-1.1,5.44,5.44,0,0,0-2.2-.1,2.4,2.4,0,0,0-.9.3,4.4,4.4,0,0,0-.9.5,2.46,2.46,0,0,0-1.9,1.5,4.64,4.64,0,0,0-.6,2.7,6.5,6.5,0,0,1,.7-2.1c.4-.6.7-.8.7-.3a5.66,5.66,0,0,0-.4,2.7,9.49,9.49,0,0,0,.3,1.5,4.68,4.68,0,0,0,.5,1,3.19,3.19,0,0,0,1.3.8,3.47,3.47,0,0,1-.7-1c0,.3.3.5-.2.2a1.49,1.49,0,0,1-.8-.8c-.1-.3,0-.5.2-.5A18.15,18.15,0,0,1,18,54a11.47,11.47,0,0,0,1.4.8,1.4,1.4,0,0,0,1.1-.4c.1-.1,0-.3-.1-.4s-.5-.4-.3-.6c.4.4,1.3,0,1.6-1a4.57,4.57,0,0,0,.2-1.6,1.42,1.42,0,0,0-.2-.7.87.87,0,0,1-.1-.5c0,.1-.1.3-.1.4a1.69,1.69,0,0,1-.2.5,1.81,1.81,0,0,0-.6-.5l-.3-.3-.3-.6v.5c-.2-.1-.3.4-.3.6s.3,0-.5-.5c.1.1.2.1.3.2a.37.37,0,0,1,.1.3c0,.1,0,.1-.3.3.2,0,.5,0,.6.1-.4.1-.4.2-.3.2a.22.22,0,0,0,.2-.2c.2,0,.9-.7,1.3-.5.3-.6-.2-.6-.5-.4a2.77,2.77,0,0,1-.9.5c-.1-.6.5-.4.7-.6-.3,0-.4-.2-.6-.4a4.63,4.63,0,0,0-.7-.7c-.6-.4-1.4-.4-1.4.7.2.1.5.2.6.4-.2.5-.4.6-.4.4.1,0,.1-.2.1-.4-.8-.2-1.1.5-.9,1.1a1.69,1.69,0,0,0,.3.6c.1.2.2.2.1.3-.4,0-.5-.1-.8-.1-.2.2.3.3.7.2s.7-.2.6.2c-.1,0-.3.1-.4.1-.1.3.5.1.6,0-.6.5-.4.8.1,1.1a2.62,2.62,0,0,1,1.2,1.7,11.5,11.5,0,0,1,1.3-1,1.07,1.07,0,0,1,1-.3c.5.3.5.6.3.9a.9.9,0,0,0-.1,1c.7-.2.6-1.1,1.5-1.3-.3-.4-.8-.5-1.2-.8a.7.7,0,0,1-.2-1.1c.1.1.3.2.4.3-.1,0-.4-.1-.5.1-.1.6.5.4.7.6a3.1,3.1,0,0,0,.9-1.1,1,1,0,0,0-.8-.3c-.2,0-.3.2-.4.1a6.41,6.41,0,0,0,1.5-.7,1.05,1.05,0,0,0,.5-1.4h0l.4.1c-.4-.6-.1-.8.2-1.1s.5-.6-.5-.8c0-.3.2-.4.4-.5s.4-.2.1-.7c-.2-.3-.4.1-.4.2a.71.71,0,0,1-.2-.7c0-.2,0-.4-.8-.5l.9-.6a6.15,6.15,0,0,0-2.7-.1c-.8.1-1.5.3-2,0,.2-.7.9-.5,1.4-1a6.23,6.23,0,0,1-3,.2,3.63,3.63,0,0,0-2.6.7c.3.2.3.7.3,1a.83.83,0,0,0,.6.9c-.1-1,.4-.5.8-.7-.2,1.1-.6,1-1.4,1a2.29,2.29,0,0,0-.9.1c-.2.1-.3.4,0,.8l-.6-.6c-.1.2-.1.9.3,1a1.42,1.42,0,0,0-.6.2l-.6.3a3.15,3.15,0,0,1-.1-1.4c.1-.5.3-.8.7-.6,0-.5-.2-.5-.5-.5s-.5,0-.6-.6c-.1.9-.3.8-.6.8a.87.87,0,0,0-1.1.3,1,1,0,0,1,.7,1.1c0,.4.1.9.3,1-.4.1-.2,1,.1,1.3,0,.1-.1.2-.2.4a2.15,2.15,0,0,0-.4.5,1.25,1.25,0,0,0-.2,1.3,2.62,2.62,0,0,1-.6-.5,1.19,1.19,0,0,0-.9-.3c.4.5.4,1-.4,1.2-.8-.9-.3-1.1.2-1.2s1.1-.1.8-.9a1.89,1.89,0,0,1-.8-2.1c-.7.2-.8-.1-1.5-.2a2.87,2.87,0,0,1,.3,2.5,2.5,2.5,0,0,0,.3,2.5c.3.3.8.2,1.2.2a1.16,1.16,0,0,1,1.1.6l.1-.5.2-.5c-.3,1.1.6.1,1.1.6h-.7c0,.5.3.6.8.7-.4,0-.7.1-1.1.1,0,.3.2.9.7.6a1.76,1.76,0,0,1-.5.4c.2,0,.3,0,.5.3-.2-.1-.2-.3-.5-.1.5.5.4.7.1.9s-.5.3-.1.7c-.3,0-.3.5-.2.8a2.11,2.11,0,0,1,1.8-.5,2.49,2.49,0,0,0,1.7-.1h1.3c-.2,0-.3.5,0,.8h0c.2.4-1.2,1.4.1,1.4.3-.1.5-.1.8-.2-.1,0-.1.3-.1.4l.8-.2c.3.8.8.8,1.4.5.3-.1.5-.2.8-.3a.78.78,0,0,1,.8.1c-.3-.2-.8-.1-.7.4.2.2.6,0,.8-.2l-.1.2a10,10,0,0,0,2.1-1.1c-.1.5-1.3.7-.7,1.3.4.7,1-.1,1.4-.3-.1-.4-.9-.6-.2-1,.1.2.9.5.6.8a12,12,0,0,1,1.1-.9,2.33,2.33,0,0,0,.8-1.2c.3.1,0,.4-.1.5l-.1-.1c-.3.4.3,1-.7.9.2.7.5.6.9.4a8.14,8.14,0,0,1,1.3-.7,4.15,4.15,0,0,1-.9,1.4c1.5.5,2.8-.3,3.8-1.4s1.6-2.4,2.3-3.3c-.8.2-.8.9-1.6.1a15.06,15.06,0,0,1,1.1-2.2V54c.4-.1.5-.5.6-.9s.2-.7.7-.7c.4.5-.9.6.2,1.2.2-.5.4-1.1.6-1.6.5.8-.6,1.6-.8,2.3-.3.4.3-.9-.5-1.1a3,3,0,0,0-.4,1.7c0,.5.3,1,.4,1.7.1.5.4.5.7.3a1.84,1.84,0,0,0,.6-.7,6.15,6.15,0,0,1,.8-4.6c.4-.2.7-.5,1.1-.7-.6-1-2.3-.9-2-2.2.2.1.4.3.6.4.3-.3.4-.5.4-.7a5.79,5.79,0,0,1,.7,1c.2.4.5.7.7,1.1.8-.3.7-1.1.3-1.9s-1-1.5-1.2-2.1c.2,0,.3.5.7.6a3.56,3.56,0,0,0-1.2-2.7c-.2-.2-.4-.3-.5-.5a.66.66,0,0,0-.5-.4,3.41,3.41,0,0,1-.9-.7c.2-.8,1,.8,1.6.1-.7-.5-.6-1.7-1.4-1.3,1.2-.5-1.1-1.5.7-1a8.21,8.21,0,0,0-3.5-3.1,15.8,15.8,0,0,0-4.5-1.4,1,1,0,0,0,.4-.8,6,6,0,0,0,.8.3,3.09,3.09,0,0,0,.9.2,4.85,4.85,0,0,0,1.7,0c-.3-.9-1.9-.1-1.8-.5.4-.1,1.1.3,1.4-.2-.5-1-1.4-.5-2.1-.6l.2.4c-2.2,0-1.7,1.4-3.5.6-.5-.9.2-.6.4-1.4-.5.1-1.9-1.1-2.6-.2l1.2.3a7.74,7.74,0,0,0-2.3.2c.1-.2.1-.4.3-.4-.7.2-1.6.1-1.9.7l-.2-1c.4.4,1.6.6,1.9.1,0-.8-1.4-.4-1.9-.5a6.29,6.29,0,0,0,2.5-.7,2.77,2.77,0,0,1,2.3.2l-.4.2a3.34,3.34,0,0,0,2,.6,6.42,6.42,0,0,1,2,.2c-.2-.3-.2-.7,0-.8.6.4,1.2.8,1.7,1.2s1.2.7,1.7,1.1a10.77,10.77,0,0,1,1.7,1.3,7.59,7.59,0,0,1,1.5,1.6h1.3l-.1.6c.8,1.3,1-.4,1.6.4-.2-.3-.3-.2-.5-.1,1.8.9.1,1.2.9,1.9-.9,0-1.4-1.4-1.9-.4a4.6,4.6,0,0,1,1.2.9,2.62,2.62,0,0,1,.5.6,4.25,4.25,0,0,1,.5.7c.5.8,1.1,1.5,2,1.4.2,1.8.5,3.8.6,5.8a14.75,14.75,0,0,1-.7,5.4c-.4.3-.1-.3-.4-.3a1.73,1.73,0,0,1-.2,1.2,4.37,4.37,0,0,1-.8,1.1c-.6.7-1.2,1.1-.8,1.4a2.65,2.65,0,0,1-1.5.1,5,5,0,0,1-1.2,2.4l.3-.7h-.1l-.5.9h.1a16.44,16.44,0,0,1-2.8,2.4,21.38,21.38,0,0,0-2.9,2.3c.9-1-.7-.9-.3-1.4-.4,1.8-3.2,2.7-5.4,2.6,0-.3-.2-.5,0-.8l-1.2.6.2-.4a21.57,21.57,0,0,0-3.5.2,4.49,4.49,0,0,1-2.9-.5c1,.1,1-.2,1.3-.6a38.59,38.59,0,0,1-4.8-1.6c.1,0,.2-.1.3-.2-.4-.4-1.1-.4-1.6-.6l.4-.6c-1-.3-1.7-1.4-2.9-2,.2-.4-.5-.8-1.1-1.5a5.09,5.09,0,0,1-1.6-2.1c-.4-.5,1.2.8.6-.6-.8.2-1-.3-1.2-.8s-.3-1-1.2-.9a10.78,10.78,0,0,1,.4-1.7,6,6,0,0,1-.8-.3,1.31,1.31,0,0,0,.3-1.8,2.5,2.5,0,0,1-.1-2.4c.1.2.1.4.3.3,0-.7.4-2.2-.4-1.2.2-.5.6-1.7,1-2.5s.8-1.1.8-.2c-.3-.4-.8,1.2-.8,1.9.4.1.6-.2.9-.6s.7-.7,1.1-.6a1.09,1.09,0,0,0-.1-.5l.5.1a6.11,6.11,0,0,1,1.3-2.4A6,6,0,0,0,9.7,41c.2.1.6.1,1.1-.3l-.4-.8a15.11,15.11,0,0,1,1.8-.9c-.1.5-.2,1.1-.3,1.6a5.44,5.44,0,0,0,1.3-.7c.4-.3.7-.6,1.1-.9a7.1,7.1,0,0,1,2.5-1.4c.3.7,1.2.5,2.3.4s2.4-.1,3,.8a7.57,7.57,0,0,0-1.5.1,7,7,0,0,1,3.1,1,20.9,20.9,0,0,0,2.8,1.5,12.7,12.7,0,0,0-2.1-1.7c-.7-.4-1.4-1-3.1-2,1.8.7,3.4,1,4.9,1.7a7.7,7.7,0,0,1,3.9,3.5c-.4,0-1.2-.5-.9.4.5,0,1,.7,1.4,1.4s.6,1.1.9.7c.3,1.3-.5,1.8-.4,2.6a10.71,10.71,0,0,1,1.2,4.4l-.1-.2a26.44,26.44,0,0,1-2.8,4.5A18.24,18.24,0,0,1,26,60.1a8.55,8.55,0,0,1-1,.7,10.59,10.59,0,0,1-1.1.6,12.14,12.14,0,0,1-2.5.8,7.94,7.94,0,0,1-5.4-.9l.3-.4a7.46,7.46,0,0,1-2.1-.3c.8.2.7,0,.5-.3s-.6-.8-.6-1a11.12,11.12,0,0,1-4.2-3.4C10.2,55.3,11.2,55.2,11.7,56.3Zm-.8-15.7-.7.5c-.2.1-.3.1-.4.3.1-.1.3-.2.4-.3C10.7,41,11.1,41.1,10.9,40.6Zm28.4,4.9c.1.4.2.7.3,1.1,0-.2-.4-1,.1-.8C39.6,45.6,39.5,45.3,39.3,45.5Zm-24.8-.1-.1.6a2.15,2.15,0,0,1-.5-.4A1.42,1.42,0,0,1,14.5,45.4Zm6.4-.6a1.42,1.42,0,0,0-.7.2v-.1c.2-.1.5-.1.8-.2ZM30.5,50c0-.1-.1-.2-.1-.3a.37.37,0,0,0,.1.3,1.88,1.88,0,0,1-.1,1.3,1.14,1.14,0,0,0,.2,1.2,1.08,1.08,0,0,0,.5-1.4A2.89,2.89,0,0,0,30.5,50ZM13.1,40.8c-.2-.5.9-1.1,1.2-1.6.6,0,0,.7-.1,1.1.3,0,.4-.1.8-.3.1.6-.2.6-.6.5A1.11,1.11,0,0,0,13.1,40.8ZM9,60.9l-.1-.2c.3.2.7.2,1,.4Zm3.7,2.3c.8-.4,1.8.3,2.7.5,0,.7-1.2,1.1-2.1.5C11.9,64,13.4,63,12.7,63.2ZM24.8,42.5a4,4,0,0,0-1.5.1,1.44,1.44,0,0,1-1.5-.5h1l-.2-.2.4-.4c-.4.6-.1.8.3.8S24.3,42.41,24.8,42.5ZM21.2,65.3c.4-.2,1-.5,1.5-.8s.7-.6.6-.9a1.35,1.35,0,0,1-.5,1.2,1.38,1.38,0,0,1-.9.4C21.7,65.1,21.5,65.2,21.2,65.3Zm.3-1.1c-.4-.1-.2-.8-1.1-.4.1.5-.3,1.9-1.5,1.2,1.1-.8,1.2-1.2,2.3-1.6Zm-1.8,1.9-.5-.2c-.6-.5-.5-1.6-1.5-.7a10.23,10.23,0,0,0,1.5.7C19.4,66,19.5,66.1,19.7,66.1ZM30.4,64l-.3.6c.4-.3.4-.5.3-.6l.2-.5C29.5,63.7,30.2,63.8,30.4,64Zm-9.6,2c.5,0,1-.1,1.5-.1C21.9,65.8,20.9,65.5,20.8,66Zm8.9-2.7c-.6.3-2.1.7-1.9.7C28.1,64.5,29.5,63.8,29.7,63.3Zm3-26.1-.1.8-.7-.5ZM37.1,45l.2.5-.3.2ZM36,54.4c.2,0,.3.1.4.3s0,.3.1.4c.1-.1,0-.3-.1-.4a1.17,1.17,0,0,1,.6-1c.3.3,0,.8.1,1.1.6-.2.5-1.1.4-1.7s0-.9,1.1-.3c-.1-.5-.5-1.9-1-1.5A4.68,4.68,0,0,1,36,54.4c-.1,0-.3,0-.3.1S35.9,54.5,36,54.4Zm-9,7.3c-.3.2-.4.3-.4.4a1,1,0,0,0-.2.9c.6-.5.1-.6.2-.9Zm-.3-1a5.19,5.19,0,0,1-1.2,1.4l.4-.7c-.3.2-.6.5-.9.7a1.83,1.83,0,0,1,.5-1.1A3.59,3.59,0,0,1,26.7,60.7Zm-2.1,1.1-.1.6.2-.6h-.1v-.1c-.3.1-.5.2-.8.3l-.8.3A14.82,14.82,0,0,0,24.6,61.8ZM9,55.3a1.16,1.16,0,0,1,1.62-.17l.08.07c.4.3.8.8,1.3.6-.3.2-.5.6-.8.7s-.7.1-1.1-.7c0,.8.5.9.7.9s.3,0-.1.9a5.35,5.35,0,0,0-.7-.8c-.3-.2-.5-.4-.6-.4a2,2,0,0,0,.4.8c-.7.1-.7-.3-.7-.8S9.3,55.5,9,55.3Zm2.1-8.8a5.57,5.57,0,0,1,.7-.9,6,6,0,0,0-.8.8Zm10.8,8.6c0-.2-.4-.5-.7-.6s-.7-.1-.8.3C21,55,21.7,54.8,21.9,55.1Zm-5.2-6a2.35,2.35,0,0,0-.3,1.1c.5.2.6,0,.6-.2s.1-.6.4-.7C17.2,48.8,17.1,49.3,16.7,49.1Zm5.5,1.7c0,.1.1.2.1.4a4.4,4.4,0,0,0-.9-.5Zm-2-.2.1-.1a1.09,1.09,0,0,0,.5-.1A1.42,1.42,0,0,1,20.2,50.6Zm-.5.6a1.4,1.4,0,0,0,.9-.3c0,.2.1.4,0,.5A3.09,3.09,0,0,1,19.7,51.2Zm-.7,0a4,4,0,0,1,.5-.1c.2-.1.2-.2.2.1-.3.4-.2.1-.3.1s-.1.4.1.4a1.37,1.37,0,0,1,.4-.7,6.25,6.25,0,0,1,.4-.6c.3-.1.4.2.2.4a7.92,7.92,0,0,1-.9.5A.46.46,0,0,0,19,51.2Zm2.2.4h.4l-.1-.2c-.3-.1-.3,0-.3.2h-.4a4.34,4.34,0,0,1-.3-.7,2.29,2.29,0,0,0-.3-.5c.2.1.4.7,0,.4,0-.2-.1-.3,0-.3-.1,0-.1,0-.1-.1.1.4,0,.7.1.9a.61.61,0,0,0,.6.3l.3.3C21.2,51.9,21.2,51.7,21.2,51.6Zm-2.9-.8c-.1-.1-.4-.1-.6-.4a.87.87,0,0,1,.1-.5c.4-.1.5.1.5.3A.67.67,0,0,1,18.3,50.8ZM18.1,56c-.2-.3.7-.7,1.2-.4,0-.3-.1-.6-.1-.9-.2.6-1.2.1-1.3.1C17.3,55.4,17.8,55.3,18.1,56ZM12.5,45.3c0-.2.5-.4.9-.7a1,1,0,0,0,.6-1.1c.5.4.3.8-.1,1.1S12.8,45.1,12.5,45.3Zm-1-.9-.3.3c-.2.5.4,1.1-.5,1.4,0-.3.4-.3.4-.7-.4-.4-.3-.4.1-.7ZM27.2,47c.3.1.7.2,1,.3l.3,1.2A3.77,3.77,0,0,0,27.2,47Zm-3,10.7c-.1-.5-1.3,0-1.6.3,0-.3.2-.5.5-.7s.6-.3.9-.5a1.31,1.31,0,0,1,.4-.3,1.31,1.31,0,0,1-.4.3c-.2.2.1.5.2.7h.4l-.9.6ZM19.6,44.4a2.59,2.59,0,0,0,1.9.5A2,2,0,0,0,19.6,44.4Zm9.9,8.5c-.4.7-.6.4-.7.1s-.2-.7-.6-.3a4.76,4.76,0,0,0,.3-.7c-.5.5-.4.7-.3.9s.4.5.1.8c.1-.2.3-.3.4-.5.4-.1.4.2.3.5s-.2.7,0,.9a2.21,2.21,0,0,0,.6-1.3C29.7,52.9,29.7,52.6,29.5,52.9Zm-8-8.6c.8.6,1.2.7,1.6.6a1.86,1.86,0,0,1,1.4.2c-.6-.8-1-.9-1.5-.8A7.52,7.52,0,0,1,21.5,44.3Zm-.1,16.9.1.1a9.78,9.78,0,0,0,1.5-.6l-.1-.1A9.78,9.78,0,0,1,21.4,61.2Z"/><path class="cls-2" d="M20,50.5"/><path class="cls-2" d="M12.9,49.2a.19.19,0,0,0-.27,0l0,0Z"/><path class="cls-2" d="M12.6,50.4"/><path class="cls-2" d="M21.3,35.7c-.5.7.4.1.7.2C21.7,35.8,21.6,35.3,21.3,35.7Z"/><path class="cls-2" d="M24,34.8a1.4,1.4,0,0,1-.9.3Q23.4,35.21,24,34.8Z"/><path class="cls-2" d="M21.9,34.8a2.27,2.27,0,0,0,1.3.3C22.8,35,22.6,34.7,21.9,34.8Z"/><path class="cls-2" d="M30.3,37.9c-.6.2-1.1-.5-1.1-.5,1.1,1.3-.7.5-1,.8C29.1,38.6,29.4,38.2,30.3,37.9Z"/><path class="cls-2" d="M32.2,39.2c-.1-.1-.2-.3-.3-.4A1.31,1.31,0,0,0,32.2,39.2Z"/><path class="cls-2" d="M32.3,39.9a2,2,0,0,0,1.5,0c-.2-.8-1.2-.5-1.7-.8C32.5,39.5,32.8,39.7,32.3,39.9Z"/><path class="cls-2" d="M31.9,54.5c0-.1.2-.3-.1-.5l-.4.6C31.3,55,31.7,54.6,31.9,54.5Z"/><path class="cls-2" d="M30.9,57.8c-.5.5-.7-.4-.9,0l.7.8Z"/><polygon class="cls-2" points="34.6 61.3 34.7 61 34.5 61.3 34.6 61.3"/><path class="cls-2" d="M27.5,58.8c0-.4-.1-.8-.1-1.2C27,58.1,27.4,58.9,27.5,58.8Z"/><path class="cls-2" d="M24.9,59l.2-.4a3.29,3.29,0,0,1-1,.6C24.4,59.1,24.6,59.1,24.9,59Z"/><path class="cls-2" d="M22.1,60l-.1-.2c-.3.1-.5.2-.8.3C21.5,60.1,21.8,60,22.1,60Z"/><path class="cls-2" d="M23.2,46.9c.4-.3.2-.6,0-.9s-.7-.5-.8-.7c-.2.6.1.6.4.7a.66.66,0,0,1,.43.83Z"/><path class="cls-2" d="M19.7,49.9a1.94,1.94,0,0,0-.7.2c.3.2.3.2.3.1S19.4,49.9,19.7,49.9Z"/><path class="cls-3" d="M95,15.1c.1,0,.1-.1.2-.1C95,14.9,94.9,14.9,95,15.1Z"/><path class="cls-3" d="M97.5,15.2a3.27,3.27,0,0,0-2.4-.2C95.7,15.3,96.8,16.6,97.5,15.2Z"/><path class="cls-3" d="M94.3,17.5a6,6,0,0,1,.8-.3C94.8,16.7,94.6,17.4,94.3,17.5Z"/><polygon class="cls-3" points="94.9 16.1 95 15.6 94.4 16 94.9 16.1"/><path class="cls-3" d="M58,14.1a1.9,1.9,0,0,0,.3-.8Z"/><path class="cls-3" d="M55.5,16.2a.79.79,0,0,1-.4.1C55.1,16.4,55.3,16.3,55.5,16.2Z"/><path class="cls-3" d="M59.8,14.9l-.3-.2C59.6,14.8,59.7,14.9,59.8,14.9Z"/><path class="cls-3" d="M77.4,19c.1-.5.1-.9.2-1.2C77,17.6,77.4,18.4,77.4,19Z"/><path class="cls-3" d="M48.2,24.7l-.2-.4C48,24.5,48,24.7,48.2,24.7Z"/><path class="cls-3" d="M54.2,23.6V23l-.1.1Z"/><path class="cls-3" d="M60.9,16.2h0l.4-.1C61.1,15.9,61,16,60.9,16.2Z"/><path class="cls-3" d="M46.4,25.8a3.74,3.74,0,0,0,.1,1A3.74,3.74,0,0,0,46.4,25.8Z"/><path class="cls-3" d="M55,16.3"/><path class="cls-3" d="M56.2,23.4c-.1,0-.2.1-.4.1C55.9,23.7,56.1,23.6,56.2,23.4Z"/><path class="cls-3" d="M77.4,19a.63.63,0,0,1-.1.4C77.5,19.3,77.5,19.2,77.4,19Z"/><path class="cls-3" d="M93,13.7c-.3,0-.4.3-.4.6A4.81,4.81,0,0,0,93,13.7Z"/><path class="cls-3" d="M2.8,17.6"/><path class="cls-3" d="M13.1,12.7c0-.1.1-.2.1-.4S13.1,12.4,13.1,12.7Z"/><path class="cls-3" d="M20.4,24.6c-.4-.8-1.4.3-1.8.3l.3-.5-.6.3.2-.8c-.8.2-1.5-.8-2,.4l.3-1.2a6.86,6.86,0,0,0-.8.9l.5-.8a1.28,1.28,0,0,0-1.2.1c-.4.2-.6.5-.7.4l.1-.5c-.1-.2-.2.1-.3.2l.1-.7c-.5.1-.8-.2-1.3-.4a1,1,0,0,0-1.4.2c-.4-.1.1-.3,0-.7-.3-.5-.7.2-.7.5-.2-1.1.5-.9-.3-1.6-.2.6-.1-1-.6-.7l.2,1.4c-.4-.1-.4-1-.9-.7-.3.8,1.3,1.2.5,1.8-.2,0-.8-.6-1.4-1.1s-1.3-.8-1.6-.3c-1.2-.2-.6-2.2-1.6-1.2.1-.4.2-.9.3-1.3-.4-.2-.6-1-1-.4a2.65,2.65,0,0,1-.1,1.6c.6-1.6-1.9-.8-1.5-2.6l-.4.3a.37.37,0,0,0-.1-.3l-.6.3c.2-.5,1-1.1,0-1.8L1,16c-.2-.8-.7-.9-1-1.4a18,18,0,0,1,2-2.9c.1.5-.2,1,.2,1.3,1,0,.2-1.1,1.3-.9v.7c0-.2,0-.4-.2-.4-.4-.2-.3.3-.2.6.6.6,1.1-.3,1.1-.9,1-.4.8,1.2,1.1,1.3,0-1.4,1.6-.6,2-1.4l-.1,1c1.1.7,1.5-.3,1.9-.7V13c.5-.2,1,.2,1.5.4s.7.1,1-1.2v.5c.5.1,1.2.6,1.6-.2,0,.3.1.7.3.7.2-1,.7-.3,1.3-.1-.4.3-.3,1.5-.7,1.8.9,1.3.8-1.4,1.7-1.4.4.7-.5.7-.6,1.2.6-.4,1.2.5,1.6,1s.8.9,1.4-.3l-.4-.9c.6-.5.8-.4.7-.2-.1-.1-.2.1-.3.3,1.1,1.5,2.5-1.3,3.8-.5-.2.4-.5.5-.6.9.5.6,1.2-2.2,1.9-1l-.3.5c.2.4.7-.3.7-.4-.6,2.1,2,.5,1.8,3.3.8-1,2.2-1.6,2.5-.9.3,1.4-.8,1.3-.9,2.5.5.1,1-1,1.5-.4.3-1.2-.8-2.6.6-3v.7c-.1-.1-.2-.4-.4-.3-.5.6,0,.8,0,1.2h1.4c.4-1.2-.5-1.1-.5-1.4,1,.5,1.9,2.6,3.1,2l-.2.4c1.4-.8.3,2.4,1.7.6.5.4-.4,1.3.4,1.5.2,0,.2-.5.1-.6,1-.3.3,1.2,1.3.2l-.3,1.3a10,10,0,0,0,1.7-1.8,6.68,6.68,0,0,1,.6-.8c.2-.2.3-.2.5-.1.2,1-.3,1-.5,1.8A2.13,2.13,0,0,1,39.8,19a3.27,3.27,0,0,0,1.8-1c-.7-.7-.2-2.1-1.2-2.5.3,1.3-.4.7-.7.9a1.1,1.1,0,0,1,0-.8,1.31,1.31,0,0,1,.3-.4c.3-.2.7-.1,1.1-.1.9.1,1.6.3,1.4-.9l.5.9c.2-.2.5-1.1,0-1.3a9.74,9.74,0,0,0,1.7.2c-.4.9-.9,2.9-1.6,2-.1,1.2.8.5.8,1.8.4-1.9.8.5,1.6-.1-.8-1.4.5-2.2.3-2.9.4.2,1-.6,1.2-1.2a4.17,4.17,0,0,1,1.4.2,2.21,2.21,0,0,0,1.6-.1,2.83,2.83,0,0,0-.7,2.1c.4-.6.9-.6,1.1.5-.7,1.1-.9.5-1.1-.2s-.4-1.5-1-.7a3.09,3.09,0,0,1-1.1,2.2c.5.6.4,1,.7,1.8.2-1.4.7-1.5,1.3-1.5s1.2.2,1.8-.5c.4-.8-.1-2.5,1.2-2.8l-1.1-.8c1.3.8.3-.7,1.3-1l-.4.9c.6.2.8,0,1.2-.6a6.84,6.84,0,0,0-.5,1.3c.3.2.9.3,1-.4a2.41,2.41,0,0,1,.1.8c.1-.2.2-.3.6-.3-.2.1-.4,0-.4.4,1.4-.2.2,1.5,1.1,1.4a.7.7,0,0,0,.3.9c.2-2.1,2-2.1,2.7-3.1h0c.3-.1.8-.3,1.3-.5-.3.1-.2.7.1,1l-.1.1c.3.4-1,2.1.2,1.8l.7-.4c-.1,0-.1.4-.1.5l.7-.4c.1,1.1.6.9,1.1.7s1.1-.6,1.4,0c-.2-.2-.7-.2-.7.4.1.3.4.2.7-.1l-.1.2,2.1-.6c-.4.6-1.3.4-1.1,1.3-.1,1,.7.2,1,.2.1-.5-.2-1.2.4-1.3,0,.3.3,1-.1,1.3A5.44,5.44,0,0,0,67.9,17c.1.3-.2.4-.3.5v-.2c-.4.2-.4,1.4-.9.6-.6,1.8.7.8,1.2,1.2a10.43,10.43,0,0,1-1.2,1A1.92,1.92,0,0,0,69,21.5l.29-.1a8.8,8.8,0,0,0,1.5-.5,9.76,9.76,0,0,1,1.3-.4c-.5-.5-.9,0-.8-1.5.9-.7.8-.4,1.7-.7l-.1.1c.5.7.9-.8,1.3.4-.1.8-.7-.7-.5.9a4.17,4.17,0,0,0,1.1-.3c-.2,1-1.1.3-1.5.6-.3,0,.6-.3.3-1.3a.83.83,0,0,0-.6.3,1,1,0,0,0-.4.5,17.17,17.17,0,0,0-.7,1.8c-.4,1.1.6,1.1.8,1.1A4.39,4.39,0,0,1,74,20.6a1.09,1.09,0,0,1,.7-.3,3,3,0,0,1,.9.1,9.44,9.44,0,0,0,1,1c.2-1.2-.7-3.2.2-3.2l.1.9a1.69,1.69,0,0,0,.6.3c-.1.7-.3,1.6-.5,2.4.6.8,1,.4,1.3-.3a15.8,15.8,0,0,1,.7-2c.1.2-.2.4-.1.9,1.5-.2,1.5-2.9,2.2-3.7.8.4-.4.9.4,1.8.2-.7,1.3-.2.8-1.2.7,1.5,1.1-.6,1.1,1.2,2.1-.5,3-2.9,4.9-4.5a2.35,2.35,0,0,0,.3,1.1,1.88,1.88,0,0,0-1.2,2.2c.4.3.4-.1.5-.5s.1-.7.2-.5c-.1.4-.4.6-.1,1.3.8.6.6-.6.9-.9l-.3-.3a3.66,3.66,0,0,0,.4-1.9c.1-.5.2-.9,1-.8.7.9.1.8.3,2,.1-.2.5-.1.8,0s.6,0,.8-.6c-.3-.1-.5,0-.8-.1.5-.4,1.1-.4,1.5-.7-.1.3-.1.5-.2.6.5-.3,1.1-.3,1.4-1l-.1,1.3c-.2-.6-1-.8-1.2-.1,0,1.1.8.4,1.1.6-.8,0-1.2.7-1.5,1.1-.2.2-.3.4-.5.4s-.3.1-.6-.1l.1-.4c-.4-.4-.8-.3-1,.1s-.4.9-.7.9a1.88,1.88,0,0,1,.4.9,2.38,2.38,0,0,0-2,.2,9.33,9.33,0,0,0-1,.5,7.41,7.41,0,0,1-1.2.5l.2,1.3-.6-.8c-1,.1.6,1.2,0,1.5.2-.1.1-.2,0-.5-.3,1.5-1-.4-1.3.2-.3-1,.8-1-.2-1.9-.3,1.5-2.1,1.9-1.1,4a6.36,6.36,0,0,0-1.8.6c-.6.3-1.1.7-1.8,1.1a18.42,18.42,0,0,1-1.8,1.1,6.8,6.8,0,0,1-1.8.7c-.4-.4.1-.3,0-.6-.3.7-1.1.6-1.8.4s-1.1-.5-1.1.1c-.4-.3-.6-1.2-.7-1.5a3.27,3.27,0,0,1-1.8,1l.5-.3V26l-.7.4v.1a22.55,22.55,0,0,1-2.6,0,4.86,4.86,0,0,0-2.6.5c1-.5.2-1.4.7-1.8-1.2,1.7-3,1.2-4.1.5a3.09,3.09,0,0,1,.4-1l-1,.5.3-.4c-1.1-.8-3,.8-3.4-.3.5-.1.6-.4.9-1a3.94,3.94,0,0,0-2.4-.1c.1-.1.1-.2.2-.4-.2-.2-.5.2-.8.4l.2-.9c-.5.4-1-.2-1.5.5,0-.5-.4-.3-.7,0s-.7.7-1,.5c-.2.2.5-1.1-.1-1,0,2-.8.1-.7,2.3-.2-.3-.3-.5-.5-.8v1.1c-.3-1-.5-.8-.6-.3s-.3,1.1-.7.8c0-.2.1-.3,0-.5-.2.3-.7.5-.2,1-.4,0-1.5.8-1.2-.4.1.6.5,0,.7-.3-.2-.9-.7-.4-1.1-1.4a.63.63,0,0,1-.1.4l-.2-.6a2,2,0,0,1-.9.9,1.24,1.24,0,0,0-.4,1.1c-.1-.3-.3-.5-.5-.3l.4,1.1c-.2.1-.4.1-.6.2a8.24,8.24,0,0,1-.4-1.7c-.4,0-.6.5-.8,1.1a3.24,3.24,0,0,1-.2.8,1.84,1.84,0,0,1-.5.7c-.4-.9-1-.5-1.6,0a5.12,5.12,0,0,1-1.3.6,1.37,1.37,0,0,1-1.3-.4c.4-.2.7-.5,1.1-.7a4.82,4.82,0,0,1-1.5.3,4.63,4.63,0,0,1-1.1-.2,3.75,3.75,0,0,0-2.1,0,5.15,5.15,0,0,0,1.7.6c.6.1,1.2.5,3,1a7.73,7.73,0,0,0-2.2.1,4.22,4.22,0,0,0-1,.2c-.3.1-.6.1-.8.2a3.28,3.28,0,0,1-2.9-.4c.2-.5.7-.7.3-1.2-.5,1-1.6-.3-1.6.9-.5-.5-.4-1.6-.6-1.8l-2,1.1.1-.2c-1.1-1.6-2.2-1.5-3.7-1.1s-3.1.8-4.3-.1l.2-.6c-.3.2-.6.5-.9.7.7-.4,0-.8.1-1.4-.7.3-1.4.6-2,.9C19.6,25.4,20.1,24.3,20.4,24.6Zm25.4.8.3-.2c.1,0,.1,0,.2-.1l-.2.1C45.9,25.1,45.6,24.7,45.8,25.4Zm35.7-2.2c-.2.2-.4.3-.6.5.2,0,.5-.6.6,0C81.5,23.6,81.7,23.4,81.5,23.2ZM42.8,18.1l.1-.7.5.7Zm-4.5,1.5a2.29,2.29,0,0,1,.3-.5l.1.2a1.76,1.76,0,0,1-.4.5Zm-7,5.8.1-.1a.09.09,0,0,0-.1.1c-.6.5-.5-1-1.1.3C30.4,27,30.9,25.8,31.3,25.4Zm13.3-1.3c.3.7-.2,1-.1,1.6-.3-.1-.2-.8-.3-1.3q-.15,0-.3.3C43.3,23.1,44.5,25,44.6,24.1Zm9.9-1.7h0a.93.93,0,0,1,.4-.6Zm2.1-.4c.5-1,1.1-.6,1.6-.7-.1.9-.9,1.7-1.3,1.5C56.1,23.4,56.9,21.4,56.6,22Zm-20,2.5c.2-.1.5-.7.8-1a.7.7,0,0,1,.94-.32.68.68,0,0,1,.26.22l-.7.5.2.1-.2.7c.1-1-.2-1-.5-.8S36.8,24.5,36.6,24.5ZM61.2,23c.7-.4,1.9-.8,2-1.5-.4,1.3-1.4,1.6-1.6,1.5C61.6,22.9,61.5,22.9,61.2,23Zm.7-1.4c-.2-.2.2-1-.5-.6-.2.7-1,2.3-1.4,1.5.9-1,1.2-1.6,2.1-1.9Zm-1.8,2.3-.2-.3c-.1-.6.3-2.1-.7-.8l.7.8C59.9,23.8,59.9,23.9,60.1,23.9Zm6.6,2-.5.4c.4,0,.5-.2.5-.4l.4-.3C66.4,24.9,66.7,25.5,66.7,25.9Zm-6-2.1.9.2C61.4,23.7,61,23.2,60.7,23.8Zm6,.9a5.55,5.55,0,0,0-1.3-.5C65.3,24.9,66.4,25,66.7,24.7Zm19.6-6.1-.7-.7.4-.3Zm-5.6,1.9-.3.2-.4-.3Zm-6.4,1.9a1.66,1.66,0,0,1,.1.7.52.52,0,0,0-.2.4c.1,0,.2-.2.2-.4a.65.65,0,0,1,.9.1c0,.5-.4.4-.6.8.4.5.8-.1,1.1-.5s.5-.5.7,1.1c.2-.5.8-1.5.4-2a2.45,2.45,0,0,1-2.6-.2c0-.2-.1-.3-.2-.3S74.2,22.3,74.3,22.4Zm-8-1.3c-.2,0-.4.1-.4.2a1.44,1.44,0,0,0-.6.9c.6-.2.4-.7.6-.9A.76.76,0,0,1,66.3,21.1Zm.4-1.4a17,17,0,0,1-1.4,1l.6-.6-.9.4C65.4,19.7,66.3,19,66.7,19.7Zm-1.8.1-.4.7.4-.7h0l.1-.2H63.7A2.6,2.6,0,0,0,64.9,19.8ZM52.2,18.4c-.6-2.7,1.1-1.9,1.5-3.2,0,.9.4,2.3-.8,2.2,1,.9.8-1.7,1.3.6-.5-.2-1.1.5-1.2.5l.6.1C53.1,20.3,52.6,17.8,52.2,18.4Zm-6.5.4-.7.4.7-.3Zm-18.6-.1c.2-.6-.5-1.9-1-.9C26.5,18.1,27.1,18.2,27.1,18.7Zm-8.1-2,1-.3c.2-1.4-.8-.1-1.2-.5C18.5,16.6,18.9,16.2,19,16.7Zm-5.9-.5-.3.3a6.06,6.06,0,0,1,.2-1.4Zm.9-2.8a.62.62,0,0,0-.67.57.75.75,0,0,0,.07.33ZM7.7,15.7l-.1-1.3-.4.1Zm.7.7a1.17,1.17,0,0,0-.1-.8c.1-.4.4-.6.9-.4.1.6-.2.3-.4.5.2,0,.5.3.8,0-.7-1-.4-1-.7-1.9-1.2-.3-.7.9-.5,1.8C8.2,15.9,8.3,16.1,8.4,16.4Zm3.4-.7c.1.1.3.2.3.3v-.2c-.1-.4-.2-.2-.3-.1a.72.72,0,0,0-.5-.2c-.3-.8.3-1.4.4-1.9-.3.3-.4,1.1-.9.7,0-.2-.1-.4.2-.4l-.6-.1c-.4,1.2.3,1.4,1,1.7a1.22,1.22,0,0,0,.3.5C11.7,16.1,11.7,15.9,11.8,15.7ZM8.3,17.5c0,.2.2.5.2.8l-.2.3a.66.66,0,0,1-.2-.9A.64.64,0,0,1,8.3,17.5Zm15.8,2.1c-.1-.3.6-1.1.9-.7l.1-1.2c-.2.8-1,.4-1.1.5C23.6,19.1,24,18.8,24.1,19.6Zm20.4-.5c-.1.4-1.4-.1-1,1.4C42.5,19.1,43.9,19,44.5,19.1Zm.6,1.6a.3.3,0,0,1,.2-.1c.2-.4-.1-1.5.6-1-.1.3-.4,0-.4.3.2.7.1.6-.1.7A.37.37,0,0,1,45.1,20.7ZM33.7,22.5l-.6,1c-.2-.1-.4-.1-.6-.2Zm-6.9.6a.44.44,0,0,0-.23-.58.43.43,0,0,0-.47.08c.2-.8.7-.6,1.1-.6a.37.37,0,0,1,.3-.1c-.1,0-.2.1-.3.1a1.37,1.37,0,0,0-.2.9l.1.3-.6.1ZM16.1,21.3c-.2-.7-.3-.4-.5-.2a.29.29,0,0,0,.25.31A.27.27,0,0,0,16.1,21.3Zm14,3.2c-.6-.6.6-1.2.2-1.7l.3.2c-.4-1-.6.8-1,.5l.2.2c0,.8-.5.4-.7,1C29.5,25.2,30.3,24.8,30.1,24.5ZM15.6,21.7c-.5-.9-.5.8-.7,1C15.2,23.4,15.2,21.9,15.6,21.7Zm8.8,4.5v.2l.7-.3v-.2Z"/><path class="cls-3" d="M15.2,13.4a.45.45,0,0,0-.5,0Z"/><path class="cls-3" d="M45.6,14.7a1.31,1.31,0,0,0,.3.4C45.9,14.9,45.8,14.8,45.6,14.7Z"/><path class="cls-3" d="M47,13.8"/><path class="cls-3" d="M92.6,12.7c.4-1-.3-.2-.6-.2C92.3,12.5,92.3,13.2,92.6,12.7Z"/><path class="cls-3" d="M90.6,14.4a.9.9,0,0,1,.6-.6Q90.9,13.65,90.6,14.4Z"/><path class="cls-3" d="M92.2,13.9a1.69,1.69,0,0,0-.5-.2.87.87,0,0,0-.5.1C91.4,13.8,91.6,14.1,92.2,13.9Z"/><path class="cls-3" d="M85.7,15.7a.62.62,0,0,1,.53-.69h.07c-1.4,0-.3-1.2-.4-1.7C85.3,14,85.7,14.7,85.7,15.7Z"/><path class="cls-3" d="M84.5,16.8c.1-.1.2-.1.4-.1C84.7,16.7,84.6,16.7,84.5,16.8Z"/><path class="cls-3" d="M83.8,16.5c-.3.4,0,1,.1,1.6.7.2.3-1,.6-1.3C84.2,17,84,17.2,83.8,16.5Z"/><path class="cls-3" d="M72.5,17.9c.1-.1.3-.1.2-.5h-.6C72,17.6,72.4,17.8,72.5,17.9Z"/><path class="cls-3" d="M70.3,19.8c-.5,0-.1-1-.4-.8l-.1,1.3C69.9,20.1,70.1,20,70.3,19.8Z"/><polygon class="cls-3" points="70.1 26.6 70.3 26.5 70 26.5 70.1 26.6"/><path class="cls-3" d="M68.2,18.1c.2-.5.4-.9.6-1.4A2.22,2.22,0,0,0,68.2,18.1Z"/><path class="cls-3" d="M66.7,16.7c.1-.1.3-.2.4-.4-.3.1-.6.1-1,.2Z"/><polygon class="cls-3" points="64.3 16.6 64.3 16.3 63.5 16.4 64.3 16.6"/><path class="cls-3" d="M36.1,18.5c-.1.6.1.8.4.9s.6,0,.7.2C37.1,18,36.4,20.2,36.1,18.5Z"/><path class="cls-3" d="M16.3,14c.4-.1.9-.1,1.3-.2C16.7,13.2,17.3,13.8,16.3,14Z"/><path class="cls-4" d="M40.3,41.8h-.1C40.2,41.9,40.2,41.9,40.3,41.8Z"/><path class="cls-4" d="M39.1,41.5a.85.85,0,0,0,1,.3C40,41.6,39.9,40.7,39.1,41.5Z"/><path class="cls-4" d="M41.4,40.4l-.5.1C40.9,40.8,41.2,40.4,41.4,40.4Z"/><polygon class="cls-4" points="40.7 41.2 40.4 41.5 40.8 41.3 40.7 41.2"/><path class="cls-4" d="M53.8,53.5a1.69,1.69,0,0,0-.3.6Z"/><path class="cls-4" d="M55.2,52.1h.2C55.4,52,55.3,52,55.2,52.1Z"/><path class="cls-4" d="M53.2,53.1l.1.1A.09.09,0,0,0,53.2,53.1Z"/><path class="cls-4" d="M45.8,47.6a4.25,4.25,0,0,0-.7.5C45.2,48.5,45.6,47.9,45.8,47.6Z"/><path class="cls-4" d="M60.6,47.7l-.1.3A.37.37,0,0,0,60.6,47.7Z"/><path class="cls-4" d="M57.4,47.1a.79.79,0,0,0-.1.4l.1-.1Z"/><path class="cls-4" d="M52.9,52.2h0l-.2.1C52.8,52.4,52.8,52.4,52.9,52.2Z"/><path class="cls-4" d="M61.7,47.6,62,47A.61.61,0,0,0,61.7,47.6Z"/><path class="cls-4" d="M55.5,52.1h0C55.5,52,55.4,52.1,55.5,52.1Z"/><path class="cls-4" d="M56.3,47c.1,0,.1,0,.2-.1S56.4,46.9,56.3,47Z"/><path class="cls-4" d="M45.8,47.6l.2-.2Z"/><path class="cls-4" d="M40.5,42.9c.1.1.2-.1.4-.3A1.31,1.31,0,0,1,40.5,42.9Z"/><path class="cls-4" d="M77.7,57.2"/><path class="cls-4" d="M73.3,57.9c0,.1-.1.2-.1.3A.41.41,0,0,0,73.3,57.9Z"/><path class="cls-4" d="M70.3,49.6c.2.5.6-.4.8-.4l-.1.4.3-.3-.1.6c.4-.2.8.4,1-.5l-.1.9.5-.7-.3.6c.4.2,1.1-.4,1.2-.4l-.1.3c.1.2.1,0,.2-.2l-.1.5c.7-.1.8,1.1,1.5.6.2.1-.1.2-.1.5s.4,0,.4-.2c-.1.8-.4.5-.2,1.2.2-.4-.2.7.2.6l.2-1c.2.2,0,.8.3.7.3-.4-.3-1.2.2-1.3.2.1.4,2.4.9,1.9.4.5-.3,1.6.3,1.4l-.4.7c.1.3,0,.8.3.6a3.33,3.33,0,0,1,.4-1c-.6.8.5,1.2,0,2.2h.2v.2l.3.1c-.2.2-.6.3-.4,1.1l.4.2a5.65,5.65,0,0,0,0,1.3l-1.2,1.1a3.09,3.09,0,0,0,.2-.9c-.3-.3-.3.6-.6.1l.1-.5c0,.2-.1.2,0,.3.1.3.2,0,.2-.3-.1-.6-.4-.2-.5.2-.4-.1,0-1.1-.1-1.2-.2,1-.6,0-.9.4l.2-.6c-.3-.8-.5-.2-.7,0l.1-.5c-.4.1-.5-1.7-.9.1l.1-.3c-.2-.2-.4-.6-.6,0,0-.2,0-.5-.1-.6-.1.7-.3.2-.5,0,.2-.2.2-1.1.4-1.3-.3-1-.4,1-.7,1-.1-.5.2-.5.3-.8-.5.5-.7-2.2-1.2-.4l.1.6c-.3.1-.5.1-.4-.1.1.1.1-.1.1-.3-.4-1-1,1.3-1.6.8a1.94,1.94,0,0,0,.2-.7c-.2-.4-.5,1.7-.8,1l.1-.4c-.1-.3-.3.3-.3.4.2-1.6-.9-.1-.9-2.1-.3.8-1,1.4-1.1.9-.1-1,.4-1,.5-1.9-.2,0-.5.8-.7.4-.2.9.3,1.9-.4,2.2v-.5c0,.1.1.3.2.2.3-.5,0-.6,0-.8l-.7.1c-.2.9.2.8.2,1-.5-.3-.8-1.7-1.3-1.2l.1-.3c-.7.7,0-1.7-.7-.4-.2-.3.3-.9,0-1.1-.1,0-.1.3-.1.4-.5.2,0-.9-.6-.2l.3-.9c-.6.5-1.6,2.1-1.9,1.6.3-.6.5-.5.8-1-.9,1.2-1.4-.2-2.1.4,0,.7-.7,1.4-.5,2,.4-1,.4-.4.6-.4-.9,2-.9-1.3-1.5.4l.1-.7c-.1.1-.5.6-.4.8l-.5-.7c.4-.5,1.2-1.6,1.1-.8.4-.7-.1-.6.3-1.4-.8,1.1-.1-.6-.5-.4-.2,1.1-.8,1.3-1,1.8-.1-.2-.5.2-.7.5-.3,0-.5-1-1-.8a2.64,2.64,0,0,0,.8-1.3c-.3.3-.5.2-.3-.5,1.1-1.2-.4,1.8.5,1.1a2.55,2.55,0,0,1,1-1.2,11.26,11.26,0,0,1,.3-1.4c-1,1.7-1-.1-1.7.6-.4.5-.7,1.7-1.2,1.7l.2.7c-.2-.7-.3.5-.7.6l.4-.5c-.2-.2-.3-.1-.6.3l.5-.8c-.1-.2-.2-.4-.4.2.1-.2.1-.4.2-.6-.1.1-.2.2-.3.1.1-.1.2,0,.3-.3-.6,0,.3-1-.1-1.1a1.55,1.55,0,0,0,.1-.6c-.6,1.4-1.3,1.4-1.7,2.1h0l-.7.4a.83.83,0,0,0,.1-.7h0c0-.3.8-1.5.2-1.2l-.4.3c.1,0,.1-.3.1-.4l-.4.3c.3-1.5-1,.5-1.1-.3.1.2.3.1.4-.3,0-.2-.2-.1-.3.1l.1-.1a10.9,10.9,0,0,0-1.1.5c.3-.4.7-.3.8-.9s-.3-.1-.5-.1c-.2.4-.1.8-.4.9.1-.2,0-.7.2-.9-.4.3-.9.3-1.4.8a.32.32,0,0,1,.3-.3v.1c.3-.1.5-.9.6-.4.6-1.2-.3-.5-.4-.8l.8-.6c.1-2-1.6-.7-2.3-1,0,.5.3.2-.2,1.1-.7.2-.5,0-1,0h.1c0-.6-.8.2-.4-.7.4-.4,0,.6.6-.4a6,6,0,0,0-.7-.4c.5-.5.6.2.8.2s-.3,0-.6.7c.5.2,1-.4,1.7-1.2.5-.6.2-.8.1-.9-.9.9-1.6,1.1-1.8.4l.2-.9c-.6.6-1.3,2-1.7,1.5l.5-.5v-.4l1.3-1c.5-1.3-1,.2-1.5.2.1-.1.2-.1.5-.3-.4-.6-1.8.4-2.3.3.2-.6.6-.1.9-.9-.3.2-.1-.6-.6,0,.7-.9-.4-.4.6-1-.4-.9-1.8-.5-2.9-.5.2-.3.4-.5.5-.7.2.2.8.2,1.4-.4.2-.6-.8.4-.7.1s.4-.1.7-.5c.2-.7-.5,0-.7,0l-.1.3c-.9.2-1.5,1.3-1.8.7.2-.7.3-.5.9-1.2-.3.2-.1-.8-.8-.1.1.1.2.2.2.3-.3,0-.4-.2-.8,0l.3-.3c-.3.1-.5-.1-.9.3l.5-.8c-.2.4.1.7.4.3.5-.7-.1-.5-.2-.6.7.2,1.6-.9,1.7-.1l-.3.2c0,.7,1,0,1.2.2a.81.81,0,0,1,.4-.6c.1,1,1,.9,1.4,1.7l.7-.6-.4.6c.1.5.6-.8.8-.6-.1-.1-.1,0-.3.2.8-.5-.1.6.2.6-.5.6-.5,0-1,.9.8-.4,1.1.3,2.1-1.1.3,1,1.7.6,2.4.8-.1.3-.2.2-.3.4.7-.7.5,1,.9.3,0,.3-.3.9-.3,1.1a1.38,1.38,0,0,1,.9-.4l-.3.1v.1l.4-.2v-.1c.6,0,1.1.5,1.9-.1-.5.4-.4,1-.7,1.2.8-1.1,1.4-.8,1.7-.5-.1.3-.1.5-.3.7l.5-.4-.2.3c.4.4,1.5-.8,1.5,0-.2,0-.3.3-.5.7a1.66,1.66,0,0,0,1.2,0c-.1.1-.1.2-.2.3.1.1.3-.1.5-.2l-.2.6c.3-.2.5.2.9-.2-.2.8.8-.4,1,0,.1-.2-.6.6-.2.7.6-1.4.4.1,1-1.4l.1.7.2-.8c-.3,1.5.6-.5.7,0,0,.2-.1.2-.1.3.1-.1.4-.1.4-.6.2.1.9-.1.3.6.2-.4-.2-.1-.4,0-.2.7.2.5,0,1.3,0-.1.1-.2.2-.3l-.1.4c.6-.6.7,0,1.3-.9-.1.2,0,.4.1.4l.3-.8.3.1-.6,1.2c.3.4,1-.9,1.4-1.1-.3,1.4.8-.3.7,1l-.4.3c.6-.1.5.7,1.1.4a3.35,3.35,0,0,1-.7-1.6c.5.7,1.2-.5,1.6.4-.1.4-.3.5-.2.9.3-.7.5.2.6-.7a5.65,5.65,0,0,1,0,1.3l.8-.9-.1.2c.6,2.2,2.1-1,3,0l-.1.5.4-.6c-.3.4,0,.6,0,1l.8-.9C70.6,48.9,70.5,49.8,70.3,49.6Zm-8.6-1.5h-.2c0-.1,0-.1-.1,0h.1C61.6,48.2,61.6,48.6,61.7,48.1ZM47.4,43.7h.3c0-.1-.3.1,0-.2C47.6,43.6,47.5,43.5,47.4,43.7Zm12.9,9.9L60,54l.1-.6Zm2.1.7-.3.3v-.1l.3-.3Zm3.7-4.1a.09.09,0,0,1-.1.1.09.09,0,0,0,.1-.1c.3-.4.1.7.5-.3C66.6,49,66.3,49.9,66.1,50.2Zm-4.4-.9c.2-.6.5-.6.7-.9a3,3,0,0,1-.4.9c0,.1.1,0,.2-.1C61.8,50.4,62.1,48.8,61.7,49.3ZM57,47.9h0l-.3.4Zm-1.1.1c-.4.7-.7.5-.9.5.2-.6.7-1.2.9-1.1C56.3,47.1,55.6,48.4,55.9,48ZM64,51c-.2.2-.7,1.4-.9.7l.3-.3v-.1l.2-.5C63.2,52.1,63.9,51,64,51ZM53.8,47.5c-.4.4-1,.7-1.2,1.2.4-.9.9-1.2,1-1.1S53.7,47.6,53.8,47.5Zm-.5,1c0,.2-.3.7.1.4.2-.5.8-1.6.9-1.1-.6.7-.8,1.2-1.3,1.4Zm1.1-1.7.1.2c0,.4-.5,1.5.2.5l-.2-.5C54.5,46.9,54.5,46.8,54.4,46.8Zm-2.3-1,.3-.3q-.15,0-.3.3l-.2.2C52,46.4,52,46.1,52.1,45.8Zm2,1.1a.63.63,0,0,1-.4-.1C53.8,47.1,53.9,47.4,54.1,46.9Zm-2.3-.3.4.4C52.4,46.5,52,46.4,51.8,46.6Zm-7.2-3.5-.3.6h-.2Zm1.5,2.2h.1l-.1.3ZM48.3,47a1.31,1.31,0,0,1,.3-.4c.1,0,.1-.1.2-.2l-.2.2c-.2,0-.3-.1-.2-.3s.3-.1.5-.3c.1-.9-1.5,1-.2-1-.2.2-.8.6-.9,1,.3,0,.5.5.5,1a.19.19,0,0,0,0,.27l0,0Zm2.9,2a.35.35,0,0,0,.2-.1.93.93,0,0,0,.4-.6c-.3.2-.3.5-.4.6A.3.3,0,0,1,51.2,49Zm-.5,1,.9-.7-.4.4.5-.3C51.3,50,50.7,50.5,50.7,50Zm.9-.1.3-.5-.3.5h0l-.1.1.6-.1ZM57.1,51c-.5,1.9-.9,1.1-1.4,2,.2-.6.4-1.6.9-1.4-.2-.8-.7,1.1-.4-.5.2.2.6-.2.6-.2l-.2-.2C57.2,49.5,56.8,51.3,57.1,51Zm2.4,1.3.4-.1-.3-.1Zm8,2.4c-.1.5.2,1.3.4.5C67.8,55,67.5,55,67.5,54.7Zm3.6.4-.4.3c-.1,1.1.3,0,.5.2C71.3,55.1,71.1,55.4,71.1,55.1Zm2.5.2.1-.2-.2,1Zm-.6,2c.1.1.3-.1.3-.6Zm2.6-.6-.2.9.2.1Zm-.2-.6a.74.74,0,0,0-.1.5c-.1.2-.2.3-.4,0,0-.5.1-.2.2-.3-.1-.1-.1-.4-.3-.2a7.52,7.52,0,0,1,0,1.5c.4.5.4-.4.4-1.1C75.4,56.5,75.4,56.3,75.4,56.1ZM74,55.8c0-.1-.1-.2-.1-.3v.2c0,.3.1.2.1.1,0,.1.1.2.2.3a3.29,3.29,0,0,1-.4,1.3c.1-.2.3-.7.4-.4s0,.3-.1.3l.2.1a1.27,1.27,0,0,0-.1-1.4v-.4C74.1,55.6,74.1,55.7,74,55.8Zm1.7-.4a1.23,1.23,0,0,1,.1-.6l.1-.2A1,1,0,0,1,75.7,55.4Zm-6.9-1.7c.1.2-.2.8-.4.6v.9c.1-.6.4-.4.5-.5C69.1,53.9,68.9,54.3,68.8,53.7Zm-8.7-1.3c.2-.2.4.5.8-.5C60.7,53.1,60.2,52.7,60.1,52.4Zm.3-1.2h-.1c-.2.2-.5,1-.5.5.1-.2.1.1.3-.1C60.3,51.1,60.3,51.2,60.4,51.2Zm4.5,1.2.3-.7.2.1Zm2.9-.9c-.1.5.2.5.3.3-.1.6-.3.5-.5.5l-.1.1.1-.1c.1-.1.1-.4.1-.7l.1-.1.1-.1Zm4.6,0c.1.5.2.3.3.2C72.7,51.4,72.6,51.4,72.4,51.5Zm-5.9-.8c.2.4-.3.9-.2,1.2l-.1-.1c.1.7.3-.6.4-.4l-.1-.1c0-.6.3-.4.4-.8C66.8,50.2,66.4,50.6,66.5,50.7Zm6.2.5c.2.6.3-.6.5-.7C73,49.9,73,51,72.7,51.2ZM68.8,49v-.1l-.3.3v.1Z"/><path class="cls-4" d="M72.6,57.3c.1.1.1.1.2,0Z"/><path class="cls-4" d="M58.3,55Z"/><path class="cls-4" d="M57.6,55.1"/><path class="cls-4" d="M40.2,43.7c-.6.5,0,.2.1.2C40.2,43.8,40.5,43.4,40.2,43.7Z"/><path class="cls-4" d="M41.6,43.1c-.2.1-.3.2-.5.2C41.1,43.4,41.3,43.4,41.6,43.1Z"/><path class="cls-4" d="M40.9,43c0,.2.1.3.2.3C41,43.3,41.2,43,40.9,43Z"/><path class="cls-4" d="M43.2,44.6c-.4.3-.4,0-.4,0,.2.7-.6.6-.8.9C42.3,45.5,42.6,45,43.2,44.6Z"/><path class="cls-4" d="M43.9,44.7a.35.35,0,0,1-.1-.2C43.8,44.7,43.8,44.7,43.9,44.7Z"/><path class="cls-4" d="M43.8,45.2c.2,0,.6-.4.8-.7,0-.4-.5.2-.7.2C44,44.8,44.1,44.8,43.8,45.2Z"/><path class="cls-4" d="M47.3,50.3c-.1,0-.2,0-.3.2l.3.2C47.5,50.6,47.3,50.4,47.3,50.3Z"/><path class="cls-4" d="M49,49.6c.2.1-.2.7,0,.6l.4-.9Z"/><polygon class="cls-4" points="51.2 45.1 51.1 45.2 51.2 45.2 51.2 45.1"/><path class="cls-4" d="M49.6,51l-.6.9C49.2,51.8,49.6,51,49.6,51Z"/><polygon class="cls-4" points="50.1 52.1 49.8 52.3 50.4 52.3 50.1 52.1"/><polygon class="cls-4" points="51.4 52.1 51.3 52.4 51.7 52.2 51.4 52.1"/><path class="cls-4" d="M63.3,55.3c.3-.9-.3-.6-.4-.9C62.8,55.6,63.4,54.1,63.3,55.3Z"/><path class="cls-4" d="M72.2,56.8l-.5.2C72,57.4,71.8,57,72.2,56.8Z"/><path class="cls-4" d="M43.2,72.1h0C43.1,72.2,43.2,72.2,43.2,72.1Z"/><path class="cls-4" d="M42.1,72.5a1.34,1.34,0,0,0,1-.3C42.8,72,42.3,71.4,42.1,72.5Z"/><path class="cls-4" d="M43.3,70.3l-.3.3C43.1,70.9,43.1,70.4,43.3,70.3Z"/><polygon class="cls-4" points="43.1 71.3 43.1 71.7 43.3 71.3 43.1 71.3"/><path class="cls-4" d="M60.9,73.2c0,.2.1.4.1.6Z"/><path class="cls-4" d="M61.1,71.3c0-.1.1-.1.1-.2S61.1,71.1,61.1,71.3Z"/><path class="cls-4" d="M60.1,73.3Z"/><path class="cls-4" d="M51,73.5a6,6,0,0,1-.3.8C51,74.6,51,73.9,51,73.5Z"/><path class="cls-4" d="M62.1,64.5l.2.3C62.2,64.6,62.2,64.5,62.1,64.5Z"/><path class="cls-4" d="M59.5,66c.1.2.1.3.2.4v-.1Z"/><path class="cls-4" d="M59.4,72.8h0l-.1.2C59.4,73.1,59.4,73,59.4,72.8Z"/><path class="cls-4" d="M62.8,63.7a2.44,2.44,0,0,0-.2-.7A1.94,1.94,0,0,0,62.8,63.7Z"/><path class="cls-4" d="M61.2,71.1"/><path class="cls-4" d="M58.7,66.7c0-.1.1-.1.1-.2S58.7,66.5,58.7,66.7Z"/><path class="cls-4" d="M51,73.5c0-.1.1-.2.1-.3S51,73.3,51,73.5Z"/><path class="cls-4" d="M44,72.9c.1,0,.1-.2.2-.5C44.1,72.5,44.1,72.6,44,72.9Z"/><path class="cls-4" d="M79.6,57.7"/><path class="cls-4" d="M77.8,61.9c0,.1.1.1.2.2S77.9,62.1,77.8,61.9Z"/><path class="cls-4" d="M69.5,59.2c.5.2,0-.7.1-.8l.2.3-.1-.4.4.4c0-.4.7-.3.1-1l.7.7-.3-.7.3.6c.4-.2.3-1.1.3-1.1l.2.2c.2.1,0-.1,0-.2l.4.4c.2-.5,1.3,0,1.2-.8.2-.1.1.2.3.4.4.2.2-.3.1-.4.6.5.2.6.9.8-.2-.4.5.5.6.2l-.8-.7c.2,0,.7.4.7.2-.2-.5-1.2-.4-1-.8.2-.1,2.3.9,2,.2.7-.1,1.3,1,1.3.4l.4.7c.3.1.7.4.7.1-.3-.3-.7-.7-.6-.8.4.9,1.3.2,1.9,1.1l.1-.2a.35.35,0,0,0,.2.1l.2-.2c.1.3,0,.7.7.9l.4-.3a3,3,0,0,0,1.1.6c.1.5.2,1.1.3,1.7-.3-.2-.4-.5-.7-.6-.4.1.4.6-.2.6l-.3-.4.2.2c.3.1,0-.2-.2-.3-.6-.2-.4.3-.1.6-.3.3-.9-.5-1.1-.5.7.7-.4.6-.1,1l-.4-.5c-.8-.2-.5.4-.4.7l-.4-.4c-.2.4-1.7-.5-.4.9l-.2-.2c-.2,0-.7,0-.4.5-.2-.6-.4-.7-.5-.7.5.5,0,.3-.3.4,0-.2-.8-.8-.9-1.1-.9-.3.6.9.4,1.1-.5-.2-.3-.5-.5-.7,0,.7-2.2-.7-1.1.7l.6.3c.2.4.1.5,0,.3.1,0,0-.1-.1-.3-1.1-.3.4,1.6-.3,1.8a3,3,0,0,0-.4-.6c-.4-.1,1.1,1.5.2,1.3l-.2-.4c-.3-.1,0,.4.1.5-1.1-1.2-.7.7-2.2-.6.4.8.4,1.7-.1,1.4-.8-.6-.5-.9-1.1-1.6-.2.1.3.9-.1.8.5.7,1.6,1,1.4,1.8l-.4-.3c.1,0,.3.1.3,0-.2-.5-.4-.4-.6-.6l-.3.6c.5.8.7.4.9.5-.5.2-1.8-.6-1.8.2l-.4-.3c0,1-1.2-1.2-.8.3-.3-.1-.5-.9-.8-.7-.1.1.2.3.2.4-.2.5-.6-.6-.5.3l-.4-.9c0,.8.4,2.6-.2,2.4-.4-.7-.1-.7-.3-1.3.2,1.5-1.1.8-1.2,1.7.4.5.4,1.5,1,1.8-.4-.9.1-.4.2-.6.4,1-.1,1-.5.8s-.8-.3-.4.5l-.4-.7c0,.1,0,.7.3.9l-.8-.1c0-.6-.2-2,.3-1.3-.2-.8-.5-.4-.7-1.3.2,1.3-.4-.4-.7,0,.6.9.2,1.5.5,2-.2-.1-.3.5-.2.9-.2.2-1-.4-1.3.1a2.85,2.85,0,0,0-.2-1.5c0,.4-.2.5-.6-.2.1-1.6.9,1.7,1.1.6-.2-.9-.2-1.2,0-1.6-.25-.39-.49-.79-.7-1.2.4,2-.8.5-.9,1.6,0,.6.6,1.7.2,2.1l.6.4c-.6-.3.1.6-.2.9l-.1-.6c-.3,0-.3.1-.3.6l-.2-1c-.2-.1-.4-.1-.2.4a1.69,1.69,0,0,1-.2-.5c0,.2,0,.3-.1.3s.1-.1,0-.4c-.4.4-.5-1-.8-.8,0-.2-.2-.5-.4-.5.5,1.5-.1,1.8,0,2.7h0l-.3.7c.1-.1-.2-.5-.3-.6h0c-.2-.2-.3-1.7-.6-1.1l.1.3c0-.1-.1-.3-.1-.4l-.1.5c-.7-1.3-.4,1-1,.4.1.1.2-.1,0-.5-.1-.2-.2,0-.2.3v-.2l-.6,1.1c-.1-.5.4-.7,0-1.2-.3-.7-.3.1-.5.2.1.4.5.7.2,1,.1-.2-.3-.6-.2-.9a4.84,4.84,0,0,0-.6,1.6.47.47,0,0,1,0-.4v.1c.1-.3-.2-1,.2-.7-.3-1.3-.5-.2-.9-.4l.3-1c-1.1-1.6-1.7.5-2.4.6.3.4.4,0,.5,1-.4.6-.4.3-.8.6v-.1c-.3-.5-.5.6-.8-.3,0-.6.4.5.3-.7l-.5.3c.1-.7.6-.2.8-.3s-.3.2-.1.9c.5-.1.6-.9.7-2,0-.8-.4-.8-.5-.8-.1,1.3-.6,1.9-1.2,1.4l-.4-.8c-.2.8.1,2.4-.4,2.2l.1-.6q-.15-.3-.3-.3a9.85,9.85,0,0,0,.4-1.6c-.4-1.3-.7.7-1.1,1.1,0-.2.1-.2.1-.6-.6-.3-1.1,1.4-1.6,1.6-.2-.6.4-.4.2-1.3-.2.4-.5-.4-.6.4,0-1.2-.6-.1-.2-1.2-.9-.4-1.8.6-2.6,1.3v-.9c.3,0,.7-.3.9-1.1-.2-.6-.4.8-.5.4.1-.3.3-.3.3-.9-.2-.7-.4.3-.6.4l.1.3c-.5.8-.3,2-.9,1.7-.2-.7,0-.6,0-1.5-.1.3-.6-.6-.7.3l.3.1c-.3.2-.5.2-.7.5a.74.74,0,0,1,.1-.5c-.2.3-.5.2-.6.8v-.9c.1.4.4.5.5,0,0-.8-.4-.3-.5-.4.7-.2.7-1.7,1.3-1l-.1.3c.3.7.7-.5,1-.4a1.66,1.66,0,0,1-.1-.7c.7.7,1.3.2,2.1.6l.2-.9v.7c.4.3,0-1,.3-.9-.1,0-.1.1-.1.3.4-.8.3.6.5.4-.1.8-.5.3-.3,1.3.4-.8,1.1-.4,1-2.1.8.6,1.7-.6,2.3-.8.1.3,0,.2,0,.5.1-1,1,.6.8-.3a3.54,3.54,0,0,1,.4,1.1,1.21,1.21,0,0,1,.5-.8l.3.1v.1l.2-.4v-.1c.5-.3,1.1-.2,1.4-1.2-.1.6.3,1,.2,1.4,0-1.4.5-1.6,1-1.5,0,.2.1.5.1.7l.1-.6v.3c.5.1.6-1.5,1.1-.9a1.39,1.39,0,0,0,0,.9,1.35,1.35,0,0,0,1.1-.7.37.37,0,0,0,.1.3c.1.1.2-.3.2-.5l.2.7c.1-.4.5-.1.5-.7.3.7.3-.9.7-.7,0-.2.1.8.3.7-.5-1.4.4-.2-.2-1.7l.5.5-.2-.8c.8,1.3.1-.7.5-.4.1.2,0,.2.1.3,0-.2.2-.4-.1-.7.2-.1.5-.6.6.3-.2-.4-.2,0-.3.2.3.6.4.3.8.9a.37.37,0,0,0-.1-.3l.2.4c0-.8.5-.5.3-1.5.1.2.2.3.3.2l-.4-.8L63,63l.4,1.2c.5.1,0-1.4.2-1.7.8,1.2.2-.8,1.1.2v.5c.3-.5.8.3,1-.4-.6-.2-.5.1-1.5-.7.8.3.4-1.2,1.3-.7.2.3.2.6.5.8-.3-.7.4-.2-.1-.9a7.65,7.65,0,0,1,.9.9L66.7,61l.1.2c.9.5,1.1,0,1.1-.6s0-1.4.6-1.3l.3.4-.5-1c.2.5.4.4.7.7l-.3-1.1C69.1,58.6,69.7,59.3,69.5,59.2ZM63.2,64l-.1.1a.09.09,0,0,0-.1.1h0l.1-.1C63.2,64.2,63.4,64.5,63.2,64ZM49.9,69.5a.35.35,0,0,0,.2-.1c-.1,0-.2.2-.2-.2C50,69.2,49.9,69.2,49.9,69.5Zm16-.4.1.5-.3-.5Zm2-1v.4l-.1-.1Zm-.4-5.5h0c-.1-.4.6.4.1-.5C66.9,61.5,67.3,62.3,67.5,62.6ZM64,64.9c-.3-.5-.1-.7-.2-1.1a3.64,3.64,0,0,1,.4.9c.1,0,.1,0,.1-.2C64.8,65.6,63.9,64.3,64,64.9Zm-4.3,2Zm-.7.8c.1.7-.2.7-.4.9-.2-.6-.2-1.4,0-1.4C58.7,66.6,59,68.2,59,67.7Zm7.7-3.1c0,.3.5,1.5-.1,1v-.4h-.1l-.2-.5C66.9,66,66.6,64.7,66.7,64.6Zm-9.6,4a4.57,4.57,0,0,0-.2,1.6c-.2-1-.1-1.5,0-1.5S57.1,68.8,57.1,68.6Zm.2,1.1c.1.1.3.7.4.2-.2-.5-.4-1.8,0-1.4a5.28,5.28,0,0,1-.1,1.9Zm-.1-2,.2.1c.2.4.6,1.4.5.3-.2-.1-.3-.2-.5-.3S57.2,67.6,57.2,67.7Zm-2.4.6.1-.4c-.1.1-.1.2-.1.4v.3C55.1,68.9,54.9,68.6,54.8,68.3Zm2.2-.4-.3.2C56.8,68.2,57.1,68.4,57,67.9Zm-1.9,1.2c.2,0,.6.1.5,0C55.4,68.7,55.1,68.8,55.1,69.1Zm-7.7,1.5.1.7-.2.1Zm2.4.8.1-.1.1.3Zm2.8.1a4,4,0,0,1-.1-.5c0-.1.1-.2,0-.3V71c-.1.2-.2.1-.3-.1s.2-.3.2-.5c-.3-.8-.5,1.7-.7-.7a3,3,0,0,0-.2,1.3,1.14,1.14,0,0,1,1.1.5.35.35,0,0,0,.1.2A.35.35,0,0,1,52.6,71.5Zm3.4-.1a.3.3,0,0,0,.1-.2v-.8a2.15,2.15,0,0,0,0,.8C56.1,71.3,56.1,71.4,56,71.4Zm.2,1.1.3-1.1v.5l.2-.5C56.8,72.1,56.6,72.9,56.2,72.5Zm.7-.6-.1-.6.1.6h0V72l.4-.4Zm4.9-2.7c.9,1.8,0,1.5.3,2.4-.2-.6-.8-1.5-.3-1.7-.6-.5.2,1.3-.6-.2.2,0,.3-.5.3-.6h-.3C60.9,68,61.7,69.6,61.8,69.2Zm2.6-.6.2-.3Zm7.3-4c.3.4,1.2.7.7,0C72.1,64.7,71.9,64.8,71.7,64.6Zm2.5-2.5v.6c.8.7.2-.3.5-.3C74.4,61.9,74.5,62.3,74.2,62.1Zm1.6-1.9-.1-.2.7.7Zm1.3,1.6c.1,0,.1-.4-.3-.6Zm1-2.5.7.6.1-.1Zm-.6-.2.4.4c.1.2.1.4-.2.3-.4-.3-.1-.2-.1-.3s-.4-.1-.3.1a7.21,7.21,0,0,1,1.3.8c.6-.1-.1-.6-.7-1C77.8,59.4,77.7,59.2,77.5,59.1Zm-1,1a.37.37,0,0,1-.3-.1l.1.1c.3.2.3.1.2,0h.3a3.89,3.89,0,0,1,.9,1c-.1-.2-.4-.6-.1-.6.1.1.2.2.2.3l.2-.1a1.14,1.14,0,0,0-1.2-.6c-.1-.1-.2-.1-.4-.2S76.4,60,76.5,60.1Zm.5-1.5c-.1-.1-.3-.2-.5-.4l-.1-.2C76.8,58,77.1,58.4,77,58.6ZM71.8,63c.2.1.5.7.2.7l.6.6c-.4-.4-.1-.6-.1-.7C72.1,62.9,72.2,63.3,71.8,63Zm-6.9,5.3c0-.3.7.1.2-.9C65.8,68.4,65.2,68.4,64.9,68.3Zm-.6-1.1h0c-.1.4.3,1.1-.1.8,0-.2.2,0,.1-.2C64.1,67.3,64.1,67.4,64.3,67.2ZM68.2,65l-.3-.8.2-.1Zm1.3-2.7c.3.4.5.2.4,0,.4.5.2.5.1.7h0c0-.1-.3-.4-.4-.5l-.1-.2Zm2.6-3.4c.5.2.3.1.3-.1C72.2,58.7,72.1,58.7,72.1,58.9Zm-4,3.8c.4.1.4.8.8,1h-.2c.6.4-.3-.7,0-.6h-.2c-.4-.4-.1-.4-.4-.8C67.9,62.1,68,62.7,68.1,62.7ZM72,58.5c.6.2-.3-.6-.3-.7C71.1,57.5,72,58.2,72,58.5Zm-3.8,1.4h0v.3l.1.1Z"/><path class="cls-4" d="M76.9,62.2a.09.09,0,0,0,.1-.1A.09.09,0,0,0,76.9,62.2Z"/><path class="cls-4" d="M65.3,71.4c-.1-.1-.1-.2-.2-.2C65.2,71.2,65.2,71.3,65.3,71.4Z"/><path class="cls-4" d="M64.9,72"/><path class="cls-4" d="M44.2,73.6c-.2.7.1.1.2.1C44.3,73.8,44.3,73.2,44.2,73.6Z"/><path class="cls-4" d="M45,72.4c-.1.2-.1.4-.3.4C44.8,72.9,44.9,72.8,45,72.4Z"/><path class="cls-4" d="M44.3,72.7a.25.25,0,0,0,.32.15l.08,0C44.6,72.8,44.6,72.5,44.3,72.7Z"/><path class="cls-4" d="M47.1,72.6c-.1.5-.4.2-.4.2.5.4-.1.9-.1,1.2C46.9,73.9,46.9,73.3,47.1,72.6Z"/><path class="cls-4" d="M47.7,72.4c-.1,0-.1,0-.1-.1A.09.09,0,0,0,47.7,72.4Z"/><path class="cls-4" d="M47.9,72.8c.2-.1.2-.6.3-1-.2-.4-.3.5-.5.6C47.9,72.4,48,72.3,47.9,72.8Z"/><path class="cls-4" d="M53.8,74.8c0,.1-.1.1-.1.4H54a.32.32,0,0,0-.19-.4Z"/><path class="cls-4" d="M54.7,73.2c.2-.1.2.7.3.5l-.2-1Z"/><polygon class="cls-4" points="53.7 68.3 53.6 68.4 53.7 68.4 53.7 68.3"/><path class="cls-4" d="M56,74v1.1A1.87,1.87,0,0,0,56,74Z"/><polygon class="cls-4" points="57.1 74.5 57 74.9 57.4 74.4 57.1 74.5"/><polygon class="cls-4" points="58.1 73.7 58.2 73.9 58.4 73.6 58.1 73.7"/><path class="cls-4" d="M69.3,68.1c-.5-.8-.7-.2-.9-.3C69,68.7,68.5,67.2,69.3,68.1Z"/><path class="cls-4" d="M76.2,62.3l-.2.5C76.6,62.7,76.2,62.7,76.2,62.3Z"/><path class="cls-4" d="M101.7,74.9v-.1C101.6,74.8,101.6,74.8,101.7,74.9Z"/><path class="cls-4" d="M102.2,74.1a.68.68,0,0,0-.5.7C101.9,74.8,102.7,75.1,102.2,74.1Z"/><path class="cls-4" d="M102.4,76.5l.1-.4C102.2,75.9,102.5,76.4,102.4,76.5Z"/><polygon class="cls-4" points="102.1 75.6 101.9 75.2 101.9 75.6 102.1 75.6"/><path class="cls-4" d="M90.1,70.3c.1-.1.2-.3.4-.5Z"/><path class="cls-4" d="M88.5,71.4h-.2C88.4,71.5,88.4,71.5,88.5,71.4Z"/><path class="cls-4" d="M90.4,70.7Z"/><path class="cls-4" d="M95.5,74.4a4.76,4.76,0,0,1,.3-.7C95.7,73.3,95.6,74,95.5,74.4Z"/><path class="cls-4" d="M82.3,73.9l.2-.3C82.3,73.7,82.2,73.8,82.3,73.9Z"/><path class="cls-4" d="M85.1,75.7a.76.76,0,0,0,.2-.4h-.1Z"/><path class="cls-4" d="M90.4,71.5h0l.2-.1C90.5,71.3,90.5,71.3,90.4,71.5Z"/><path class="cls-4" d="M81.2,73.4a2.17,2.17,0,0,0-.6.4A1.51,1.51,0,0,0,81.2,73.4Z"/><path class="cls-4" d="M88.4,71.4"/><path class="cls-4" d="M86.2,76H86C86,76.2,86.1,76.1,86.2,76Z"/><path class="cls-4" d="M95.5,74.4a.35.35,0,0,1-.1.2C95.5,74.6,95.5,74.5,95.5,74.4Z"/><path class="cls-4" d="M100.7,74.5c-.1,0,0,.2.1.5A1.09,1.09,0,0,0,100.7,74.5Z"/><path class="cls-4" d="M80.6,56.9"/><path class="cls-4" d="M82,59.5Z"/><path class="cls-4" d="M75.8,65.5c.3-.4-.7-.3-.8-.5l.4-.1-.4-.1.5-.2c-.4-.3,0-1-1-.8l.9-.3-.8-.1h.7c0-.5-.9-1-.9-1.1l.3-.1c.1-.1-.1-.1-.2-.2l.5-.1c-.4-.7.7-1.2,0-1.8.1-.3.2.1.5,0s-.1-.4-.3-.4c.8-.1.6.3,1.2-.1-.4-.1.8,0,.5-.3l-1,.1c.1-.2.8-.2.6-.4-.5-.2-1.1.6-1.3.1,0-.3,2.3-.9,1.7-1.3.5-.4,1.6.1,1.3-.4.2.1.5.2.7.3.3-.1.8-.1.6-.3-.4,0-.9-.1-1-.3.8.4,1.2-.4,2.2-.1v-.1h.2l.1-.2a1.23,1.23,0,0,0,1.1.2l.2-.2a5.65,5.65,0,0,0,1.3,0,7.24,7.24,0,0,0,1.1.4h-.9c-.3.2.6.1.2.2h-.2c.3-.1-.1-.1-.3,0-.6.1-.2.2.2.2-.2.2-1.1.2-1.3.2,1,0,0,.3.5.4h-.6c-.7.3-.1.3.2.4l-.5.1c.1.2-1.5.8.3.5l-.3.1c-.1.1-.5.4.1.4a4.34,4.34,0,0,1-.5.2c.7-.1.2.1.1.3-.2,0-1.1.3-1.3.2-.8.5,1.1-.1,1.1.1-.4.3-.5.1-.9.1.6.2-1.8,1.4.1,1l.5-.4c.4,0,.4.1.3.1h-.3c-.7.8,1.5.1,1.3.6a5.6,5.6,0,0,0-.7.2c-.2.3,1.7-.6,1.2,0l-.6.3c-.2.2.4,0,.5-.1-1.4.7.3.5-1.4,1.7.8-.3,1.6-.2,1.3.1-.7.6-1,.4-1.7.9.1.1.9-.2.7.1.7-.5,1.3-1.3,1.9-1.2l-.3.3c0-.1.2-.2,0-.2-.5.2-.5.4-.7.5l.5.3c.8-.5.5-.6.7-.7,0,.4-.9,1.5-.2,1.4l-.3.2c.9-.1-1.3,1.2.2.6-.1.3-.8.5-.7.8,0,.1.3-.2.4-.3.5.1-.6.6.3.4l-.9.6c.8-.1,2.4-.8,2.2-.3-.6.5-.7.3-1.2.6,1.3-.5.8.7,1.7.6.4-.5,1.2-.9,1.5-1.4-.8.6-.4.1-.5.1,1.7-1.3-.2,1.4,1.2.1l-.5.6a1.25,1.25,0,0,0,.7-.6l-.1.6c-.5.3-1.7,1-1.2.4-.7.5-.3.5-1,1.1,1.1-.7-.3.5.2.5.7-.9,1.3-.8,1.6-1.2-.1.2.4,0,.7-.2.2,0-.1,1,.3.8a5.88,5.88,0,0,0-1.2.9c.4-.2.5-.1,0,.5-1.4.8,1.1-1.5.2-1.1-.7.6-1,.7-1.3.7a8.64,8.64,0,0,1-.9,1.1c1.6-1.2.7.4,1.7-.1.5-.3,1.2-1.3,1.6-1.3l.2-.6c-.1.6.4-.4.8-.4l-.5.4c0,.2.2.2.5-.2l-.7.7c0,.2,0,.4.4-.1a2.29,2.29,0,0,1-.3.5c.1-.1.2-.2.3-.1-.1.1-.1,0-.3.2.5.1-.6.9-.3,1a.83.83,0,0,0-.3.6c.9-1.2,1.4-1.1,2-1.7h0l.6-.3a1.69,1.69,0,0,0-.3.6h0c0,.3-1,1.3-.5,1.1l.4-.3c-.1,0-.2.2-.2.4l.4-.3c-.5,1.4.8-.5.7.3,0-.2-.2-.1-.4.3,0,.2.1.1.3-.1l-.1.1.9-.6c-.3.4-.6.3-.7.9-.3.7.2.1.4.1.2-.4.2-.8.4-.9a4.76,4.76,0,0,1-.3.9,4.81,4.81,0,0,0,1.2-1,.38.38,0,0,1-.2.3v-.1c-.2.2-.5.9-.5.5-.6,1.2.1.5.2.7l-.8.7c-.1.9.2,1.1.7.9s.9-.5,1.2-.4c0-.4-.3-.1.1-1.1.5-.4.3-.2.7-.3h0c0,.6.5-.4.4.6-.2.6-.1-.6-.4.5h.4c-.3.7-.4,0-.6.1-.1-.1.3-.1.4-.8-.4-.1-.6.6-1.2,1.6-.4.7-.1.8,0,.9.6-1.1,1.1-1.5,1.4-.9l.1.9c.3-.8.5-2.3.8-2.1l-.2.6c0,.3.1.3.1.3-.2.5-.5,1-.7,1.4,0,1.4.8-.6,1.1-.8,0,.2-.1.2-.2.5.5.4,1.1-1.2,1.4-1.4.2.6-.3.4-.2,1.3.2-.3.4.4.5-.4,0,1.2.5,0,.1,1.2.8.5,1.5-.7,2-1.5.1.3.1.6.2.8-.2.1-.5.4-.5,1.3.3.6.3-.8.4-.5s-.2.3-.1.9c.4.6.3-.3.4-.5l-.2-.3c.3-.9-.2-2,.3-1.8.4.6.2.6.4,1.4,0-.3.7.4.5-.5l-.6.1c.1-.3.3-.4.3-.7a1.09,1.09,0,0,1,.1.5c.1-.3.3-.3.1-.9l.4.8c-.3-.3-.6-.3-.4.2.3.8.4.2.6.2-.5.5,0,1.8-.7,1.5V77c-.5-.6-.5.6-.9.7a2.12,2.12,0,0,1,.2.6,2.45,2.45,0,0,0-1.1-.2,1.71,1.71,0,0,1-1.2-.1l-.2.9-.1-.7c-.4-.3,0,1-.3.9.1,0,.1-.1.1-.3-.5.8-.3-.6-.5-.4.1-.7.5-.3.3-1.3-.4.8-1.1.3-1.2,2a1.42,1.42,0,0,0-1.4-.2,8.52,8.52,0,0,1-1.4.3c0-.3.1-.2.1-.4-.5.9-.8-.9-1-.1,0-.1.2-.8.2-1a1,1,0,0,1-.8.5l.2-.2v-.1l-.3.2v.1c-.6,0-1.2-.4-2,.2.5-.4.4-1,.6-1.2-.8,1.2-1.4.9-1.8.5a1.64,1.64,0,0,1,.4-.7l-.5.4.2-.3c-.3-.5-1.6.5-1.6-.2.3,0,.4-.3.7-.7a1.49,1.49,0,0,0-1.2-.3l.2-.2c0-.2-.3,0-.5.1l.4-.6c-.4.1-.4-.3-.9,0,.4-.7-.9.2-1-.3-.2.1.7-.5.4-.6-1,1.1-.3-.2-1.4,1l.2-.6-.6.6c.8-1.3-.7.3-.7-.4.1-.1.2-.1.3-.2-.2,0-.5-.1-.6.4-.1-.1-.9-.3-.1-.8-.3.3.1.2.3.2.5-.5.1-.5.5-1.1-.1,0-.2.1-.3.2l.3-.3c-.8.3-.7-.4-1.6.1.1-.2.2-.3.1-.4l-.6.6-.3-.3,1.1-.7c-.1-.5-1.4.3-1.8.1,1-1-.9-.2-.1-1.2h.5c-.6-.3.1-.9-.7-1a4,4,0,0,1-.4,1.8c0-.9-1.4-.4-1.1-1.5.3-.2.6-.2.8-.5-.7.3-.3-.5-1,.1.1-.3.8-.8.8-1l-1.3.1.2-.1c.5-1,0-1.3-.7-1.5s-1.5-.4-1.4-1.1l.4-.2-.7.1c.5,0,.5-.4.8-.5-.4-.1-.8-.1-1.2-.2C75,65.6,75.9,65.2,75.8,65.5Zm5.5,7.4.2.1c0,.1,0,.1.1,0h-.1C81.5,72.9,81.8,72.6,81.3,72.9Zm14.4,5.6-.3.1c.1.1.3-.2.2.2C95.7,78.7,95.8,78.7,95.7,78.5ZM85.4,68.9l.4-.2-.4.5Zm-1.1-1.4.4-.1-.1.1Zm-5.2,1h0c-.4.1.4-.5-.5-.1C77.9,69,78.7,68.6,79.1,68.5ZM82,71.8c-.4.4-.7.3-1,.5,0-.2.5-.4.8-.6,0-.1-.1-.1-.2-.1C82.5,70.9,81.3,72.1,82,71.8ZM85.7,75h0l.4-.3Zm1.1.1c.5-.6.7-.3.9-.3-.3.6-.9,1.1-1.1.9C86.2,76,87.2,74.8,86.8,75.1Zm-5.7-5.8c.3,0,1.4-.7,1,0h-.4v.1l-.4.3C82.4,68.8,81.2,69.3,81.1,69.3Zm7.7,6.6c.4-.3,1-.6,1.2-1.1-.4.9-.9,1.1-1,1.1Zm.6-.9c0-.2.3-.7-.1-.4-.2.5-.9,1.5-1,1,.7-.7.9-1.1,1.4-1.3ZM88,76.6v-.2c.1-.4.6-1.4-.1-.5l.1.5Zm2.4,1.1-.3.3a.32.32,0,0,0,.3-.3l.2-.2C90.5,77,90.5,77.4,90.4,77.7Zm-2-1.2c.1,0,.2.1.4.1C88.7,76.4,88.6,76.1,88.4,76.5Zm2.3.3c-.1-.1-.4-.4-.4-.3C90.1,77,90.5,77.1,90.7,76.8Zm7.7.7-.2-.7c.1,0,.1,0,.2-.1Zm-2.3-.9H96v-.4Zm-2.3-.7a4,4,0,0,0-.1.5.45.45,0,0,0-.1.3.45.45,0,0,0,.1-.3c.1-.1.2,0,.2.2s-.2.2-.3.4c0,.9,1-1.5.4.8.2-.3.6-.8.5-1.2-.2.1-.6-.3-.7-.7Zm-2.5-1.5a.35.35,0,0,0-.2.1,1.37,1.37,0,0,0-.4.7c.3-.2.3-.5.4-.7C91.2,74.5,91.2,74.4,91.3,74.4Zm.4-.9a5.35,5.35,0,0,1-.8.7l.3-.4-.4.3C91.2,73.5,91.7,73,91.7,73.5Zm-.7.1-.3.5.3-.5h0l.1-.1-.5.1Zm-4.3-1.5c1.1-1.6,1.2-.8,1.8-1.5-.4.5-.9,1.4-1.2,1.1-.1.8,1-.9.1.6-.1-.2-.6.1-.6.1a.35.35,0,0,1,.1.2C86.1,73.4,87,71.9,86.7,72.1Zm-1.5-1.9-.3-.1Zm-3.7-5.6c.4-.2,1-.9.2-.6C81.7,64.2,81.8,64.4,81.5,64.6ZM80.1,62l.5.1c.9-.5-.1-.2,0-.4C80.1,61.9,80.4,61.9,80.1,62Zm-.6-1.8h-.2l1-.2Zm2-.3c0-.1-.2-.2-.7,0Zm-1.1-1.5.9-.1v-.1Zm-.6.2h.6c.3,0,.4.1.1.2-.5.1-.2-.1-.3-.1s-.3.2-.1.2a4.31,4.31,0,0,1,1.5-.3c.4-.3-.5-.1-1.1-.1A1.51,1.51,0,0,0,79.8,58.6Zm0,1.1c-.1.1-.2.1-.3.2h.2c.3-.2.2-.2.1-.2l.2-.2a3.16,3.16,0,0,1,1.3-.1c-.2,0-.8,0-.4-.2.2,0,.3-.1.3,0l.1-.2a1.43,1.43,0,0,0-1.3.5.76.76,0,0,0-.4.2Zm-.7-1.1c-.2,0-.4.1-.6.1l-.2-.1A.77.77,0,0,1,79.1,58.6Zm.9,5.7c.1-.1.8-.3.7-.1l.7-.5c-.5.3-.6,0-.6,0C80.1,64,80.4,64,80,64.3Zm4.9,5.6c-.3.1,0-.6-.9.1C84.8,69.1,85,69.6,84.9,69.9Zm-.8.9h.1c.3-.1.9-.7.7-.2-.2.1,0-.1-.2,0-.4.4-.3.3-.4.2C84.1,70.9,84.1,70.9,84.1,70.8Zm-2.7-3.1-.7.3-.1-.2Zm-2.5-1.3c.4-.2.3-.5.1-.4.5-.3.6-.1.7,0h0a3.36,3.36,0,0,0-.6.3l-.2.1Zm-2.5-3.8c.4-.3.2-.3,0-.3S76.2,62.5,76.4,62.6Zm2.8,5.2c.1-.4.8-.4,1-.7v.2c.4-.5-.7.2-.6,0v.2c-.4.4-.4.1-.8.3-.2.2.3.2.4,0Zm-3.3-5.4c.5-.5-.7,0-.8-.2C74.6,62.7,75.7,62.3,75.9,62.4Zm.4,4.8h0l.3.1.1-.1Z"/><path class="cls-4" d="M81.6,60.2c.1-.1,0-.1,0-.1Z"/><path class="cls-4" d="M87.5,68.3c-.1.2-.1.2-.1.3C87.4,68.5,87.5,68.4,87.5,68.3Z"/><path class="cls-4" d="M88.1,68.4"/><path class="cls-4" d="M100.3,73.8c-.2-.7-.1-.1-.2-.1C100.2,73.8,100.4,74.2,100.3,73.8Z"/><path class="cls-4" d="M100.2,75.2v-.5S100.1,74.8,100.2,75.2Z"/><path class="cls-4" d="M100.5,74.7q-.3-.15-.3,0C100.3,74.8,100.5,75,100.5,74.7Z"/><path class="cls-4" d="M98.5,75.4c0-.5.2-.3.2-.3-.5-.4-.1-.9-.1-1.2C98.4,74.1,98.5,74.7,98.5,75.4Z"/><path class="cls-4" d="M98,75.7a.09.09,0,0,1,.1.1Z"/><path class="cls-4" d="M97.8,75.3a5.71,5.71,0,0,0-.2,1c.2.4.3-.5.4-.6C97.8,75.7,97.8,75.8,97.8,75.3Z"/><path class="cls-4" d="M94.2,72.4s.1,0,.2-.3l-.2-.1A.47.47,0,0,0,94.2,72.4Z"/><path class="cls-4" d="M93,73.5c-.2,0,.2-.7,0-.6l-.3.9Z"/><polygon class="cls-4" points="91.5 78.3 91.6 78.2 91.5 78.2 91.5 78.3"/><path class="cls-4" d="M92.6,72.3l.5-1C92.9,71.6,92.6,72.4,92.6,72.3Z"/><path class="cls-4" d="M92.4,71.4l.2-.3c-.1.1-.3.1-.4.2Z"/><path class="cls-4" d="M91.5,71.5l.1-.2a.37.37,0,0,1-.3.1C91.3,71.5,91.4,71.5,91.5,71.5Z"/><path class="cls-4" d="M84.4,66.4c-.8.5-.2.6-.4.8C84.9,66.4,83.5,67.2,84.4,66.4Z"/><path class="cls-4" d="M81.3,60.6l.3.2C81.9,60.5,81.6,60.8,81.3,60.6Z"/><path class="cls-4" d="M105.3,55.7a.09.09,0,0,0-.1-.1S105.1,55.6,105.3,55.7Z"/><path class="cls-4" d="M105.3,54.8c-.1.2-.3.4,0,.8C105.4,55.5,106.2,55.4,105.3,54.8Z"/><path class="cls-4" d="M106.8,56.7l-.1-.4C106.3,56.2,106.8,56.5,106.8,56.7Z"/><polygon class="cls-4" points="105.9 56 105.6 55.8 105.9 56.2 105.9 56"/><path class="cls-4" d="M94.6,57.7c0-.2.1-.4.1-.6Z"/><path class="cls-4" d="M93.9,59.5l-.1.1C93.8,59.7,93.8,59.6,93.9,59.5Z"/><path class="cls-4" d="M95,57.9h0C94.9,57.9,95,58,95,57.9Z"/><path class="cls-4" d="M100.4,58.4c-.1-.3-.1-.6-.2-.8C99.9,57.4,100.2,58,100.4,58.4Z"/><path class="cls-4" d="M90.1,64.9v-.3C90.1,64.7,90,64.8,90.1,64.9Z"/><path class="cls-4" d="M93.1,64.9Z"/><path class="cls-4" d="M95.3,58.6h0l.1-.2S95.3,58.4,95.3,58.6Z"/><path class="cls-4" d="M89,65.1a4.76,4.76,0,0,0-.3.7A1.09,1.09,0,0,0,89,65.1Z"/><path class="cls-4" d="M93.8,59.6"/><path class="cls-4" d="M94.2,64.7l-.2.2C94.1,64.9,94.1,64.8,94.2,64.7Z"/><path class="cls-4" d="M100.4,58.4a.37.37,0,0,0,.1.3A.37.37,0,0,0,100.4,58.4Z"/><path class="cls-4" d="M104.3,55.8c0,.1.1.2.3.4A1.31,1.31,0,0,1,104.3,55.8Z"/><path class="cls-4" d="M79.1,53.2h0C79,53.3,79.1,53.3,79.1,53.2Z"/><path class="cls-4" d="M82.2,53.8c0-.1.1-.1.2-.2Z"/><path class="cls-4" d="M81.5,62.3c0-.5-.6.3-.8.2l.2-.3-.3.2.2-.5c-.4.1-.5-.6-1,.2l.4-.8-.5.4.4-.5c-.2-.3-1.1.1-1.1,0l.2-.3c0-.2-.1,0-.2.1l.3-.4c-.6-.1-.2-1.2-1-1-.1-.2.2-.1.3-.4s-.3-.2-.4,0c.4-.7.5-.4.6-1-.3.3.4-.6.1-.6l-.5.9c0-.2.3-.7.1-.7-.4.3-.3,1.2-.7,1.1-.1-.1.7-2.3.1-2,0-.6.9-1.4.4-1.3l.6-.5c.1-.3.3-.7.1-.6-.2.3-.6.7-.7.7.7-.5.2-1.2,1-2h-.1a.35.35,0,0,0,.1-.2l-.1-.1c.2-.1.5-.1.7-.9l-.2-.3a10.59,10.59,0,0,1,.6-1.1l1.2-.6c-.2.3-.4.4-.5.8.1.4.4-.5.4,0l-.3.4a.37.37,0,0,0,.1-.3c.1-.3-.1,0-.2.3-.2.6.2.3.4,0,.2.2-.4,1-.5,1.1.6-.8.4.2.7-.1l-.4.5c-.2.8.3.3.5.1l-.3.5c.3,0-.4,1.7.6.1l-.1.3c0,.2,0,.6.4.2a1.69,1.69,0,0,0-.2.5c.4-.6.2-.1.3.1-.2.1-.6,1-.8,1.1-.2,1,.7-.8.9-.7-.1.5-.3.4-.5.7.5-.3-.3,2.2.7.6l.1-.6c.3-.3.4-.3.3-.1,0-.1-.1.1-.2.2,0,1,1.1-1,1.3-.5a6.25,6.25,0,0,0-.4.6c0,.4.9-1.6.9-.8l-.2.3c0,.3.3-.2.3-.4-.6,1.4.6.2,0,2.1.5-.7,1.1-1.2,1.1-.7-.2.9-.6.9-.8,1.7.1.1.5-.7.6-.3.3-.8.3-1.8.8-2.1l-.1.7c0-.1,0-.3-.1-.2a.93.93,0,0,0-.2.8l.5-.1c.4-.9.1-.7.1-1,.2.3.1,1.7.6,1.3l-.2.3c.7-.6-.4,1.7.4.4.1.3-.4.9-.2,1.1.1,0,.1-.3.2-.4.4-.2-.2.9.4.2l-.4.9c.6-.5,1.5-2,1.6-1.5-.2.7-.4.6-.7,1.1.8-1.2,1,.1,1.6-.5.1-.7.6-1.4.5-2-.3.9-.3.3-.4.3.8-2,.5,1.2,1-.5l-.1.7a1.19,1.19,0,0,0,.3-.9l.2.6c-.3.5-.9,1.7-.8.9-.3.7,0,.6-.3,1.4.6-1.2,0,.6.4.4.1-1.1.6-1.4.7-1.9,0,.2.3-.2.5-.6.2-.1.3.9.6.5a5.32,5.32,0,0,0-.5,1.4c.2-.4.3-.3.2.5-.7,1.4.2-1.9-.4-1-.3.9-.4,1.1-.7,1.3a7.38,7.38,0,0,1-.2,1.4c.7-1.8.7,0,1.3-.9.2-.5.3-1.8.7-1.9l-.2-.6c.2.6.2-.6.4-.7l.1.6c.1.1.2,0,.3-.4l-.3,1c.1.1.2.3.3-.3a1.23,1.23,0,0,1-.1.6c0-.2.1-.3.2-.2-.1.1-.1,0-.1.3.4-.2-.1,1.1.2,1-.1.2,0,.5,0,.6a10.56,10.56,0,0,1,.8-2.5h0l.3-.6c-.1.1,0,.5,0,.7h0c.1.2-.2,1.7.1,1.2l.2-.5V59l.2-.4c.2,1.5.4-.8.7-.1-.1-.1-.2,0-.1.5.1.2.1,0,.2-.2V59a3.09,3.09,0,0,0,.4-1c0,.5-.3.6-.1,1.2s.2-.1.3-.1c0-.4-.2-.8-.1-1,0,.2.2.6.2.9a8.31,8.31,0,0,0,.4-1.4c.1.2,0,.3,0,.4v-.1c-.1.2.1,1-.1.6.1,1.3.3.3.5.5,0,.3-.1.6-.1.9.4.9.7.8,1,.4s.4-.9.6-1c-.3-.3-.3.1-.5-1,.1-.5.1-.3.3-.6v.1c.3.5.1-.6.5.3.2.6-.4-.4,0,.7.1-.1.2-.1.3-.2.2.7-.3.2-.4.4-.1,0,.1-.2-.2-.9-.3.1-.1.9,0,2,.1.8.4.7.5.7-.1-1.2-.1-1.8.5-1.5l.6.7c-.2-.8-.9-2.2-.6-2.1l.2.6c.2.2.3.2.3.2l.3,1.5c.8,1.1.2-.9.3-1.2.1.2,0,.2.2.6.6.1,0-1.6.1-1.9.5.4,0,.5.6,1.1-.1-.4.6.1.1-.6.7,1,.4-.2.8.9.9,0,.7-1.4.6-2.3.2.3.5.4.7.6-.1.2-.1.6.4,1.3.5.3-.3-.8,0-.6s0,.4.5.8,0-.4,0-.6l-.3-.1c-.3-.9-1.4-1.5-.9-1.6.7.3.5.4,1.1.9-.2-.3.8,0,.1-.7l-.2.2c-.1-.3,0-.4-.2-.7.1.1.3.2.3.3-.1-.3,0-.4-.4-.8l.8.5c-.4-.2-.6,0-.2.4.7.4.4-.1.6-.1-.1.6,1.1,1.5.3,1.5l-.5-.4c-.7-.2,0,.8-.2,1a3,3,0,0,1,.6.4c-.9,0-1,.8-1.8,1l.4.8-.5-.5c-.5,0,.6.8.3.9.1-.1,0-.1-.1-.3.1.9-.6-.4-.6,0-.4-.7.2-.5-.5-1.2.2.9-.6.9.3,2.3a1.44,1.44,0,0,0-1.2.6,4.51,4.51,0,0,1-.9,1c-.2-.2,0-.2-.2-.4.1,1-1.1-.3-.8.5a4.68,4.68,0,0,1-.5-1,1.08,1.08,0,0,1-.4.9l.1-.3v-.1l-.3.4v.1c-.5.4-1.1.3-1.5,1.3.2-.6-.2-1-.1-1.4,0,1.4-.7,1.5-1.2,1.4a2.15,2.15,0,0,1,0-.8l-.3.6v-.3c-.5-.2-1,1.3-1.4.6.2-.2.2-.4.2-.9a1.37,1.37,0,0,0-1.1.4.37.37,0,0,1,.1-.3c-.1-.1-.2.2-.4.4v-.7c-.2.3-.5-.1-.8.5,0-.8-.7.6-.9.3-.1.2.3-.8.1-.8-.3,1.5-.4,0-.7,1.6l-.2-.6v.6c.1-1.5-.5.6-.7.1.1-.2.1-.2.1-.3-.1.1-.4.2-.3.6-.2,0-.9.2-.4-.6-.1.4.2.1.3,0,.1-.7-.2-.5-.1-1.2,0,.1-.1.2-.1.3l.1-.4c-.5.7-.7.1-1.1,1,0-.2,0-.4-.1-.4l-.2.8-.4-.2.5-1.2c-.3-.3-.9,1-1.3,1.1.4-1.4-.7.3-.6-1l.3-.3c-.6.1-.4-.8-1-.4a4.27,4.27,0,0,1,.5,1.6c-.3-.7-1.2.5-1.4-.5a1.52,1.52,0,0,0,.4-.9c-.4.7-.5-.2-.7.7-.1-.3.2-1.1.2-1.3l-.9.8.1-.2c-.1-2.2-2.1.6-2.6-.6l.2-.4-.5.5c.3-.3.2-.6.3-.9l-.9.7C81,62.9,81.4,62,81.5,62.3ZM89,64.6h.2s0,.1.1,0h-.1C89.1,64.4,89.1,64.1,89,64.6Zm13.9-3-.2.2c.1,0,.1-.3.2.1C103,61.9,103.1,61.8,102.9,61.6ZM90.3,59l.2-.4-.1.6Zm-1.5-.5.3-.3v.1l-.3.3Zm-3.5,3.8h0c-.3.3,0-.7-.4.2S85.1,62.6,85.3,62.3ZM89,63.4c-.2.6-.4.6-.6,1-.1-.1.2-.6.3-.9,0-.1-.1,0-.2.1C88.9,62.3,88.6,63.9,89,63.4Zm4.3.7h0l.2-.5Zm1-.5c.2-.7.4-.6.6-.8,0,.6-.2,1.4-.4,1.3C94.1,64.7,94.4,63.1,94.3,63.6Zm-7.2-1.8c.2-.2.8-1.4.8-.6l-.3.3v.1l-.2.3C87.9,60.6,87.2,61.7,87.1,61.8Zm9.1,1.4a3,3,0,0,0,.4-1.6c.1,1-.2,1.4-.3,1.4S96.2,63.1,96.2,63.2Zm0-1.1c-.1-.1-.1-.8-.2-.3s0,1.8-.3,1.4a10.17,10.17,0,0,1,.4-1.8Zm-.3,2.1-.1-.1c-.1-.4-.2-1.5-.4-.4.1.1.2.3.4.4A.09.09,0,0,0,95.9,64.2Zm2.5-.3-.1.4a.63.63,0,0,0,.1-.4l.1-.3C98.1,63.3,98.3,63.6,98.4,63.9Zm-2.3,0,.3-.1C96.3,63.7,96.1,63.5,96.1,63.9Zm2-.9a4,4,0,0,1-.5-.1C97.8,63.5,98.1,63.3,98.1,63Zm6.2-3.6-.5-.4.1-.2Zm-2.2.5-.1.1-.2-.3Zm-2.1.6c.1.1.1.3.2.5h0c0-.2.2-.1.3,0,.1.3,0,.3,0,.6.5.7-.1-1.8.8.5a2.06,2.06,0,0,0-.3-1.3.88.88,0,0,1-1-.3.3.3,0,0,1-.1-.2C99.9,60.4,99.9,60.5,100,60.5Zm-2.6.2c-.1.1-.1.1-.1.2a2.15,2.15,0,0,0,0,.8,2.15,2.15,0,0,0,0-.8C97.3,60.8,97.3,60.7,97.4,60.7Zm-.2-1.1c-.1.3-.1.7-.2,1l.1-.5-.2.5C96.9,59.9,97,59.2,97.2,59.6Zm-.4.5h0V60l-.4.3Zm-4.1,1c.2-2,.6-1.3.8-2.3-.1.7-.1,1.7-.4,1.6.2.7.4-1.2.4.4-.1-.1-.4.3-.4.4l.2.1C92.9,62.5,92.9,60.7,92.7,61.1Zm-1.9-.8-.3.1h.3Zm-5.7-2.4c.2-.4.2-1.3-.2-.5C85.1,57.5,85.2,57.5,85.1,57.9Zm-2.4-1,.4-.2c.4-1-.2-.1-.3-.3C82.5,56.8,82.8,56.6,82.7,56.9ZM81,56.1l-.2.1.5-.9Zm1.2-1.7c0-.1-.3,0-.4.5Zm-1.9-.1.5-.8-.1-.1Zm-.2.6a2.29,2.29,0,0,0,.3-.5c.2-.2.3-.2.3.1-.3.4-.2.1-.3.2s-.1.4.1.3c.3-.8.3-.7.6-1.4,0-.5-.4.3-.8.9Zm.8.6a.37.37,0,0,1-.1.3l.1-.2c.1-.2.1-.2,0-.1v-.3a5.43,5.43,0,0,1,.8-1.1c-.2.1-.5.6-.4.2.1-.1.1-.3.2-.2l-.1-.1c-.5.7-.5,1-.4,1.3-.1.1-.1.2-.1.4C80.8,55.7,80.8,55.6,80.9,55.5Zm-1.3,0a3.36,3.36,0,0,0-.3.6l-.2.1A1,1,0,0,1,79.6,55.5Zm4.3,3.1c0-.2.4-.8.5-.5l.3-.8c-.2.5-.4.4-.5.4C83.8,58.3,84,58.1,83.9,58.6Zm6.5,1.6c-.1.3-.3-.5-.6.6C90,59.6,90.3,59.9,90.4,60.2Zm-.3,1.2h0c.3-.2.5-1.1.5-.6-.1.2-.1-.1-.2.1C90.3,61.5,90.3,61.4,90.1,61.4Zm-3.4-1.1-.4.7-.2-.1Zm-2.6.6c.2-.4,0-.5-.1-.3.3-.6.4-.4.5-.4s.1-.1.1,0h-.1a3.36,3.36,0,0,0-.3.6l-.1.1-.2.1Zm-3.7-1c.1-.5,0-.3-.2-.2C80.2,59.9,80.3,60,80.4,59.9ZM85,61.8c-.1-.4.4-.8.4-1.2l.1.1c.1-.7-.4.6-.4.4v.1c-.1.6-.3.3-.5.7C84.6,62.3,85.1,61.9,85,61.8Zm-4.9-1.6c.1-.6-.4.5-.6.5C79.4,61.3,79.8,60.2,80.1,60.2Zm2.5,2.9v.1l.3-.2v-.1Z"/><path class="cls-4" d="M82.5,54.5C82.5,54.4,82.4,54.4,82.5,54.5Z"/><path class="cls-4" d="M91.7,57.4Z"/><path class="cls-4" d="M92.2,57.2"/><path class="cls-4" d="M103.6,55.5c-.6-.5-.1,0-.2,0S103.9,55.8,103.6,55.5Z"/><path class="cls-4" d="M104.3,56.7c-.2-.2-.2-.3-.2-.4S104,56.4,104.3,56.7Z"/><path class="cls-4" d="M104.3,56.1c-.2,0-.3.1-.3.2C104.1,56.2,104.4,56.4,104.3,56.1Z"/><path class="cls-4" d="M103.1,57.7c-.3-.4,0-.3,0-.3-.6-.1-.6-.7-.8-.9C102.3,56.7,102.7,57.1,103.1,57.7Z"/><path class="cls-4" d="M102.9,58.2h.1C103,58.1,102.9,58.2,102.9,58.2Z"/><path class="cls-4" d="M102.5,58a2.84,2.84,0,0,0,.5.9c.4.2-.1-.5-.1-.7C102.8,58.3,102.8,58.4,102.5,58Z"/><path class="cls-4" d="M98.4,57.5c0-.1.1-.1,0-.3h-.1C98.2,57.3,98.4,57.4,98.4,57.5Z"/><path class="cls-4" d="M98.2,59c-.1.1-.2-.7-.3-.5l.2,1Z"/><path class="cls-4" d="M99.5,63.8l.1-.1Z"/><path class="cls-4" d="M97.3,58.2l-.1-1.1C97.2,57.4,97.3,58.2,97.3,58.2Z"/><polygon class="cls-4" points="96.7 57.5 96.8 57.2 96.6 57.5 96.7 57.5"/><polygon class="cls-4" points="96.2 58.1 96.1 57.8 96 58.1 96.2 58.1"/><path class="cls-4" d="M88.3,57.5c-.3.9.1.6.1.9C88.7,57.3,88,58.7,88.3,57.5Z"/><path class="cls-4" d="M82.6,55.1H83C82.9,54.6,82.9,55,82.6,55.1Z"/><path class="cls-4" d="M98.1,41.4"/><path class="cls-4" d="M97.8,40.6a.5.5,0,0,0,.1.7h0C98.2,41.2,98.9,41,97.8,40.6Z"/><path class="cls-4" d="M99.8,42l-.3-.3C99.2,41.7,99.7,41.9,99.8,42Z"/><polygon class="cls-4" points="98.8 41.6 98.4 41.5 98.7 41.7 98.8 41.6"/><path class="cls-4" d="M89.5,47.3c-.1-.2-.2-.3-.3-.5Z"/><path class="cls-4" d="M90.2,49.1Z"/><path class="cls-4" d="M89.9,47.2h0C89.8,47.3,89.9,47.3,89.9,47.2Z"/><path class="cls-4" d="M94.4,44.8c-.2-.2-.4-.5-.5-.6C93.6,44.2,94.2,44.6,94.4,44.8Z"/><path class="cls-4" d="M91.2,55.4l-.2-.3A1.21,1.21,0,0,0,91.2,55.4Z"/><path class="cls-4" d="M93.2,53.7q-.15-.3-.3-.3v.1Z"/><path class="cls-4" d="M90.5,47.6h0l-.1-.2Z"/><path class="cls-4" d="M90.7,56.2a5.6,5.6,0,0,1,.2.7A1.94,1.94,0,0,0,90.7,56.2Z"/><path class="cls-4" d="M90.2,49.3"/><path class="cls-4" d="M93.7,52.9v.2C93.8,53.1,93.7,53,93.7,52.9Z"/><path class="cls-4" d="M94.4,44.8l.2.2Z"/><path class="cls-4" d="M97.2,41.6c0,.1.2.2.4.3A1.31,1.31,0,0,0,97.2,41.6Z"/><path class="cls-4" d="M77.4,52.6"/><path class="cls-4" d="M79.7,51.5Z"/><path class="cls-4" d="M83.8,58.8c-.3-.4-.3.6-.5.7v-.4l-.1.4-.1-.6c-.2.3-.7-.2-.6.7l-.1-.9-.2.8.1-.7c-.4-.1-.8.7-.9.7v-.3c-.1-.2-.1.1-.1.2v-.5c-.5.2-.8-.9-1.3-.3-.2-.1.1-.2,0-.5s-.3,0-.3.3c0-.8.2-.6,0-1.2-.1.4,0-.8-.2-.6v1c-.1-.2-.1-.8-.3-.7-.2.5.4,1.2,0,1.3-.2-.1-.6-2.4-.9-1.8-.3-.5,0-1.6-.3-1.3l.2-.7c-.1-.3-.1-.8-.2-.6a2.16,2.16,0,0,1-.2,1c.3-.8-.4-1.2-.1-2.2h-.1v-.2l-.2-.1c.1-.2.3-.3.1-1.1l-.2-.2c0-.6-.1-.8-.1-1.3.2-.4.3-.8.5-1.2a2.72,2.72,0,0,0,0,.9c.2.3.1-.6.3-.2v.2c-.1-.3-.1.1,0,.3.1.6.2.2.2-.2.2.1.1,1,.2,1.2,0-1,.3,0,.4-.5v.6c.2.8.3.1.4-.1v.5c.2-.1.5,1.6.5-.3v.3c.1.1.3.5.3,0a2.11,2.11,0,0,0,.1.5c-.1-.7.1-.2.3-.1a5.66,5.66,0,0,0,.1,1.3c.4.9,0-1,.2-1.1.2.5,0,.5,0,.9.2-.5,1,2,.8.1l-.5-.1c0-.4.1-.4.1-.3v.3c.5.9.2-1.4.6-1.1.1.3,0,.5.1.7s-.3-1.8.1-1.1v.4c.1.2.1-.4,0-.5.4,1.5.5-.2,1.2,1.7-.1-.9,0-1.6.3-1.2a14,14,0,0,1,.5,1.9c.1,0-.1-.9.2-.6-.3-.8-.9-1.6-.7-2.2l.2.4c-.1,0-.1-.2-.2-.1a3.66,3.66,0,0,0,.3.8,1.31,1.31,0,0,0,.3-.4c-.3-.9-.4-.6-.5-.8.3.1,1.1,1.3,1.1.6l.1.3c0-.9.8,1.5.5,0,.2.2.3.9.5.9s-.1-.3-.2-.4c.1-.4.4.8.4-.1l.3.9c0-.8-.4-2.5,0-2.2.3.7.1.7.3,1.3-.2-1.4.7-.5.7-1.3-.4-.5-.5-1.4-.9-1.8.4.9,0,.4,0,.5-.8-2,1.1.6.3-1.1l.4.7a2.29,2.29,0,0,0-.4-.9l.5.3c.2.6.6,1.8.1,1.1.3.8.4.4.7,1.3-.4-1.2.4.4.5,0a11.75,11.75,0,0,1-.8-1.9c.2.1.1-.4-.1-.7,0-.2.8.5.7,0a5.45,5.45,0,0,0,.7,1.6c-.1-.4,0-.4.4.2.4,1.5-1.1-1.5-.9-.5a2.68,2.68,0,0,1,.4,1.4c.3.4.4.6.8,1.2-.8-1.8.4-.5.2-1.5-.2-.5-.9-1.5-.8-1.9l-.5-.4c.5.3-.3-.5-.2-.8l.3.6c.2,0,.1-.1,0-.5l.5.9c.1.1.3.1,0-.4.1.2.3.3.4.5a.19.19,0,0,1,0-.27l0,0c0,.1,0,.1.1.3.1-.4.7.8.8.6a2.15,2.15,0,0,0,.4.5,11.09,11.09,0,0,1-1.1-2.4h0l-.4-.5c0,.1.3.4.5.5h0c.2.1.9,1.4.9.9l-.2-.4c0,.1.2.2.3.3l-.2-.4c1.1,1-.2-.9.4-.5-.1-.1-.1.1.2.4.1.1.1-.1,0-.3l.1.1-.3-1c.3.4.2.6.6,1s.1-.2.1-.3c-.3-.1-.6-.3-.6-.6.1.1.5.4.7.6a7,7,0,0,0-.6-1.4l.2.4-.1-.1c.1.3.7.8.3.6.9,1,.4.1.7.1l.4.8c1.6,1,.7-.9.9-1.2-.4-.2-.2.2-.9-.6a1,1,0,0,1-.1-.7V45c.5.2-.2-.6.6,0,.4.4-.5-.2.4.5l.1-.3c.5.5-.2.3-.1.5-.1,0,0-.2-.6-.7-.2.3.4.8,1.1,1.7.5.6.7.4.8.4-.8-1-1-1.5-.4-1.4l.8.4c-.5-.6-1.8-1.5-1.5-1.6l.5.4a.76.76,0,0,0,.3.1c.3.4.7.8,1,1.2,1.2.7-.2-.8-.3-1.2a.9.9,0,0,0,.4.5c.5-.1-.6-1.3-.7-1.7.6.2.2.4,1,.8-.2-.3.5,0-.1-.5.9.7.3-.3,1,.6.7-.2.2-1.3-.2-2.1a6,6,0,0,0,.8.4c-.1.2.1.6.7,1,.6.2-.6-.6-.2-.5a2.24,2.24,0,0,0,.7.6c.7.1-.1-.4-.2-.5l-.3-.1c-.5-.7-1.7-1.1-1.3-1.3a4.8,4.8,0,0,1,1.3.6c-.3-.2.7-.1-.1-.6l-.2.2c-.2-.2-.1-.4-.3-.6.2.1.3.2.4.2-.2-.2-.1-.4-.6-.6l.9.3c-.4-.1-.6.1-.1.3.8.3.4-.1.5-.2.1.5,1.4,1.1.7,1.2l-.2-.2c-.8-.1.2.7.1.9a1.14,1.14,0,0,1,.6.3c-.5.2-.7.4-.8.7a1.17,1.17,0,0,1-.6.6l.7.6-.6-.4c-.4.1.8.6.7.7,0-.1-.1-.1-.2-.2.4.7-.7-.2-.6.1-.6-.5,0-.5-.9-.9.5.7-.1.9,1.2,1.9-.9.1-.5,1.4-.8,1.9-.3-.1-.1-.2-.3-.3.6.8-1,.1-.3.7a7,7,0,0,1-.9-.6c.2.4.3.6.2.8l-.1-.3h-.2l.1.4h0c-.1.5-.6.7-.3,1.6-.2-.6-.8-.7-.9-1,.8,1.1.5,1.5.1,1.7a2.62,2.62,0,0,1-.5-.6l.2.6-.2-.3c-.5.1.2,1.5-.5,1.2a2,2,0,0,0-.4-.8,1.08,1.08,0,0,0-.4.9.35.35,0,0,0-.1-.2c-.1,0,0,.3,0,.5l-.4-.6c.1.4-.3.2-.2.8-.5-.6,0,.9-.4.7,0,.2-.3-.8-.5-.6.8,1.3-.3.2.6,1.6l-.5-.4.4.7c-1-1.2.1.7-.4.5-.1-.2-.1-.2-.1-.3a.71.71,0,0,0,.2.7c-.1.1-.4.7-.6-.2.2.4.2,0,.2-.2-.4-.6-.4-.3-.8-.9,0,.1.1.2.1.3l-.2-.4c.1.8-.4.4-.1,1.4-.1-.2-.2-.3-.3-.2l.4.8-.3.1-.5-1.4c-.4-.1,0,1.3-.1,1.6-.7-1.3-.3.7-1-.4v-.4c-.3.4-.7-.4-.9.3a3.48,3.48,0,0,1,1.4.9c-.7-.4-.5,1.1-1.3.5a3.18,3.18,0,0,0-.3-.9c.2.7-.4.1-.1.9-.2-.2-.6-1-.7-1.1L87,58.3v-.2c-.7-.8-1-.4-1.2.2s-.5,1.3-1,1l-.1-.5v.7c.1-.5-.2-.5-.3-.9-.1.4-.2.7-.3,1.1C83.8,59.5,83.6,58.6,83.8,58.8Zm6.5-2.9.1-.1a.09.09,0,0,0,.1-.1l-.1.1C90.3,55.7,90.1,55.4,90.3,55.9Zm7.7-9v.2c.1,0-.1-.3.2,0C98.2,47,98.2,47,98,46.9ZM87.6,50.8l-.1-.4.3.5Zm-1.2.6V51l.1.1v.4Zm.1,5.1h0c0,.4-.4-.5-.2.5C86.7,57.7,86.5,56.9,86.5,56.5ZM89.6,55c.3.5.1.7.2,1.1-.1-.1-.2-.6-.4-.9-.1,0-.1,0-.1.2C88.8,54.2,89.7,55.6,89.6,55Zm3.2-2.1h0l-.2-.5ZM93,52c-.4-.7-.1-.7-.1-.9.4.5.7,1.2.6,1.2C93.6,52.9,92.8,51.6,93,52Zm-5.7,2.9c0-.3-.4-1.5.1-1v.4h.1l.2.5C87.2,53.5,87.4,54.8,87.3,54.9ZM94,50.7a3.69,3.69,0,0,0-.7-1.4c.7.7.8,1.2.7,1.3Zm-.7-.9c-.1,0-.5-.5-.3-.1.4.4,1.1,1.4.7,1.2a9.22,9.22,0,0,1-.9-1.7Zm1.1,1.8h-.2c-.3-.2-1.1-1.1-.5-.1l.5.1Zm1.5-1.4.2.3c0-.1-.1-.2-.2-.3l-.1-.3C95.3,49.8,95.6,50,95.9,50.2Zm-1.5,1.1.1-.3C94.4,51,94.1,50.9,94.4,51.3Zm.8-1.7c-.1,0-.4.1-.4.2C95.2,50.1,95.3,49.9,95.2,49.6Zm3.1-4.9-.7-.3v-.2Zm-1.8.9v.1l-.3-.2Zm-1.4,1.2c.1.1.3.2.4.3l.2.2-.2-.2c-.1-.2.1-.2.3-.1s.1.3.3.5c.7.4-.9-1.4.8.1-.2-.2-.5-.8-.9-1,0,.3-.4.4-.9.2-.1-.1-.1-.1-.2-.1A.35.35,0,0,1,95.1,46.8Zm-1.8,1.3c0,.1,0,.2.1.2,0,.2.2.4.4.6-.1-.3-.3-.4-.5-.6C93.3,48.2,93.2,48.1,93.3,48.1Zm-.8-.8.5.9-.3-.5.2.5C92.5,47.8,92.1,47.1,92.5,47.3Zm0,.7.3.4-.3-.4h0l-.1-.1v.5Zm-2.1,2.9c-1.2-1.6-.5-1.3-1-2.1.4.5,1.1,1.3.8,1.5.6.4-.6-1.1.5.1-.2,0,0,.5,0,.6h.2C91.5,52,90.3,50.6,90.4,50.9Zm-1.7.6-.1.2Zm-5,1.6c-.1-.4-.6-1.2-.4-.3A.37.37,0,0,1,83.7,53.1Zm-2.1.7.2-.4c-.3-1-.2.1-.3-.1C81.4,53.8,81.4,53.4,81.6,53.8ZM80,54l-.1.2-.1-1Zm0-2c0-.1-.2.2,0,.6Zm-1.4.9V52l-.1-.1Zm.2.6v-.6c0-.2.1-.3.2-.1,0,.5-.1.2-.1.3s.1.3.2.2a8.45,8.45,0,0,1-.2-1.5c-.3-.4-.2.5-.1,1.1Zm.9.1c0,.1.1.2.1.3v-.2c-.1-.3-.1-.2-.1-.1a.35.35,0,0,0-.1-.2,5.65,5.65,0,0,1,0-1.3c0,.2,0,.8-.2.4v-.3l-.1-.1c0,.8.1,1.1.3,1.3,0,.1.1.3.1.4S79.6,53.7,79.7,53.6Zm-1,.6c0,.2.1.4,0,.6l-.1.2C78.6,54.7,78.7,54.3,78.7,54.2Zm4.6.2c-.1-.2-.2-.9,0-.7l-.3-.8c.1.6-.1.6-.1.6C83.1,54.3,83.1,53.9,83.3,54.4Zm5.1-2.7c.1.3-.5-.2,0,.8C87.8,51.5,88.2,51.5,88.4,51.7Zm.6,1.1h0c0-.3-.4-1.1,0-.7.1.2-.1,0,0,.2.2.4.1.3,0,.5C89.1,52.7,89.1,52.8,89,52.8Zm-2.9,1.3.2.8h-.2ZM84.8,56c-.1-.4-.3-.4-.3-.2-.2-.6,0-.6.1-.6h0a2.12,2.12,0,0,0,.2.6Zm-3.2,1.5c-.2-.4-.2-.3-.2-.1S81.6,57.7,81.6,57.5ZM86,56.2c-.3-.2-.2-.9-.4-1.1h.1c-.4-.6.1.7-.1.6l.1.1c.3.5,0,.4.1.9C86,56.8,86.1,56.3,86,56.2Zm-4.5,1.7c-.3-.6-.1.6-.2.8C81.6,59.2,81.4,58.1,81.5,57.9Zm3.6.8v.1l.1-.4v-.1Z"/><path class="cls-4" d="M80.2,51.9"/><path class="cls-4" d="M87.5,48.8c.1.1.1.2.2.2A.22.22,0,0,1,87.5,48.8Z"/><path class="cls-4" d="M87.6,48.3"/><path class="cls-4" d="M96.4,41.5c-.7-.3-.1,0-.2.1C96.3,41.5,96.8,41.7,96.4,41.5Z"/><path class="cls-4" d="M97.4,42.4q-.3-.15-.3-.3T97.4,42.4Z"/><path class="cls-4" d="M97.3,41.9c-.2,0-.2.1-.2.2C97.1,42,97.4,42.1,97.3,41.9Z"/><path class="cls-4" d="M96.6,43.5c-.4-.3-.1-.3-.1-.3-.5.1-.7-.5-1-.6C95.6,42.8,96.1,43,96.6,43.5Z"/><path class="cls-4" d="M96.6,44h.1C96.6,43.9,96.6,43.9,96.6,44Z"/><path class="cls-4" d="M96.2,43.8c0,.1.5.4.8.7.4.1-.3-.4-.3-.6C96.6,44,96.6,44.1,96.2,43.8Z"/><path class="cls-4" d="M92.3,44.9c0-.1,0-.1-.2-.3l-.1.1C92.1,44.9,92.2,44.9,92.3,44.9Z"/><path class="cls-4" d="M92.9,46.3c0,.1-.5-.4-.5-.3l.8.7Z"/><path class="cls-4" d="M96.6,49.7Z"/><path class="cls-4" d="M91.8,46.1l-.7-.8A6.68,6.68,0,0,0,91.8,46.1Z"/><path class="cls-4" d="M90.9,45.9l-.2-.3a.63.63,0,0,0,.1.4Z"/><polygon class="cls-4" points="90.8 46.7 90.6 46.5 90.7 46.8 90.8 46.7"/><path class="cls-4" d="M85.5,50.9c.3.9.4.4.6.6C85.6,50.5,86,52,85.5,50.9Z"/><path class="cls-4" d="M80.5,52.3c.1-.1.2-.2.2-.3C80.5,51.7,80.7,52.1,80.5,52.3Z"/><path class="cls-4" d="M77.4,53.1a.09.09,0,0,0,.1.1C77.5,53.1,77.5,53.1,77.4,53.1Z"/><path class="cls-4" d="M77.6,54.6a1.77,1.77,0,0,0-.2-1.4C77.3,53.6,76.6,54.3,77.6,54.6Z"/><path class="cls-4" d="M75.7,52.8l.2.5C76.3,53.1,75.8,53.1,75.7,52.8Z"/><polygon class="cls-4" points="76.7 53.1 77 53.2 76.7 52.9 76.7 53.1"/><path class="cls-4" d="M77.8,29.3a1.55,1.55,0,0,0,.6-.1Z"/><path class="cls-4" d="M75.8,28.7l-.2-.2C75.7,28.6,75.7,28.7,75.8,28.7Z"/><path class="cls-4" d="M77.9,30.3Z"/><path class="cls-4" d="M78.8,42.4c.3.2.6.3.7.5C79.8,42.5,79.2,42.5,78.8,42.4Z"/><path class="cls-4" d="M69.2,26l.3-.1C69.3,25.9,69.2,25.9,69.2,26Z"/><path class="cls-4" d="M71,30c.2,0,.3-.1.4-.1h-.1Z"/><path class="cls-4" d="M77.5,31.2h0l.2.1C77.8,31.2,77.7,31.2,77.5,31.2Z"/><path class="cls-4" d="M68.3,24.9a2.08,2.08,0,0,0-.7.1A.86.86,0,0,0,68.3,24.9Z"/><path class="cls-4" d="M75.7,28.5"/><path class="cls-4" d="M71.8,31.3l-.2-.2C71.5,31.2,71.6,31.3,71.8,31.3Z"/><path class="cls-4" d="M78.8,42.4a.35.35,0,0,1-.2-.1C78.6,42.4,78.7,42.4,78.8,42.4Z"/><path class="cls-4" d="M78.2,52c0-.1-.2-.2-.4-.3A1.31,1.31,0,0,0,78.2,52Z"/><path class="cls-4" d="M59.7,2.4"/><path class="cls-4" d="M64.6,5.8c.1,0,.1-.1.2-.1S64.8,5.7,64.6,5.8Z"/><path class="cls-4" d="M62.4,14.4c.2-.5-.8-.3-1-.5l.4-.2h-.4l.4-.3c-.5-.2-.5-1-1.2-.6l.7-.5h-.8l.6-.1a1.05,1.05,0,0,0-.7-.6l-.6-.2.3-.2c.1-.2-.2-.1-.3-.1l.4-.3c-.7-.5-.1-1.4-1.1-1.8-.1-.3.2,0,.4-.2.2-.4-.3-.4-.5-.3.6-.5.7,0,.9-.7-.4.1.6-.4.2-.6l-.8.6c-.1-.3.5-.6.1-.7-.6.1-.3,1.1-.9.8-.4-.2.7-2-.1-2.1-.1-.7,1.2-1,.4-1.3l.8-.2c.1-.3.4-.6,0-.7a3,3,0,0,1-.9.4c1-.1.1-1.3,1.3-1.6l-.2-.1.1-.1-.2-.3c.3,0,.8.3,1-.5L60.4.9c.4-.3.4-.6.7-.9L63,.3c-.3.2-.6.2-.7.5.2.5.6-.2.7.4l-.6.3c.1-.1.2-.1.2-.2.1-.3-.2-.1-.4.1-.2.5.3.5.7.3.4.4-.5.8-.6,1,.8-.5.7.6,1.2.5l-.6.3c-.2.8.5.6.8.6l-.3.2c.5.3-.5,1.6,1,.8l-.3.2c.1.3,0,.7.5.6-.1.1-.3.3-.3.4.6-.4.4.1.5.5-.3,0-.8.6-1.2.6-.3.9,1-.3,1.3,0-.2.5-.5.1-.8.3.8.2-.6,2.3.9,1.5l.2-.6c.4,0,.5.1.4.1s-.1,0-.3.1c-.2,1.1,1.7.2,2,1a2.18,2.18,0,0,0-.7.3c0,.5,1.5-.7,1.3.2l-.4.1c-.1.3.4.1.5,0-1.1.9.8,1-.5,2.4.8-.2,1.8.1,1.6.6-.5.8-1,.3-1.6.8.1.2.9-.1.9.4.7-.4.9-1.6,1.7-1.1l-.3.3c0-.1.1-.3-.1-.3-.5.1-.4.4-.5.6l.6.6c.8-.4.3-.7.5-.9.2.7-.5,2,.3,2.2l-.3.1c1,.3-1.1,1.1.4,1,0,.4-.8.3-.7.8.1.1.3-.1.4-.2.5.4-.6.6.3.7l-.8.3c.8.3,2.6.2,2.5.9-.6.3-.7-.1-1.3,0a1.48,1.48,0,0,1,1.2.9c.2.4.2.9.7,1.1.5-.4,1.4-.2,1.6-.9-.9.3-.4-.2-.6-.4,1.9-.4-.2,1.9,1.4,1.4l-.6.4a1,1,0,0,0,.9-.1l-.1.9c-.6-.1-1.9-.2-1.3-.6-.8.1-.3.5-1.2.6,1.3,0-.3.5.1.9.8-.6,1.5,0,1.9-.2-.1.2.5.5.8.5.2.3-.3,1.3.2,1.6a2.23,2.23,0,0,0-1.4,0c.4.1.5.4-.2.7-1.6-.4,1.5-.8.4-1.3-.9.1-1.1,0-1.5-.3a10.59,10.59,0,0,1-1.1.6c1.8-.2.6,1.1,1.6,1.5.6.1,1.6-.5,2,.1l.3-.7c-.3.7.5,0,.9.4h-.6c0,.3.1.4.6.4h-.9c0,.2-.1.5.4.4a1.69,1.69,0,0,1-.5.2c.1,0,.3,0,.3.2-.1-.1-.1-.2-.4-.1.4.6-.9.5-.7.9a.68.68,0,0,0-.5.4c1.3-.4,1.8.4,2.6.4h0l.7.4c-.1-.1-.5.1-.6.4h0c-.2.2-1.5.2-1,.6h.9c-.1,0-.3.1-.4.1l.5.2c-1.2.8.9.7.4,1.4.1-.2-.1-.4-.5-.2,0,.2.1.3.4.3h-.2l1.1.9c-.5,0-.7-.6-1.1-.2-.6.3.1.4.2.6.4-.1.6-.5.9-.2-.2.1-.5.5-.8.4.5.3.8.8,1.5,1-.1.1-.3,0-.4,0h.1c-.2-.2-.9.2-.6-.4-1.2.2-.2.7-.3,1.1l-.9-.4c-1.5,1.2.6,2.2.8,3.2.3-.4-.1-.5.9-.7.6.6.3.5.6,1.1h-.1c-.4.4.6.7-.3,1-.5-.1.4-.5-.6-.4l.2.8c-.7-.2-.2-.8-.4-1.1,0-.2.2.4.9.2-.1-.7-.8-.8-1.9-1-.8-.1-.7.4-.7.6,1.1.3,1.7.9,1.3,1.7l-.6.6c.8.3,2.2,0,2.1.6l-.6-.1-.3.3c-.4-.2-1-.5-1.5-.7-1.2.5.7,1,1,1.5-.2,0-.2-.2-.5-.2-.2.8,1.3,1.6,1.5,2.2-.5.3-.4-.5-1.2-.3.3.3-.3.7.4.8-1.1-.1-.1.8-1.1.2-.5,1.2.6,2.4,1.1,3.7a1.1,1.1,0,0,0-.8,0,1.33,1.33,0,0,0-1-1.2c-.5.3.7.6.4.7-.3-.1-.3-.4-.8-.4-.6.3.2.5.3.8l.3-.1c.7.8,1.8.5,1.5,1.3-.7.3-.5,0-1.3-.1.3.2-.6.7.2,1l.1-.5c.2.4.2.7.4.9-.2,0-.3-.1-.4-.1.3.3.1.6.6.8h-.9c.4-.1.5-.6.1-.7-.7,0-.3.5-.4.7-.1-.9-1.5-1.1-.9-1.8l.3.1c.7-.4-.4-1-.3-1.4a1.55,1.55,0,0,1-.6.1c.7-.9.2-1.8.6-2.9l-.8-.3h.6c.3-.5-.9-.1-.8-.4,0,.1.1.1.3.1-.7-.6.6-.4.4-.7.7.1.3.6,1.2.4-.8-.6-.4-1.5-2-1.5a2,2,0,0,0-.1-1.7,9.29,9.29,0,0,1-.7-1.5c.2-.2.2,0,.4,0-.9-.2.5-1.3-.3-1.2a4.68,4.68,0,0,1,1-.5c-.4-.2-.7-.4-.8-.7h.2l-.4-.3h0c-.4-.7-.3-1.6-1.3-2.1.6.3.9-.3,1.3-.2a1.42,1.42,0,0,1-1.59-1.23,1,1,0,0,1,0-.17c.3-.1.5-.2.7-.1l-.6-.3h.3c.1-.7-1.5-1.1-1-1.7.2.2.5.2.9.1a2.58,2.58,0,0,0-.8-1.4h.3c.1-.2-.3-.3-.5-.4l.6-.2c-.4-.2-.2-.7-.8-.8.6-.3-.8-.6-.7-1.1-.2-.1.8.1.6-.3-1.3.4-.2-.5-1.6-.1l.4-.5-.7.2c1.2-.8-.7-.2-.5-.8.2,0,.2,0,.3-.1-.2-.1-.4-.4-.7,0-.1-.2-.7-.9.2-.8-.4.1,0,.3.2.4.6-.2.2-.5.8-.9h-.3l.3-.2c-.8-.2-.6-.8-1.5-.8.2-.1.3-.2.2-.4l-.7.3-.2-.5,1.2-.2c0-.6-1.4-.4-1.7-.8,1.2-.7-.8-.6.1-1.4l.5.2c-.6-.6.1-1-.6-1.5a3.63,3.63,0,0,1-.5,1.9c.1-1-1.3-1-1-2,.3-.1.6,0,.8-.3-.7.2-.3-.7-1-.2.1-.3.7-.7.8-.9l-1.3-.2.1-.1c.4-1.1-.2-1.5-.9-1.8s-1.6-.5-1.6-1.2l.4-.2-.7.1c.5,0,.4-.4.7-.6l-1.4-.3C61.7,14.6,62.4,14.1,62.4,14.4Zm6.1,10.1.1.2c0,.1,0,.1.1.1v-.1C68.7,24.5,69,24.3,68.5,24.5Zm6.7,19.2-.1-.4c0,.1.2.3-.1.2C75,43.7,75,43.8,75.2,43.7Zm-2-21.5h.5l-.4.3ZM72,19.4l.4.2-.1.1Zm-5.6-1.1h0c-.5,0,.3-.6-.6-.3C65.3,18.6,66.1,18.3,66.4,18.3Zm2.9,5.3c-.5.2-.7-.1-1.1,0,0-.2.6-.2.9-.3,0-.1,0-.1-.2-.2C69.9,22.7,68.7,23.5,69.3,23.6Zm2.5,6.3h0l.5.1Zm.9,1.1c.7,0,.7.4.9.6-.5.3-1.2.2-1.2-.2C71.8,31.2,73.2,31,72.7,31ZM68.6,20c.3.1,1.5-.2,1.1.5l-.4-.1v.1l-.5.1C70,20,68.7,20.1,68.6,20Zm5.2,13.7c.5.2,1.1.6,1.5.4-.9.2-1.4-.1-1.4-.2S73.9,33.8,73.8,33.7Zm1-.2c.1-.2.6-.3.2-.5-.5.2-1.6.3-1.3-.2.9.1,1.3,0,1.8.3Zm-1.9,0,.1-.2c.3-.3,1.3-.6.2-.6l-.2.6C72.9,33.3,72.9,33.4,72.9,33.5Zm.8,3.4-.3-.1c0,.1.2.1.3.1l.3.1C74.3,36.5,74,36.8,73.7,36.9Zm-.5-3.1.2.4C73.5,34,73.6,33.7,73.2,33.8Zm1.3,2.8v-.7C74,36.1,74.2,36.5,74.5,36.6Zm1.7,10.6.6-.2.1.3Zm.8-3.3-.1-.2.3-.1Zm-.1-3.7c-.1,0-.3.1-.5,0s-.1-.1-.3-.1a.45.45,0,0,0,.3.1.28.28,0,0,1,0,.5c-.3,0-.3-.2-.5-.3-.7.4,1.6.8-.5.9.3.1.9.5,1.3.3a1.08,1.08,0,0,1,.2-1.4.35.35,0,0,0,.2-.1C77,40.1,77,40.1,76.9,40.2Zm-.3-4.7-.2-.2a.85.85,0,0,0-.7,0c.3.2.5,0,.7,0C76.4,35.4,76.5,35.4,76.6,35.5Zm.9-.2c-.3-.2-.7-.3-1-.5l.5.1-.5-.3C77.1,34.6,77.9,34.9,77.5,35.3Zm-.6-.9H77l-.5-.7Zm-3.1-6.9c1.6-.8,1.4.2,2.3.1-.6.2-1.3.8-1.6.1-.4.8,1.2,0-.1.8,0-.3-.5-.5-.6-.5a.37.37,0,0,0,.1.3C72.8,28.5,74.3,27.6,73.8,27.5Zm-.9-3.6-.3-.3ZM68,13.7c.4-.2.7-1.1-.1-.8C68,13.2,68.3,13.5,68,13.7ZM65.1,9.9l.6.2c.7-.7-.3-.3-.4-.6C64.9,9.6,65.3,9.6,65.1,9.9ZM62.8,7.3h-.2l.8-.5Zm1.8-.8c0-.1-.4-.2-.7.1Zm-2.9-2,.7-.5-.1-.2Zm-.3.6c.1,0,.3-.2.4-.3s.4,0,.4.3c-.3.3-.2,0-.4,0,0,.1-.1.4.2.4.4-.7.5-.6.9-1.1-.1-.7-.6,0-1.1.4C61.7,4.8,61.6,4.9,61.4,5.1Zm1.3,1.5a.37.37,0,0,1-.1.3l.1-.1c.2-.3.1-.3,0-.2V6.3c.3-.4.8-.4,1.1-.6-.2,0-.7.3-.6-.1.1-.1.2-.2.3-.1l-.1-.3c-.8.3-.7.7-.6,1.1-.1.1-.1.2-.2.3ZM60.8,5.4c-.1.1-.2.3-.4.4h-.2a.44.44,0,0,1,.42-.44A.53.53,0,0,1,60.8,5.4ZM66.3,13c.1-.2.7-.3.7,0l.6-.6a.44.44,0,0,1-.61,0,.56.56,0,0,1-.09-.17C66.2,12.6,66.6,12.6,66.3,13Zm6.3,10.2c-.3,0,0-.8-.9-.5C72.6,22.1,72.6,22.8,72.6,23.2Zm-1,.5a.09.09,0,0,1,.1.1c.3.1,1-.2.7.2-.2,0,0-.2-.3-.2-.5.2-.4.1-.5,0Zm-2.7-5.6-.8.2L68,18Zm-3-2.5c.4-.2.2-.5-.1-.5.5-.3.6,0,.7.1s.1,0,.1.1-.1,0-.1-.1a.84.84,0,0,0-.5.3l-.1.2-.3-.2ZM61.7,11c.2-.5,0-.4-.2-.4C61.4,10.8,61.5,11,61.7,11Zm4.7,6.5c0-.5.8-.3.9-.6l.1.2c.3-.6-.7.1-.6-.2v.2c-.4.4-.4,0-.8.2C65.9,17.5,66.4,17.7,66.4,17.5ZM61.2,11c.2-.7-.6.1-.8,0C60.2,11.6,60.9,10.9,61.2,11Zm2.2,5.3h0l.3.1.1-.1Z"/><path class="cls-4" d="M65,6.9a.22.22,0,0,0-.2-.2Z"/><path class="cls-4" d="M75.6,23.3c-.2.1-.2.1-.2.2Z"/><path class="cls-4" d="M76.2,24"/><path class="cls-4" d="M78.9,51.8c.7.2.1-.2.1-.3C79,51.6,78.5,51.6,78.9,51.8Z"/><path class="cls-4" d="M77.8,50.6a.78.78,0,0,1,.4.4C78.2,50.9,78.2,50.8,77.8,50.6Z"/><path class="cls-4" d="M78.1,51.5c.2-.2.2-.4.1-.5C78.2,51.1,77.9,51.2,78.1,51.5Z"/><path class="cls-4" d="M78.1,47.8c.4.2.2.5.2.5.4-.7.8.1,1.1.2C79.3,48,78.7,48,78.1,47.8Z"/><path class="cls-4" d="M77.9,46.9c0,.1,0,.1-.1.2A.3.3,0,0,0,77.9,46.9Z"/><path class="cls-4" d="M78.3,46.6c-.1-.2-.6-.3-.9-.4-.3.3.4.5.5.7C77.9,46.7,77.8,46.5,78.3,46.6Z"/><path class="cls-4" d="M79.8,38.8c.1,0,.1.2.3.2v-.4C80,38.4,79.9,38.7,79.8,38.8Z"/><path class="cls-4" d="M78.3,37.5c-.1-.3.6-.3.4-.4l-.9.2Z"/><path class="cls-4" d="M73.9,38.4l.1.1Z"/><path class="cls-4" d="M78.9,35.7h1A1.56,1.56,0,0,0,78.9,35.7Z"/><polygon class="cls-4" points="79.3 34.3 79.7 34.5 79.2 33.9 79.3 34.3"/><polygon class="cls-4" points="78.5 33 78.7 32.9 78.3 32.5 78.5 33"/><path class="cls-4" d="M71.9,17.7c-.8.3-.2.8-.3,1C72.5,18.1,71.1,18.4,71.9,17.7Z"/><path class="cls-4" d="M65.1,7.6l.6.4C65.6,7.4,65.6,7.9,65.1,7.6Z"/></symbol></defs><title>Kayak_Logo5</title><rect class="cls-5" x="11.35" y="49.75" width="229.4" height="84.5"/><text class="cls-6" transform="translate(11.35 108.06) scale(0.99 1)">kaYak</text><text class="cls-7" transform="translate(0 124.65) scale(0.99 1)">The worlds treasures await!</text><use width="106.8" height="79.2" transform="matrix(0.87, 0, 0, -0.87, 52.09, 68.9)" xlink:href="#Tropical"/></svg>